mtllib ./Booster.mtl
g Torus
v -43.70534 5.406987 -1.522177E-05
v 21.04347 5.406987 -89.11905
v -28.48981 20.6225 -1.26357E-05
v 25.74532 20.6225 -74.64823
v -28.48981 20.6225 -1.26357E-05
v 25.74532 20.6225 -74.64823
v -13.27429 5.406981 1.175811E-06
v 30.44718 5.406981 -60.17742
v 15.4 -6.731553E-07 0
v 39.30801 -6.731553E-07 -32.90656
v 7.700001 -0.2180967 0
v 36.92858 -0.2180967 -40.22969
v 0 1.346311E-06 0
v 34.54915 1.346311E-06 -47.55283
v 21.04347 5.406987 -89.11905
v 125.8092 5.406987 -55.0786
v 25.74532 20.6225 -74.64823
v 113.4996 20.6225 -46.13514
v 25.74532 20.6225 -74.64823
v 113.4996 20.6225 -46.13514
v 30.44718 5.406981 -60.17742
v 101.19 5.406981 -37.19168
v 39.30801 -6.731553E-07 -32.90656
v 77.99199 -6.731553E-07 -20.33737
v 36.92858 -0.2180967 -40.22969
v 84.22142 -0.2180967 -24.86332
v 34.54915 1.346311E-06 -47.55283
v 90.45085 1.346311E-06 -29.38926
v 125.8092 5.406987 -55.0786
v 125.8092 5.406987 55.0786
v 113.4996 20.6225 -46.13514
v 113.4996 20.6225 46.13514
v 113.4996 20.6225 -46.13514
v 113.4996 20.6225 46.13514
v 101.19 5.406981 -37.19168
v 101.19 5.406981 37.19169
v 77.99199 -6.731553E-07 -20.33737
v 77.99199 -6.731553E-07 20.33737
v 84.22142 -0.2180967 -24.86332
v 84.22142 -0.2180967 24.86331
v 90.45085 1.346311E-06 -29.38926
v 90.45085 1.346311E-06 29.38926
v 125.8092 5.406987 55.0786
v 21.04345 5.406987 89.11905
v 113.4996 20.6225 46.13514
v 25.74531 20.6225 74.64822
v 113.4996 20.6225 46.13514
v 25.74531 20.6225 74.64822
v 101.19 5.406981 37.19169
v 30.44716 5.406981 60.17741
v 77.99199 -6.731553E-07 20.33737
v 39.30801 -6.731553E-07 32.90655
v 84.22142 -0.2180967 24.86331
v 36.92857 -0.2180967 40.22969
v 90.45085 1.346311E-06 29.38926
v 34.54914 1.346311E-06 47.55283
v 21.04345 5.406987 89.11905
v -43.70534 5.406987 -1.522177E-05
v 25.74531 20.6225 74.64822
v -28.48981 20.6225 -1.26357E-05
v 25.74531 20.6225 74.64822
v -28.48981 20.6225 -1.26357E-05
v 30.44716 5.406981 60.17741
v -13.27429 5.406981 1.175811E-06
v 39.30801 -6.731553E-07 32.90655
v 15.4 -6.731553E-07 -6.049656E-06
v 36.92857 -0.2180967 40.22969
v 7.700001 -0.2180967 -7.395967E-06
v 34.54914 1.346311E-06 47.55283
v 0 1.346311E-06 -8.742278E-06
v 21.04347 5.406987 -89.11905
v 125.8092 5.406987 -55.0786
v 125.8092 5.406987 -55.0786
v 125.8092 5.406987 55.0786
v 77.99199 -6.731553E-07 20.33737
v 77.99199 -6.731553E-07 -20.33737
v 101.19 5.406981 37.19169
v 101.19 5.406981 -37.19168
v 39.30801 -6.731553E-07 32.90655
v 77.99199 -6.731553E-07 20.33737
v 30.44716 5.406981 60.17741
v 101.19 5.406981 37.19169
v 15.4 -6.731553E-07 -6.049656E-06
v 39.30801 -6.731553E-07 32.90655
v -13.27429 5.406981 1.175811E-06
v 30.44716 5.406981 60.17741
v 39.30801 -6.731553E-07 -32.90656
v 15.4 -6.731553E-07 0
v 30.44718 5.406981 -60.17742
v -13.27429 5.406981 1.175811E-06
v -43.70534 5.406987 -1.522177E-05
v 21.04347 5.406987 -89.11905
v 77.99199 -6.731553E-07 -20.33737
v 39.30801 -6.731553E-07 -32.90656
v 101.19 5.406981 -37.19168
v 30.44718 5.406981 -60.17742
v 125.8092 5.406987 55.0786
v 21.04345 5.406987 89.11905
v 21.04345 5.406987 89.11905
v -43.70534 5.406987 -1.522177E-05

vn -0.6289599 0.6289603 -0.4569664
vn -0.62896 0.6289604 -0.4569664
vn -0.62896 0.6289604 -0.4569664
vn -0.6289599 0.6289604 -0.4569664
vn 0.6289599 0.6289605 0.4569664
vn 0.62896 0.6289603 0.4569664
vn 0.62896 0.6289603 0.4569664
vn 0.6289602 0.62896 0.4569664
vn 0.9928448 -0.1194122 3.141092E-07
vn 0.306806 -0.119412 0.9442515
vn -1.30465E-07 -1 -1.39784E-09
vn -4.007141E-08 -1 -1.248737E-07
vn -0.07554203 -0.9971426 9.343156E-09
vn -0.02334376 -0.9971426 -0.07184476
vn 0.2402413 0.6289603 -0.7393869
vn 0.2402413 0.6289603 -0.7393869
vn 0.2402413 0.6289603 -0.7393869
vn 0.2402413 0.6289604 -0.7393869
vn -0.2402414 0.62896 0.7393872
vn -0.2402414 0.6289601 0.7393872
vn -0.2402414 0.6289601 0.7393872
vn -0.2402414 0.62896 0.7393871
vn 0.306806 -0.119412 0.9442515
vn -0.8032281 -0.1194124 0.5835797
vn -4.007141E-08 -1 -1.248737E-07
vn 1.062358E-07 -1 -7.734713E-08
vn -0.02334376 -0.9971426 -0.07184476
vn 0.06111475 -0.9971426 -0.04440249
vn 0.7774372 0.6289606 0
vn 0.7774371 0.6289606 0
vn 0.7774371 0.6289606 0
vn 0.7774372 0.6289606 0
vn -0.7774374 0.6289603 0
vn -0.7774374 0.6289602 0
vn -0.7774374 0.6289602 0
vn -0.7774375 0.6289603 0
vn -0.8032281 -0.1194124 0.5835797
vn -0.803228 -0.1194124 -0.5835799
vn 1.062358E-07 -1 -7.734713E-08
vn 1.064688E-07 -1 7.734713E-08
vn 0.06111475 -0.9971426 -0.04440249
vn 0.06111475 -0.9971426 0.04440248
vn 0.2402413 0.6289603 0.739387
vn 0.2402412 0.6289604 0.7393869
vn 0.2402412 0.6289604 0.7393869
vn 0.2402411 0.6289605 0.7393867
vn -0.2402413 0.62896 -0.7393872
vn -0.2402413 0.62896 -0.7393872
vn -0.2402413 0.62896 -0.7393872
vn -0.2402413 0.62896 -0.7393872
vn -0.803228 -0.1194124 -0.5835799
vn 0.3068058 -0.1194126 -0.9442515
vn 1.064688E-07 -1 7.734713E-08
vn -3.960546E-08 -1 1.22078E-07
vn 0.06111475 -0.9971426 0.04440248
vn -0.02334379 -0.9971426 0.07184475
vn -0.62896 0.6289604 0.4569662
vn -0.6289601 0.6289604 0.4569663
vn -0.6289601 0.6289604 0.4569663
vn -0.6289601 0.6289604 0.4569663
vn 0.6289603 0.62896 -0.4569663
vn 0.6289602 0.62896 -0.4569664
vn 0.6289602 0.62896 -0.4569664
vn 0.6289602 0.62896 -0.4569664
vn 0.3068058 -0.1194126 -0.9442515
vn 0.9928448 -0.1194122 3.141092E-07
vn -3.960546E-08 -1 1.22078E-07
vn -1.30465E-07 -1 -1.39784E-09
vn -0.02334379 -0.9971426 0.07184475
vn -0.07554203 -0.9971426 9.343156E-09
vn -0.03794067 -0.9924341 -0.1167694
vn 0.09932988 -0.9924341 -0.07216744
vn 0.09932988 -0.9924341 -0.07216744
vn 0.09932987 -0.9924341 0.07216745
vn -0.803228 -0.1194124 -0.5835799
vn -0.8032281 -0.1194124 0.5835797
vn -0.1499106 0.982682 -0.1089166
vn -0.1499106 0.982682 0.1089166
vn 0.3068058 -0.1194126 -0.9442515
vn -0.803228 -0.1194124 -0.5835799
vn 0.05726086 0.982682 -0.1762307
vn -0.1499106 0.982682 -0.1089166
vn 0.9928448 -0.1194122 3.141092E-07
vn 0.3068058 -0.1194126 -0.9442515
vn 0.1852999 0.982682 2.255339E-08
vn 0.05726086 0.982682 -0.1762307
vn 0.306806 -0.119412 0.9442515
vn 0.9928448 -0.1194122 3.141092E-07
vn 0.05726084 0.982682 0.1762307
vn 0.1852999 0.982682 2.255339E-08
vn -0.1227786 -0.9924341 -1.496033E-08
vn -0.03794067 -0.9924341 -0.1167694
vn -0.8032281 -0.1194124 0.5835797
vn 0.306806 -0.119412 0.9442515
vn -0.1499106 0.982682 0.1089166
vn 0.05726084 0.982682 0.1762307
vn 0.09932987 -0.9924341 0.07216745
vn -0.03794068 -0.9924341 0.1167694
vn -0.03794068 -0.9924341 0.1167694
vn -0.1227786 -0.9924341 -1.496033E-08

vt 0.008495808 -0.01016399
vt 0.9879618 0.007115006
vt 0.08710045 0.279717
vt 0.9075243 0.29419
vt 0.08710045 0.279717
vt 0.9075243 0.29419
vt 0.1659073 0.505914
vt 0.8272891 0.5175812
vt 0.3142675 0.9808838
vt 0.6759281 0.9872637
vt 0.274439 0.8498436
vt 0.7165848 0.8576431
vt 0.2346076 0.7197162
vt 0.7572384 0.7289356
vt -0.001953721 -0.03019327
vt 0.9924816 -0.03606427
vt 0.07909399 0.262217
vt 0.9120566 0.2572992
vt 0.07909399 0.262217
vt 0.9120566 0.2572992
vt 0.160073 0.4899696
vt 0.8315629 0.4860053
vt 0.3127336 0.9686154
vt 0.6799214 0.9664479
vt 0.2717353 0.8365349
vt 0.7206384 0.8338846
vt 0.230738 0.7053809
vt 0.7613564 0.702248
vt 0.024607 -0.01781058
vt 0.9699194 -0.01665473
vt 0.1012938 0.2607023
vt 0.89311 0.2616705
vt 0.1012938 0.2607023
vt 0.89311 0.2616705
vt 0.1779942 0.4777519
vt 0.816314 0.4785324
vt 0.3225289 0.9337855
vt 0.6715785 0.9342122
vt 0.2837172 0.8079522
vt 0.7104455 0.808474
vt 0.2449054 0.683
vt 0.7493124 0.6836168
vt -0.007241696 -0.01718906
vt 0.9871968 -0.01745459
vt 0.07350916 0.2756771
vt 0.9064742 0.2754547
vt 0.07350916 0.2756771
vt 0.9064742 0.2754547
vt 0.1542567 0.5038855
vt 0.8257488 0.5037066
vt 0.3064315 0.9833909
vt 0.6736203 0.9832925
vt 0.2655674 0.8510793
vt 0.7144717 0.8509595
vt 0.2247033 0.7196947
vt 0.7553232 0.7195529
vt 0.01704255 -0.01375517
vt 0.9849653 -0.01182616
vt 0.0955241 0.27148
vt 0.9062792 0.2730956
vt 0.0955241 0.27148
vt 0.9062792 0.2730956
vt 0.1740282 0.493781
vt 0.8276155 0.4950837
vt 0.3219552 0.9608356
vt 0.6793535 0.9615481
vt 0.2822331 0.8319622
vt 0.7191681 0.8328332
vt 0.2425107 0.7039905
vt 0.7589823 0.7050202
vt -0.001953721 -0.03019327
vt 0.9924816 -0.03606427
vt 0.024607 -0.01781058
vt 0.9699194 -0.01665473
vt 0.6715785 0.9342122
vt 0.3225289 0.9337855
vt 0.816314 0.4785324
vt 0.1779942 0.4777519
vt 0.6736203 0.9832925
vt 0.3064315 0.9833909
vt 0.8257488 0.5037066
vt 0.1542567 0.5038855
vt 0.6793535 0.9615481
vt 0.3219552 0.9608356
vt 0.8276155 0.4950837
vt 0.1740282 0.493781
vt 0.6759281 0.9872637
vt 0.3142675 0.9808838
vt 0.8272891 0.5175812
vt 0.1659073 0.505914
vt 0.008495808 -0.01016399
vt 0.9879618 0.007115006
vt 0.6799214 0.9664479
vt 0.3127336 0.9686154
vt 0.8315629 0.4860053
vt 0.160073 0.4899696
vt -0.007241696 -0.01718906
vt 0.9871968 -0.01745459
vt 0.01704255 -0.01375517
vt 0.9849653 -0.01182616

g 2
usemtl 2
usemap 2
f 2/2/2 1/1/1 3/3/3
f 4/4/4 2/2/2 3/3/3
f 6/6/6 5/5/5 7/7/7
f 8/8/8 6/6/6 7/7/7
f 10/10/10 9/9/9 11/11/11
f 12/12/12 10/10/10 11/11/11
f 12/12/12 11/11/11 13/13/13
f 14/14/14 12/12/12 13/13/13
f 16/16/16 15/15/15 17/17/17
f 18/18/18 16/16/16 17/17/17
f 20/20/20 19/19/19 21/21/21
f 22/22/22 20/20/20 21/21/21
f 24/24/24 23/23/23 25/25/25
f 26/26/26 24/24/24 25/25/25
f 26/26/26 25/25/25 27/27/27
f 28/28/28 26/26/26 27/27/27
f 30/30/30 29/29/29 31/31/31
f 32/32/32 30/30/30 31/31/31
f 34/34/34 33/33/33 35/35/35
f 36/36/36 34/34/34 35/35/35
f 38/38/38 37/37/37 39/39/39
f 40/40/40 38/38/38 39/39/39
f 40/40/40 39/39/39 41/41/41
f 42/42/42 40/40/40 41/41/41
f 44/44/44 43/43/43 45/45/45
f 46/46/46 44/44/44 45/45/45
f 48/48/48 47/47/47 49/49/49
f 50/50/50 48/48/48 49/49/49
f 52/52/52 51/51/51 53/53/53
f 54/54/54 52/52/52 53/53/53
f 54/54/54 53/53/53 55/55/55
f 56/56/56 54/54/54 55/55/55
f 58/58/58 57/57/57 59/59/59
f 60/60/60 58/58/58 59/59/59
f 62/62/62 61/61/61 63/63/63
f 64/64/64 62/62/62 63/63/63
f 66/66/66 65/65/65 67/67/67
f 68/68/68 66/66/66 67/67/67
f 68/68/68 67/67/67 69/69/69
f 70/70/70 68/68/68 69/69/69
f 28/28/28 27/27/27 71/71/71
f 72/72/72 28/28/28 71/71/71
f 42/42/42 41/41/41 73/73/73
f 74/74/74 42/42/42 73/73/73
f 76/76/76 75/75/75 77/77/77
f 78/78/78 76/76/76 77/77/77
f 80/80/80 79/79/79 81/81/81
f 82/82/82 80/80/80 81/81/81
f 84/84/84 83/83/83 85/85/85
f 86/86/86 84/84/84 85/85/85
f 88/88/88 87/87/87 89/89/89
f 90/90/90 88/88/88 89/89/89
f 14/14/14 13/13/13 91/91/91
f 92/92/92 14/14/14 91/91/91
f 94/94/94 93/93/93 95/95/95
f 96/96/96 94/94/94 95/95/95
f 56/56/56 55/55/55 97/97/97
f 98/98/98 56/56/56 97/97/97
f 70/70/70 69/69/69 99/99/99
f 100/100/100 70/70/70 99/99/99
