mtllib ./Gate.mtl
g Gate
v 0 0 0
v 0.09673762 0.1331479 0
v 0.09673762 0.1331479 0
v 0.2532624 0.08228993 0
v 0.2532624 0.08228993 0
v 0.2532624 -0.08228992 0
v 0.2532624 -0.08228992 0
v 0.09673756 -0.1331479 0
v 0.09673756 -0.1331479 0
v 0 2.447838E-08 0
v 1.5 0 -0.8660254
v 1.451631 0.1331479 -0.7822481
v 1.451631 0.1331479 -0.7822481
v 1.373369 0.08228993 -0.6466937
v 1.373369 0.08228993 -0.6466937
v 1.373369 -0.08228992 -0.6466937
v 1.373369 -0.08228992 -0.6466937
v 1.451631 -0.1331479 -0.7822482
v 1.451631 -0.1331479 -0.7822482
v 1.5 2.447838E-08 -0.8660254
v 1.5 0 -0.8660254
v 1.451631 0.1331479 -0.7822481
v 1.451631 0.1331479 -0.7822481
v 1.373369 0.08228993 -0.6466937
v 1.373369 0.08228993 -0.6466937
v 1.373369 -0.08228992 -0.6466937
v 1.373369 -0.08228992 -0.6466937
v 1.451631 -0.1331479 -0.7822482
v 1.451631 -0.1331479 -0.7822482
v 1.5 2.447838E-08 -0.8660254
v 1.5 0 0.8660255
v 1.451631 0.1331479 0.7822483
v 1.451631 0.1331479 0.7822483
v 1.379789 0.08228993 0.6672217
v 1.379789 0.08228993 0.6672217
v 1.373369 -0.08228992 0.6466938
v 1.373369 -0.08228992 0.6466938
v 1.451631 -0.1331479 0.7822483
v 1.451631 -0.1331479 0.7822483
v 1.5 2.447838E-08 0.8660255
v 1.5 0 0.8660255
v 1.451631 0.1331479 0.7822483
v 1.451631 0.1331479 0.7822483
v 1.379789 0.08228993 0.6672217
v 1.379789 0.08228993 0.6672217
v 1.373369 -0.08228992 0.6466938
v 1.373369 -0.08228992 0.6466938
v 1.451631 -0.1331479 0.7822483
v 1.451631 -0.1331479 0.7822483
v 1.5 2.447838E-08 0.8660255
v 0 0 -1.748456E-07
v 0.09673762 0.1331479 -1.579314E-07
v 0.09673762 0.1331479 -1.579314E-07
v 0.2532624 0.08228993 -1.305637E-07
v 0.2532624 0.08228993 -1.305637E-07
v 0.2532624 -0.08228992 -1.305637E-07
v 0.2532624 -0.08228992 -1.305637E-07
v 0.09673756 -0.1331479 -1.579314E-07
v 0.09673756 -0.1331479 -1.579314E-07
v 0 2.447838E-08 -1.748456E-07

vn -0.4699518 0.34144 -0.8139805
vn -0.4699518 0.34144 -0.8139804
vn 0.2724468 0.8385051 0.4718918
vn 0.2724468 0.8385051 0.4718918
vn 0.4999999 0 0.8660254
vn 0.4999999 0 0.8660254
vn 0.2724468 -0.8385051 0.4718917
vn 0.2724468 -0.8385051 0.4718917
vn -0.4699518 -0.3414397 -0.8139805
vn -0.4699518 -0.3414397 -0.8139805
vn -0.4699518 0.34144 -0.8139804
vn -0.4699517 0.3414401 -0.8139804
vn 0.2724468 0.8385051 0.4718918
vn 0.2724469 0.8385051 0.4718919
vn 0.4999999 0 0.8660254
vn 0.4999999 0 0.8660254
vn 0.2724468 -0.8385051 0.4718917
vn 0.2724468 -0.8385052 0.4718917
vn -0.4699518 -0.3414397 -0.8139805
vn -0.4699518 -0.3414397 -0.8139805
vn 0.9399036 0.34144 6.468935E-08
vn 0.9399036 0.34144 6.78917E-08
vn -0.5448934 0.8385053 -4.151902E-08
vn -0.5608518 0.8279153 0.001250901
vn -0.999988 0 0.004886113
vn -0.9998098 0.01934738 0.002461807
vn -0.5448934 -0.8385052 -5.022189E-08
vn -0.5448934 -0.8385053 -4.542337E-08
vn 0.9399036 -0.3414399 7.161745E-08
vn 0.9399036 -0.3414399 6.78917E-08
vn 0.9399036 0.34144 6.78917E-08
vn 0.9399036 0.34144 7.143704E-08
vn -0.5608518 0.8279153 0.001250901
vn -0.5808085 0.8140353 0.002837929
vn -0.9998098 0.01934738 0.002461807
vn -0.99924 0.03897961 -9.180872E-08
vn -0.5448934 -0.8385053 -4.542337E-08
vn -0.5448934 -0.8385054 -4.145637E-08
vn 0.9399036 -0.3414399 6.78917E-08
vn 0.9399036 -0.34144 6.452638E-08
vn -0.4699519 0.34144 0.8139804
vn -0.4699519 0.34144 0.8139803
vn 0.3119815 0.781454 -0.5403677
vn 0.2936678 0.8130236 -0.5027445
vn 0.5076678 0.08710605 -0.8571382
vn 0.504352 0.04394456 -0.8623793
vn 0.272447 -0.8385051 -0.4718918
vn 0.2724469 -0.8385052 -0.4718917
vn -0.469952 -0.3414396 0.8139805
vn -0.469952 -0.3414397 0.8139805
vn -0.4699519 0.34144 0.8139803
vn -0.4699519 0.34144 0.8139803
vn 0.2936678 0.8130236 -0.5027445
vn 0.2739699 0.8431922 -0.4625662
vn 0.504352 0.04394456 -0.8623793
vn 0.5000002 0 -0.8660253
vn 0.2724469 -0.8385052 -0.4718917
vn 0.2724469 -0.8385052 -0.4718916
vn -0.469952 -0.3414397 0.8139805
vn -0.469952 -0.3414397 0.8139804

vt 0.7060672 0.5899115
vt 0.6615943 0.5902781
vt 0.6615943 0.5902781
vt 0.5894015 0.5901392
vt 0.5894015 0.5901392
vt 0.5133016 0.5896865
vt 0.4685236 0.3680474
vt 0.4037125 0.3680474
vt 0.4037125 0.3680474
vt 0.3636571 0.3680474
vt 0.01466215 0.1907429
vt 0.03707403 0.2297242
vt 0.03707403 0.2297242
vt 0.0731034 0.292065
vt 0.0731034 0.292065
vt 0.1025685 0.3521191
vt 0.9323177 0.1002758
vt 0.9647232 0.04414782
vt 0.9647232 0.04414782
vt 0.9847509 0.00945881
vt 0.01466215 0.1907429
vt 0.03707403 0.2297242
vt 0.03707403 0.2297242
vt 0.0731034 0.292065
vt 0.0731034 0.292065
vt 0.1025685 0.3521191
vt 0.9323177 0.1002758
vt 0.9647232 0.04414782
vt 0.9647232 0.04414782
vt 0.9847509 0.00945881
vt 0.01466215 0.9890959
vt 0.03707409 0.9508464
vt 0.03707409 0.9508464
vt 0.07014418 0.897687
vt 0.07014418 0.897687
vt 0.09422091 0.844714
vt 0.9323176 0.6358191
vt 0.9647232 0.6919471
vt 0.9647232 0.6919471
vt 0.9847508 0.7266362
vt 0.01466215 0.9890959
vt 0.03707409 0.9508464
vt 0.03707409 0.9508464
vt 0.07014418 0.897687
vt 0.07014418 0.897687
vt 0.09422091 0.844714
vt 0.9323176 0.6358191
vt 0.9647232 0.6919471
vt 0.9647232 0.6919471
vt 0.9847508 0.7266362
vt 0.7060672 0.5899115
vt 0.6615943 0.5902782
vt 0.6615943 0.5902781
vt 0.5894015 0.5901392
vt 0.5894015 0.5901392
vt 0.5133016 0.5896865
vt 0.4685236 0.3680474
vt 0.4037125 0.3680474
vt 0.4037125 0.3680474
vt 0.3636571 0.3680474

g Gate
usemtl Gate
usemap Gate
f 11/11/11 1/1/1 2/2/2
f 12/12/12 11/11/11 2/2/2
f 13/13/13 3/3/3 4/4/4
f 14/14/14 13/13/13 4/4/4
f 15/15/15 5/5/5 6/6/6
f 16/16/16 15/15/15 6/6/6
f 17/17/17 7/7/7 8/8/8
f 18/18/18 17/17/17 8/8/8
f 19/19/19 9/9/9 10/10/10
f 20/20/20 19/19/19 10/10/10
f 31/31/31 21/21/21 22/22/22
f 32/32/32 31/31/31 22/22/22
f 33/33/33 23/23/23 24/24/24
f 34/34/34 33/33/33 24/24/24
f 35/35/35 25/25/25 26/26/26
f 36/36/36 35/35/35 26/26/26
f 37/37/37 27/27/27 28/28/28
f 38/38/38 37/37/37 28/28/28
f 39/39/39 29/29/29 30/30/30
f 40/40/40 39/39/39 30/30/30
f 51/51/51 41/41/41 42/42/42
f 52/52/52 51/51/51 42/42/42
f 53/53/53 43/43/43 44/44/44
f 54/54/54 53/53/53 44/44/44
f 55/55/55 45/45/45 46/46/46
f 56/56/56 55/55/55 46/46/46
f 57/57/57 47/47/47 48/48/48
f 58/58/58 57/57/57 48/48/48
f 59/59/59 49/49/49 50/50/50
f 60/60/60 59/59/59 50/50/50
