mtllib ./FatAsteroid.mtl
g FatAst.
v 0 0.3600818 0
v 0.2832859 0.00943099 0.2990963
v -0.2167141 0.318448 0.5
v 0.2832859 0.00943099 0.2990963
v 0.4759344 -0.8506508 0.7919548
v 0.3996824 -0.8904493 1.238625
v 0.2832859 0.00943099 0.2990963
v 0.3996824 -0.8904493 1.238625
v -0.2167141 0.318448 0.5
v -0.2167141 0.318448 0.5
v 0.3996824 -0.8904493 1.238625
v -0.3773622 -0.4172319 1.291648
v 0 0.3600818 0
v -0.2167141 0.318448 0.5
v -0.5257311 0.3751261 0
v -0.2167141 0.318448 0.5
v -0.3773622 -0.4172319 1.291648
v -0.834748 0.1841432 0.5
v -0.2167141 0.318448 0.5
v -0.834748 0.1841432 0.5
v -0.5257311 0.3751261 0
v -0.5257311 0.3751261 0
v -0.834748 0.1841432 0.5
v -1.051462 0.2257769 0
v 0 0.3600818 0
v -0.5257311 0.3751261 0
v -0.04540756 0.2610066 -0.5
v -0.5257311 0.3751261 0
v -1.051462 0.2257769 0
v -0.834748 0.468653 -0.5
v -0.5257311 0.3751261 0
v -0.834748 0.468653 -0.5
v -0.04540756 0.2610066 -0.5
v -0.04540756 0.2610066 -0.5
v -0.834748 0.468653 -0.5
v -0.3544244 0.2888804 -0.8506508
v 0 0.3600818 0
v -0.04540756 0.2610066 -0.5
v 0.4800805 -0.2083155 -0.309017
v -0.04540756 0.2610066 -0.5
v -0.3544244 0.2888804 -0.8506508
v 0.8037655 -0.4381207 -1.235904
v -0.04540756 0.2610066 -0.5
v 0.8037655 -0.4381207 -1.235904
v 0.4800805 -0.2083155 -0.309017
v 0.4800805 -0.2083155 -0.309017
v 0.8037655 -0.4381207 -1.235904
v 1.213445 -0.7083157 -0.8103935
v 0 0.3600818 0
v 0.4800805 -0.2083155 -0.309017
v 0.2832859 0.00943099 0.2990963
v 0.4800805 -0.2083155 -0.309017
v 1.213445 -0.7083157 -0.8103935
v 1.044123 -0.7083157 0.2761444
v 0.4800805 -0.2083155 -0.309017
v 1.044123 -0.7083157 0.2761444
v 0.2832859 0.00943099 0.2990963
v 0.2832859 0.00943099 0.2990963
v 1.044123 -0.7083157 0.2761444
v 0.4759344 -0.8506508 0.7919548
v -1.051462 0.2257769 0
v -0.834748 0.1841432 0.5
v -1.398785 -0.1287343 0.309017
v -0.834748 0.1841432 0.5
v -0.3773622 -0.4172319 1.291648
v -1.203146 -0.08783741 1.033543
v -0.834748 0.1841432 0.5
v -1.203146 -0.08783741 1.033543
v -1.398785 -0.1287343 0.309017
v -1.398785 -0.1287343 0.309017
v -1.203146 -0.08783741 1.033543
v -1.440419 -0.2770776 0.5661728
v -0.3773622 -0.4172319 1.291648
v 0.3996824 -0.8904493 1.238625
v -0.2136952 -0.967587 2.118276
v 0.3996824 -0.8904493 1.238625
v 0.4759344 -0.8506508 0.7919548
v 0.2513136 -1.184291 0.8075479
v 0.3996824 -0.8904493 1.238625
v 0.2513136 -1.184291 0.8075479
v -0.2136952 -0.967587 2.118276
v -0.2136952 -0.967587 2.118276
v 0.2513136 -1.184291 0.8075479
v -0.5257311 -1.376382 1.304872
v 0.4759344 -0.8506508 0.7919548
v 1.044123 -0.7083157 0.2761444
v 0.5505951 -1.256047 0.5851613
v 1.044123 -0.7083157 0.2761444
v 1.213445 -0.7083157 -0.8103935
v 0.6216245 -1.256047 -0.309017
v 1.044123 -0.7083157 0.2761444
v 0.6216245 -1.256047 -0.309017
v 0.5505951 -1.256047 0.5851613
v 0.5505951 -1.256047 0.5851613
v 0.6216245 -1.256047 -0.309017
v 0.1162946 -1.606698 0
v 1.213445 -0.7083157 -0.8103935
v 0.8037655 -0.4381207 -1.235904
v 0.8790909 -1.540986 -1.235904
v 0.8037655 -0.4381207 -1.235904
v -0.3544244 0.2888804 -0.8506508
v -0.1989891 -0.8270296 -1.142224
v 0.8037655 -0.4381207 -1.235904
v -0.1989891 -0.8270296 -1.142224
v 0.8790909 -1.540986 -1.235904
v 0.8790909 -1.540986 -1.235904
v -0.1989891 -0.8270296 -1.142224
v -0.279099 -1.7577 -0.8506508
v -0.3544244 0.2888804 -0.8506508
v -0.834748 0.468653 -0.5
v -1.364105 0.00495025 -1.071442
v -0.834748 0.468653 -0.5
v -1.051462 0.2257769 0
v -2.106333 -0.3506508 -0.5714424
v -0.834748 0.468653 -0.5
v -2.106333 -0.3506508 -0.5714424
v -1.364105 0.00495025 -1.071442
v -1.364105 0.00495025 -1.071442
v -2.106333 -0.3506508 -0.5714424
v -2.147967 -0.8506508 -0.7881564
v -0.9184772 -1.701302 -0.1308829
v -1.804255 -0.9989946 0.3494589
v -0.701763 -1.659668 0.369117
v -1.804255 -0.9989946 0.3494589
v -1.440419 -0.2770776 0.5661728
v -1.139109 -0.8080113 1.253398
v -1.804255 -0.9989946 0.3494589
v -1.139109 -0.8080113 1.253398
v -0.701763 -1.659668 0.369117
v -0.701763 -1.659668 0.369117
v -1.139109 -0.8080113 1.253398
v -0.5257311 -1.376382 1.304872
v -0.9184772 -1.701302 -0.1308829
v -0.701763 -1.659668 0.369117
v -0.3927462 -1.850651 -0.1308829
v -0.701763 -1.659668 0.369117
v -0.5257311 -1.376382 1.304872
v -0.2167141 -1.659668 0.5
v -0.701763 -1.659668 0.369117
v -0.2167141 -1.659668 0.5
v -0.3927462 -1.850651 -0.1308829
v -0.3927462 -1.850651 -0.1308829
v -0.2167141 -1.659668 0.5
v 0.1162946 -1.606698 0
v -0.9184772 -1.701302 -0.1308829
v -0.3927462 -1.850651 -0.1308829
v -0.834748 -1.659668 -0.5
v -0.3927462 -1.850651 -0.1308829
v 0.1162946 -1.606698 0
v -0.172093 -1.829182 -0.5
v -0.3927462 -1.850651 -0.1308829
v -0.172093 -1.829182 -0.5
v -0.834748 -1.659668 -0.5
v -0.834748 -1.659668 -0.5
v -0.172093 -1.829182 -0.5
v -0.279099 -1.7577 -0.8506508
v -0.9184772 -1.701302 -0.1308829
v -0.834748 -1.659668 -0.5
v -1.804255 -1.350651 -0.309017
v -0.834748 -1.659668 -0.5
v -0.279099 -1.7577 -0.8506508
v -1.089503 -0.9242433 -0.809017
v -0.834748 -1.659668 -0.5
v -1.089503 -0.9242433 -0.809017
v -1.804255 -1.350651 -0.309017
v -1.804255 -1.350651 -0.309017
v -1.089503 -0.9242433 -0.809017
v -2.147967 -0.8506508 -0.7881564
v -0.9184772 -1.701302 -0.1308829
v -1.804255 -1.350651 -0.309017
v -1.804255 -0.9989946 0.3494589
v -1.804255 -1.350651 -0.309017
v -2.147967 -0.8506508 -0.7881564
v -2.49222 -0.8506508 0.2748078
v -1.804255 -1.350651 -0.309017
v -2.49222 -0.8506508 0.2748078
v -1.804255 -0.9989946 0.3494589
v -1.804255 -0.9989946 0.3494589
v -2.49222 -0.8506508 0.2748078
v -1.440419 -0.2770776 0.5661728
v -0.5257311 -1.376382 1.304872
v -1.139109 -0.8080113 1.253398
v -0.2136952 -0.967587 2.118276
v -1.139109 -0.8080113 1.253398
v -1.440419 -0.2770776 0.5661728
v -1.203146 -0.08783741 1.033543
v -1.139109 -0.8080113 1.253398
v -1.203146 -0.08783741 1.033543
v -0.2136952 -0.967587 2.118276
v -0.2136952 -0.967587 2.118276
v -1.203146 -0.08783741 1.033543
v -0.3773622 -0.4172319 1.291648
v 0.1162946 -1.606698 0
v -0.2167141 -1.659668 0.5
v 0.5505951 -1.256047 0.5851613
v -0.2167141 -1.659668 0.5
v -0.5257311 -1.376382 1.304872
v 0.2513136 -1.184291 0.8075479
v -0.2167141 -1.659668 0.5
v 0.2513136 -1.184291 0.8075479
v 0.5505951 -1.256047 0.5851613
v 0.5505951 -1.256047 0.5851613
v 0.2513136 -1.184291 0.8075479
v 0.4759344 -0.8506508 0.7919548
v -0.279099 -1.7577 -0.8506508
v -0.172093 -1.829182 -0.5
v 0.8790909 -1.540986 -1.235904
v -0.172093 -1.829182 -0.5
v 0.1162946 -1.606698 0
v 0.6216245 -1.256047 -0.309017
v -0.172093 -1.829182 -0.5
v 0.6216245 -1.256047 -0.309017
v 0.8790909 -1.540986 -1.235904
v 0.8790909 -1.540986 -1.235904
v 0.6216245 -1.256047 -0.309017
v 1.213445 -0.7083157 -0.8103935
v -2.147967 -0.8506508 -0.7881564
v -1.089503 -0.9242433 -0.809017
v -1.364105 0.00495025 -1.071442
v -1.089503 -0.9242433 -0.809017
v -0.279099 -1.7577 -0.8506508
v -0.1989891 -0.8270296 -1.142224
v -1.089503 -0.9242433 -0.809017
v -0.1989891 -0.8270296 -1.142224
v -1.364105 0.00495025 -1.071442
v -1.364105 0.00495025 -1.071442
v -0.1989891 -0.8270296 -1.142224
v -0.3544244 0.2888804 -0.8506508
v -1.440419 -0.2770776 0.5661728
v -2.49222 -0.8506508 0.2748078
v -1.398785 -0.1287343 0.309017
v -2.49222 -0.8506508 0.2748078
v -2.147967 -0.8506508 -0.7881564
v -2.106333 -0.3506508 -0.5714424
v -2.49222 -0.8506508 0.2748078
v -2.106333 -0.3506508 -0.5714424
v -1.398785 -0.1287343 0.309017
v -1.398785 -0.1287343 0.309017
v -2.106333 -0.3506508 -0.5714424
v -1.051462 0.2257769 0

vn 0.587487 0.7447118 0.3166437
vn 0.587487 0.7447118 0.3166437
vn 0.587487 0.7447118 0.3166437
vn 0.9303311 0.3155016 0.1869305
vn 0.9303311 0.3155016 0.1869305
vn 0.9303311 0.3155016 0.1869305
vn 0.5905062 0.6181177 0.5188766
vn 0.5905062 0.6181177 0.5188766
vn 0.5905062 0.6181177 0.5188766
vn 0.4224736 0.6195975 0.6615248
vn 0.4224736 0.6195975 0.6615248
vn 0.4224736 0.6195975 0.6615248
vn 0.02847446 0.9950511 0.09519706
vn 0.02847446 0.9950511 0.09519706
vn 0.02847446 0.9950511 0.09519706
vn -0.1606046 0.7390581 0.6542165
vn -0.1606046 0.7390581 0.6542165
vn -0.1606046 0.7390581 0.6542165
vn -0.2063953 0.9497744 0.2352222
vn -0.2063953 0.9497744 0.2352222
vn -0.2063953 0.9497744 0.2352222
vn -0.268035 0.9435222 0.1947386
vn -0.268035 0.9435222 0.1947386
vn -0.268035 0.9435222 0.1947386
vn 0.02804529 0.9800536 -0.1967449
vn 0.02804529 0.9800536 -0.1967449
vn 0.02804529 0.9800536 -0.1967449
vn -0.2580196 0.9082666 0.3293596
vn -0.2580196 0.9082666 0.3293596
vn -0.2580196 0.9082666 0.3293596
vn 0.2543364 0.9668263 0.02365999
vn 0.2543364 0.9668263 0.02365999
vn 0.2543364 0.9668263 0.02365999
vn 0.251691 0.9567698 -0.1457516
vn 0.251691 0.9567698 -0.1457516
vn 0.251691 0.9567698 -0.1457516
vn 0.6921145 0.6934499 -0.2002618
vn 0.6921145 0.6934499 -0.2002618
vn 0.6921145 0.6934499 -0.2002618
vn 0.4290529 0.8481666 -0.3106878
vn 0.4290529 0.8481666 -0.3106878
vn 0.4290529 0.8481666 -0.3106878
vn 0.6568319 0.7528254 0.04272734
vn 0.6568319 0.7528254 0.04272734
vn 0.6568319 0.7528254 0.04272734
vn 0.5582733 0.8295878 -0.01072291
vn 0.5582733 0.8295878 -0.01072291
vn 0.5582733 0.8295878 -0.01072291
vn 0.7692021 0.6386852 0.02023209
vn 0.7692021 0.6386852 0.02023209
vn 0.7692021 0.6386852 0.02023209
vn 0.603946 0.7914488 0.09411696
vn 0.603946 0.7914488 0.09411696
vn 0.603946 0.7914488 0.09411696
vn 0.6850733 0.7274416 -0.03877423
vn 0.6850733 0.7274416 -0.03877423
vn 0.6850733 0.7274416 -0.03877423
vn 0.5036978 0.5116795 0.6960407
vn 0.5036978 0.5116795 0.6960407
vn 0.5036978 0.5116795 0.6960407
vn -0.5383033 0.7879545 0.2989268
vn -0.5383033 0.7879545 0.2989268
vn -0.5383033 0.7879545 0.2989268
vn 0.1632959 0.8287723 0.5352298
vn 0.1632959 0.8287723 0.5352298
vn 0.1632959 0.8287723 0.5352298
vn -0.5058493 0.8581056 0.08815453
vn -0.5058493 0.8581056 0.08815453
vn -0.5058493 0.8581056 0.08815453
vn -0.8114412 0.5534147 0.1878704
vn -0.8114412 0.5534147 0.1878704
vn -0.8114412 0.5534147 0.1878704
vn 0.4943157 0.7655451 0.4118161
vn 0.4943157 0.7655451 0.4118161
vn 0.4943157 0.7655451 0.4118161
vn 0.8279894 -0.5531346 0.09206343
vn 0.8279894 -0.5531346 0.09206343
vn 0.8279894 -0.5531346 0.09206343
vn 0.5618904 -0.7606498 0.3251019
vn 0.5618904 -0.7606498 0.3251019
vn 0.5618904 -0.7606498 0.3251019
vn 0.3981686 -0.8717872 0.2853926
vn 0.3981686 -0.8717872 0.2853926
vn 0.3981686 -0.8717872 0.2853926
vn 0.6851739 -0.2268777 0.6921439
vn 0.6851739 -0.2268777 0.6921439
vn 0.6851739 -0.2268777 0.6921439
vn 0.7247441 -0.6796986 0.1129417
vn 0.7247441 -0.6796986 0.1129417
vn 0.7247441 -0.6796986 0.1129417
vn 0.7582224 -0.6492082 0.06022969
vn 0.7582224 -0.6492082 0.06022969
vn 0.7582224 -0.6492082 0.06022969
vn 0.5886153 -0.8070601 0.04675686
vn 0.5886153 -0.8070601 0.04675686
vn 0.5886153 -0.8070601 0.04675686
vn 0.7352127 0.05021483 -0.6759738
vn 0.7352127 0.05021483 -0.6759738
vn 0.7352127 0.05021483 -0.6759738
vn -0.1770157 0.2256541 -0.9579905
vn -0.1770157 0.2256541 -0.9579905
vn -0.1770157 0.2256541 -0.9579905
vn -0.09063537 -0.006190369 -0.9958649
vn -0.09063537 -0.006190369 -0.9958649
vn -0.09063537 -0.006190369 -0.9958649
vn -0.2584372 -0.2684812 -0.9279699
vn -0.2584372 -0.2684812 -0.9279699
vn -0.2584372 -0.2684812 -0.9279699
vn -0.1064452 0.8180509 -0.5652099
vn -0.1064452 0.8180509 -0.5652099
vn -0.1064452 0.8180509 -0.5652099
vn -0.5406726 0.8246456 0.1662306
vn -0.5406726 0.8246456 0.1662306
vn -0.5406726 0.8246456 0.1662306
vn -0.5244842 0.830408 -0.1879857
vn -0.5244842 0.830408 -0.1879857
vn -0.5244842 0.830408 -0.1879857
vn -0.6330437 0.3516249 -0.6896489
vn -0.6330437 0.3516249 -0.6896489
vn -0.6330437 0.3516249 -0.6896489
vn -0.4966412 -0.8203281 0.2835654
vn -0.4966412 -0.8203281 0.2835654
vn -0.4966412 -0.8203281 0.2835654
vn -0.8050635 0.2433432 0.5409775
vn -0.8050635 0.2433432 0.5409775
vn -0.8050635 0.2433432 0.5409775
vn -0.4541616 -0.7432619 0.4912219
vn -0.4541616 -0.7432619 0.4912219
vn -0.4541616 -0.7432619 0.4912219
vn -0.6565548 -0.6787496 0.3289906
vn -0.6565548 -0.6787496 0.3289906
vn -0.6565548 -0.6787496 0.3289906
vn -0.2680349 -0.9435222 0.194739
vn -0.2680349 -0.9435222 0.194739
vn -0.2680349 -0.9435222 0.194739
vn -0.08171389 -0.9495353 0.3028294
vn -0.08171389 -0.9495353 0.3028294
vn -0.08171389 -0.9495353 0.3028294
vn -0.08365773 -0.9470379 0.3100332
vn -0.08365773 -0.9470379 0.3100332
vn -0.08365773 -0.9470379 0.3100332
vn 0.3914799 -0.9053047 0.1648243
vn 0.3914799 -0.9053047 0.1648243
vn 0.3914799 -0.9053047 0.1648243
vn -0.2693798 -0.9482562 -0.1680619
vn -0.2693798 -0.9482562 -0.1680619
vn -0.2693798 -0.9482562 -0.1680619
vn 0.3873943 -0.9043738 0.1789793
vn 0.3873943 -0.9043738 0.1789793
vn 0.3873943 -0.9043738 0.1789793
vn -0.2428059 -0.9491602 -0.2003506
vn -0.2428059 -0.9491602 -0.2003506
vn -0.2428059 -0.9491602 -0.2003506
vn -0.2460108 -0.9616884 -0.1209714
vn -0.2460108 -0.9616884 -0.1209714
vn -0.2460108 -0.9616884 -0.1209714
vn -0.3306759 -0.9265141 -0.1795137
vn -0.3306759 -0.9265141 -0.1795137
vn -0.3306759 -0.9265141 -0.1795137
vn -0.5275525 -0.4778752 -0.7023702
vn -0.5275525 -0.4778752 -0.7023702
vn -0.5275525 -0.4778752 -0.7023702
vn -0.310011 -0.4575672 -0.833382
vn -0.310011 -0.4575672 -0.833382
vn -0.310011 -0.4575672 -0.833382
vn -0.063328 -0.7128472 -0.6984543
vn -0.063328 -0.7128472 -0.6984543
vn -0.063328 -0.7128472 -0.6984543
vn -0.405744 -0.8062205 0.4305585
vn -0.405744 -0.8062205 0.4305585
vn -0.405744 -0.8062205 0.4305585
vn -0.6899938 -0.688457 -0.2234624
vn -0.6899938 -0.688457 -0.2234624
vn -0.6899938 -0.688457 -0.2234624
vn -0.2345856 -0.8574775 0.4579322
vn -0.2345856 -0.8574775 0.4579322
vn -0.2345856 -0.8574775 0.4579322
vn -0.1508178 -0.2137297 0.9651806
vn -0.1508178 -0.2137297 0.9651806
vn -0.1508178 -0.2137297 0.9651806
vn -0.5995045 -0.5988898 0.5309665
vn -0.5995045 -0.5988898 0.5309665
vn -0.5995045 -0.5988898 0.5309665
vn -0.8989012 0.05285277 0.4349518
vn -0.8989012 0.05285277 0.4349518
vn -0.8989012 0.05285277 0.4349518
vn -0.6579551 0.1657511 0.7345895
vn -0.6579551 0.1657511 0.7345895
vn -0.6579551 0.1657511 0.7345895
vn 0.1699157 0.8354732 0.5226024
vn 0.1699157 0.8354732 0.5226024
vn 0.1699157 0.8354732 0.5226024
vn 0.4387673 -0.8761975 0.1994022
vn 0.4387673 -0.8761975 0.1994022
vn 0.4387673 -0.8761975 0.1994022
vn 0.4744062 -0.7573654 0.4487053
vn 0.4744062 -0.7573654 0.4487053
vn 0.4744062 -0.7573654 0.4487053
vn 0.3026561 -0.7096177 0.636272
vn 0.3026561 -0.7096177 0.636272
vn 0.3026561 -0.7096177 0.636272
vn 0.5176097 -0.3112276 0.7970053
vn 0.5176097 -0.3112276 0.7970053
vn 0.5176097 -0.3112276 0.7970053
vn 0.1048135 -0.9677063 -0.2292572
vn 0.1048135 -0.9677063 -0.2292572
vn 0.1048135 -0.9677063 -0.2292572
vn 0.5809446 -0.8134983 0.02690748
vn 0.5809446 -0.8134983 0.02690748
vn 0.5809446 -0.8134983 0.02690748
vn 0.480913 -0.7916064 0.3769376
vn 0.480913 -0.7916064 0.3769376
vn 0.480913 -0.7916064 0.3769376
vn 0.7803177 -0.5031376 0.3714253
vn 0.7803177 -0.5031376 0.3714253
vn 0.7803177 -0.5031376 0.3714253
vn -0.03850727 -0.2821128 -0.9586082
vn -0.03850727 -0.2821128 -0.9586082
vn -0.03850727 -0.2821128 -0.9586082
vn -0.3135173 -0.2592125 -0.9135184
vn -0.3135173 -0.2592125 -0.9135184
vn -0.3135173 -0.2592125 -0.9135184
vn -0.2968358 -0.339768 -0.8924384
vn -0.2968358 -0.339768 -0.8924384
vn -0.2968358 -0.339768 -0.8924384
vn 0.1333237 0.2678861 -0.9541813
vn 0.1333237 0.2678861 -0.9541813
vn 0.1333237 0.2678861 -0.9541813
vn -0.5215833 0.7728787 0.3613992
vn -0.5215833 0.7728787 0.3613992
vn -0.5215833 0.7728787 0.3613992
vn -0.9305245 0.2081005 -0.301361
vn -0.9305245 0.2081005 -0.301361
vn -0.9305245 0.2081005 -0.301361
vn -0.5410935 0.8086075 0.2310227
vn -0.5410935 0.8086075 0.2310227
vn -0.5410935 0.8086075 0.2310227
vn -0.5674158 0.781648 0.2589706
vn -0.5674158 0.781648 0.2589706
vn -0.5674158 0.781648 0.2589706

vt -0.5257311 0
vt -0.809017 0.309017
vt -0.309017 0.5
vt -0.309017 0.5
vt -0.5257311 0
vt -0.809017 0.309017
vt 0.809017 0.5
vt 0.5 0.309017
vt 0.309017 0.809017
vt 0.309017 0.809017
vt 0.5 0.309017
vt 0 0.5257311
vt -0.5257311 0
vt -0.309017 0.5
vt 0 0
vt -0.309017 0.5
vt 0 0.8506508
vt 0.309017 0.5
vt -0.309017 0.5
vt 0.309017 0.5
vt 0 0
vt 0 0
vt 0.309017 0.5
vt 0.5257311 0
vt -0.5257311 0
vt 0 0
vt -0.309017 -0.5
vt 0 0
vt 0.5257311 0
vt 0.309017 -0.5
vt 0 0
vt 0.309017 -0.5
vt -0.309017 -0.5
vt -0.309017 -0.5
vt 0.309017 -0.5
vt 0 -0.8506508
vt -0.5257311 0
vt -0.309017 -0.5
vt -0.809017 -0.309017
vt -0.309017 0.809017
vt 0 0.5257311
vt -0.5 0.309017
vt 0.5 0.809017
vt 0.809017 0.309017
vt 0.309017 0.5
vt 0.309017 0.5
vt 0.809017 0.309017
vt 0.5257311 0
vt 0 0.8506508
vt 0.309017 0.5
vt -0.309017 0.5
vt 0.309017 0.5
vt 0.5257311 0
vt 0 0
vt 0.309017 0.5
vt 0 0
vt -0.309017 0.5
vt -0.309017 0.5
vt 0 0
vt -0.5257311 0
vt 0.5257311 0
vt 0.309017 0.5
vt 0.809017 0.309017
vt -0.309017 0.809017
vt 0 0.5257311
vt -0.5 0.309017
vt 0.5 0.809017
vt 0.809017 0.309017
vt 0.309017 0.5
vt 0.309017 0.5
vt 0.809017 0.309017
vt 0.5257311 0
vt 0 0.5257311
vt 0.5 0.309017
vt 0 0
vt 0.5 0.309017
vt 0.8506508 0
vt 0.5 -0.309017
vt 0.5 0.309017
vt 0.5 -0.309017
vt 0 0
vt 0 0
vt 0.5 -0.309017
vt 0 -0.5257311
vt -0.5257311 0
vt 0 0
vt -0.309017 -0.5
vt 0 0
vt 0.5257311 0
vt 0.309017 -0.5
vt 0 0
vt 0.309017 -0.5
vt -0.309017 -0.5
vt -0.309017 -0.5
vt 0.309017 -0.5
vt 0 -0.8506508
vt -0.8506508 0
vt -0.5 0.309017
vt -0.5 -0.309017
vt -0.5 0.309017
vt 0 0.5257311
vt 0 0
vt -0.5 0.309017
vt 0 0
vt -0.5 -0.309017
vt -0.5 -0.309017
vt 0 0
vt 0 -0.5257311
vt 0 0.5257311
vt 0.309017 0.809017
vt 0.5 0.309017
vt 0.309017 -0.5
vt 0.5257311 0
vt 0.809017 -0.309017
vt -0.5 0.809017
vt -0.309017 0.5
vt -0.809017 0.309017
vt -0.809017 0.309017
vt -0.309017 0.5
vt -0.5257311 0
vt -0.5257311 0
vt -0.809017 0.309017
vt -0.309017 0.5
vt 0.309017 -0.5
vt 0.5257311 0
vt 0.809017 -0.309017
vt -0.809017 -0.5
vt -0.5 -0.309017
vt -0.309017 -0.809017
vt -0.309017 -0.809017
vt -0.5 -0.309017
vt 0 -0.5257311
vt -0.5257311 0
vt -0.309017 0.5
vt 0 0
vt -0.309017 0.5
vt 0 0.8506508
vt 0.309017 0.5
vt -0.309017 0.5
vt 0.309017 0.5
vt 0 0
vt 0 0
vt 0.309017 0.5
vt 0.5257311 0
vt -0.5257311 0
vt 0 0
vt -0.309017 -0.5
vt 0 0
vt 0.5257311 0
vt 0.309017 -0.5
vt 0 0
vt 0.309017 -0.5
vt -0.309017 -0.5
vt -0.309017 -0.5
vt 0.309017 -0.5
vt 0 -0.8506508
vt -0.5257311 0
vt -0.309017 -0.5
vt -0.809017 -0.309017
vt 0.309017 -0.809017
vt 0 -0.5257311
vt 0.5 -0.309017
vt -0.5 -0.809017
vt -0.809017 -0.309017
vt -0.309017 -0.5
vt -0.309017 -0.5
vt -0.809017 -0.309017
vt -0.5257311 0
vt 0 -0.8506508
vt -0.309017 -0.5
vt 0.309017 -0.5
vt -0.309017 -0.5
vt -0.5257311 0
vt 0 0
vt -0.309017 -0.5
vt 0 0
vt 0.309017 -0.5
vt 0.309017 -0.5
vt 0 0
vt 0.5257311 0
vt 0 -0.5257311
vt -0.5 -0.309017
vt 0 0
vt -0.5 -0.309017
vt -0.8506508 0
vt -0.5 0.309017
vt -0.5 -0.309017
vt -0.5 0.309017
vt 0 0
vt 0 0
vt -0.5 0.309017
vt 0 0.5257311
vt 0.5257311 0
vt 0.309017 0.5
vt 0.809017 0.309017
vt 0.309017 -0.809017
vt 0 -0.5257311
vt 0.5 -0.309017
vt -0.5 -0.809017
vt -0.809017 -0.309017
vt -0.309017 -0.5
vt -0.309017 -0.5
vt -0.809017 -0.309017
vt -0.5257311 0
vt 0 -0.5257311
vt -0.309017 -0.809017
vt -0.5 -0.309017
vt 0.309017 -0.5
vt 0.5257311 0
vt 0.809017 -0.309017
vt 0.5 -0.809017
vt 0.309017 -0.5
vt 0.809017 -0.309017
vt 0.809017 -0.309017
vt 0.309017 -0.5
vt 0.5257311 0
vt 0.8506508 0
vt 0.5 -0.309017
vt 0.5 0.309017
vt 0.5 -0.309017
vt 0 -0.5257311
vt 0 0
vt 0.5 -0.309017
vt 0 0
vt 0.5 0.309017
vt 0.5 0.309017
vt 0 0
vt 0 0.5257311
vt 0.5257311 0
vt 0 0
vt 0.309017 0.5
vt 0 0
vt -0.5257311 0
vt -0.309017 0.5
vt 0 0
vt -0.309017 0.5
vt 0.309017 0.5
vt 0.309017 0.5
vt -0.309017 0.5
vt 0 0.8506508

g asteroid
usemtl asteroid
usemap asteroid
f 2/2/2 1/1/1 3/3/3
f 5/5/5 4/4/4 6/6/6
f 8/8/8 7/7/7 9/9/9
f 11/11/11 10/10/10 12/12/12
f 14/14/14 13/13/13 15/15/15
f 17/17/17 16/16/16 18/18/18
f 20/20/20 19/19/19 21/21/21
f 23/23/23 22/22/22 24/24/24
f 26/26/26 25/25/25 27/27/27
f 29/29/29 28/28/28 30/30/30
f 32/32/32 31/31/31 33/33/33
f 35/35/35 34/34/34 36/36/36
f 38/38/38 37/37/37 39/39/39
f 41/41/41 40/40/40 42/42/42
f 44/44/44 43/43/43 45/45/45
f 47/47/47 46/46/46 48/48/48
f 50/50/50 49/49/49 51/51/51
f 53/53/53 52/52/52 54/54/54
f 56/56/56 55/55/55 57/57/57
f 59/59/59 58/58/58 60/60/60
f 62/62/62 61/61/61 63/63/63
f 65/65/65 64/64/64 66/66/66
f 68/68/68 67/67/67 69/69/69
f 71/71/71 70/70/70 72/72/72
f 74/74/74 73/73/73 75/75/75
f 77/77/77 76/76/76 78/78/78
f 80/80/80 79/79/79 81/81/81
f 83/83/83 82/82/82 84/84/84
f 86/86/86 85/85/85 87/87/87
f 89/89/89 88/88/88 90/90/90
f 92/92/92 91/91/91 93/93/93
f 95/95/95 94/94/94 96/96/96
f 98/98/98 97/97/97 99/99/99
f 101/101/101 100/100/100 102/102/102
f 104/104/104 103/103/103 105/105/105
f 107/107/107 106/106/106 108/108/108
f 110/110/110 109/109/109 111/111/111
f 113/113/113 112/112/112 114/114/114
f 116/116/116 115/115/115 117/117/117
f 119/119/119 118/118/118 120/120/120
f 122/122/122 121/121/121 123/123/123
f 125/125/125 124/124/124 126/126/126
f 128/128/128 127/127/127 129/129/129
f 131/131/131 130/130/130 132/132/132
f 134/134/134 133/133/133 135/135/135
f 137/137/137 136/136/136 138/138/138
f 140/140/140 139/139/139 141/141/141
f 143/143/143 142/142/142 144/144/144
f 146/146/146 145/145/145 147/147/147
f 149/149/149 148/148/148 150/150/150
f 152/152/152 151/151/151 153/153/153
f 155/155/155 154/154/154 156/156/156
f 158/158/158 157/157/157 159/159/159
f 161/161/161 160/160/160 162/162/162
f 164/164/164 163/163/163 165/165/165
f 167/167/167 166/166/166 168/168/168
f 170/170/170 169/169/169 171/171/171
f 173/173/173 172/172/172 174/174/174
f 176/176/176 175/175/175 177/177/177
f 179/179/179 178/178/178 180/180/180
f 182/182/182 181/181/181 183/183/183
f 185/185/185 184/184/184 186/186/186
f 188/188/188 187/187/187 189/189/189
f 191/191/191 190/190/190 192/192/192
f 194/194/194 193/193/193 195/195/195
f 197/197/197 196/196/196 198/198/198
f 200/200/200 199/199/199 201/201/201
f 203/203/203 202/202/202 204/204/204
f 206/206/206 205/205/205 207/207/207
f 209/209/209 208/208/208 210/210/210
f 212/212/212 211/211/211 213/213/213
f 215/215/215 214/214/214 216/216/216
f 218/218/218 217/217/217 219/219/219
f 221/221/221 220/220/220 222/222/222
f 224/224/224 223/223/223 225/225/225
f 227/227/227 226/226/226 228/228/228
f 230/230/230 229/229/229 231/231/231
f 233/233/233 232/232/232 234/234/234
f 236/236/236 235/235/235 237/237/237
f 239/239/239 238/238/238 240/240/240
