mtllib ./SmallSparkles.mtl
g Medium
v 0 0.07036591 -0.03156662
v 0.2832859 -0.4802818 0.3760183
v -0.2167141 -0.04163378 0.5
v 0.2832859 -0.4802818 0.3760183
v 0.4869909 -0.7590828 0.5257311
v 0.1363401 -0.4500659 0.809017
v 0.2832859 -0.4802818 0.3760183
v 0.1363401 -0.4500659 0.809017
v -0.2167141 -0.04163378 0.5
v -0.2167141 -0.04163378 0.5
v 0.1363401 -0.4500659 0.809017
v -0.5257311 -0.3249197 0.8506508
v 0 0.07036591 -0.03156662
v -0.2167141 -0.04163378 0.5
v -0.5257311 0.1493492 0
v -0.2167141 -0.04163378 0.5
v -0.5257311 -0.3249197 0.8506508
v -0.834748 0.1949995 0.5
v -0.2167141 -0.04163378 0.5
v -0.834748 0.1949995 0.5
v -0.5257311 0.1493492 0
v -0.5257311 0.1493492 0
v -0.834748 0.1949995 0.5
v -1.051462 0.1702881 0.006816864
v 0 0.07036591 -0.03156662
v -0.5257311 0.1493492 0
v -0.2167141 -0.04163378 -0.5
v -0.5257311 0.1493492 0
v -1.051462 0.1702881 0.006816864
v -0.834748 -0.04163378 -0.5
v -0.5257311 0.1493492 0
v -0.834748 -0.04163378 -0.5
v -0.2167141 -0.04163378 -0.5
v -0.2167141 -0.04163378 -0.5
v -0.834748 -0.04163378 -0.5
v -0.5257311 -0.3249197 -0.8506508
v 0 0.07036591 -0.03156662
v -0.2167141 -0.04163378 -0.5
v 0.2832859 -0.5506477 -0.210449
v -0.2167141 -0.04163378 -0.5
v -0.5257311 -0.3249197 -0.8506508
v -0.2009821 -0.6163943 -1.07011
v -0.2167141 -0.04163378 -0.5
v -0.2009821 -0.6163943 -1.07011
v 0.2832859 -0.5506477 -0.210449
v 0.2832859 -0.5506477 -0.210449
v -0.2009821 -0.6163943 -1.07011
v 0.3249197 -0.8506508 -0.5257311
v 0 0.07036591 -0.03156662
v 0.2832859 -0.5506477 -0.210449
v 0.2832859 -0.4802818 0.3760183
v 0.2832859 -0.5506477 -0.210449
v 0.3249197 -0.8506508 -0.5257311
v 0.4742689 -1.050648 0.09856796
v 0.2832859 -0.5506477 -0.210449
v 0.4742689 -1.050648 0.09856796
v 0.2832859 -0.4802818 0.3760183
v 0.2832859 -0.4802818 0.3760183
v 0.4742689 -1.050648 0.09856796
v 0.4869909 -0.7590828 0.5257311
v -1.051462 0.1702881 0.006816864
v -0.834748 0.1949995 0.5
v -1.586571 0.06991196 0.3158338
v -0.834748 0.1949995 0.5
v -0.5257311 -0.3249197 0.8506508
v -1.028878 -0.2724535 1.534874
v -0.834748 0.1949995 0.5
v -1.028878 -0.2724535 1.534874
v -1.586571 0.06991196 0.3158338
v -1.586571 0.06991196 0.3158338
v -1.028878 -0.2724535 1.534874
v -1.376382 -0.8506508 0.8586969
v -0.5257311 -0.3249197 0.8506508
v 0.1363401 -0.4500659 0.809017
v -0.6361704 -0.8254509 1.392891
v 0.1363401 -0.4500659 0.809017
v 0.4869909 -0.7590828 0.5257311
v -0.1073389 -1.159668 0.809017
v 0.1363401 -0.4500659 0.809017
v -0.1073389 -1.159668 0.809017
v -0.6361704 -0.8254509 1.392891
v -0.6361704 -0.8254509 1.392891
v -0.1073389 -1.159668 0.809017
v -0.5257311 -1.376382 0.8506508
v 0.4869909 -0.7590828 0.5257311
v 0.4742689 -1.050648 0.09856796
v 0.4332455 -1.485966 0.309017
v 0.4742689 -1.050648 0.09856796
v 0.3249197 -0.8506508 -0.5257311
v 0.4332455 -1.485966 -0.309017
v 0.4742689 -1.050648 0.09856796
v 0.4332455 -1.485966 -0.309017
v 0.4332455 -1.485966 0.309017
v 0.4332455 -1.485966 0.309017
v 0.4332455 -1.485966 -0.309017
v 0.1499596 -1.836617 0
v 0.3249197 -0.8506508 -0.5257311
v -0.2009821 -0.6163943 -1.07011
v -0.2009821 -1.234428 -1.07011
v -0.2009821 -0.6163943 -1.07011
v -0.5257311 -0.3249197 -0.8506508
v -0.6424189 -0.9254112 -1
v -0.2009821 -0.6163943 -1.07011
v -0.6424189 -0.9254112 -1
v -0.2009821 -1.234428 -1.07011
v -0.2009821 -1.234428 -1.07011
v -0.6424189 -0.9254112 -1
v -0.5257311 -1.376382 -0.8506508
v -0.5257311 -0.3249197 -0.8506508
v -0.834748 -0.04163378 -0.5
v -1.025731 -0.5416338 -0.809017
v -0.834748 -0.04163378 -0.5
v -1.051462 0.1702881 0.006816864
v -1.334748 -0.0203743 -0.5608327
v -0.834748 -0.04163378 -0.5
v -1.334748 -0.0203743 -0.5608327
v -1.025731 -0.5416338 -0.809017
v -1.025731 -0.5416338 -0.809017
v -1.334748 -0.0203743 -0.5608327
v -1.376382 -0.6906624 -0.7843637
v -1.059448 -1.868958 0
v -1.334748 -1.350651 0.309017
v -0.834748 -1.659668 0.5
v -1.334748 -1.350651 0.309017
v -1.376382 -0.8506508 0.8586969
v -1.028878 -1.099518 0.8761938
v -1.334748 -1.350651 0.309017
v -1.028878 -1.099518 0.8761938
v -0.834748 -1.659668 0.5
v -0.834748 -1.659668 0.5
v -1.028878 -1.099518 0.8761938
v -0.5257311 -1.376382 0.8506508
v -1.059448 -1.868958 0
v -0.834748 -1.659668 0.5
v -0.5337172 -2.018307 0
v -0.834748 -1.659668 0.5
v -0.5257311 -1.376382 0.8506508
v -0.2167141 -1.659668 0.5
v -0.834748 -1.659668 0.5
v -0.2167141 -1.659668 0.5
v -0.5337172 -2.018307 0
v -0.5337172 -2.018307 0
v -0.2167141 -1.659668 0.5
v 0.1499596 -1.836617 0
v -1.059448 -1.868958 0
v -0.5337172 -2.018307 0
v -0.8427341 -1.827324 -0.5
v -0.5337172 -2.018307 0
v 0.1499596 -1.836617 0
v -0.2167141 -1.659668 -0.5
v -0.5337172 -2.018307 0
v -0.2167141 -1.659668 -0.5
v -0.8427341 -1.827324 -0.5
v -0.8427341 -1.827324 -0.5
v -0.2167141 -1.659668 -0.5
v -0.5257311 -1.376382 -0.8506508
v -1.059448 -1.868958 0
v -0.8427341 -1.827324 -0.5
v -1.334748 -1.350651 -0.309017
v -0.8427341 -1.827324 -0.5
v -0.5257311 -1.376382 -0.8506508
v -1.025731 -1.159668 -0.809017
v -0.8427341 -1.827324 -0.5
v -1.025731 -1.159668 -0.809017
v -1.334748 -1.350651 -0.309017
v -1.334748 -1.350651 -0.309017
v -1.025731 -1.159668 -0.809017
v -1.376382 -0.6906624 -0.7843637
v -1.059448 -1.868958 0
v -1.334748 -1.350651 -0.309017
v -1.334748 -1.350651 0.309017
v -1.334748 -1.350651 -0.309017
v -1.376382 -0.6906624 -0.7843637
v -1.777555 -0.677021 -0.2586327
v -1.334748 -1.350651 -0.309017
v -1.777555 -0.677021 -0.2586327
v -1.334748 -1.350651 0.309017
v -1.334748 -1.350651 0.309017
v -1.777555 -0.677021 -0.2586327
v -1.376382 -0.8506508 0.8586969
v -0.5257311 -1.376382 0.8506508
v -1.028878 -1.099518 0.8761938
v -0.6361704 -0.8254509 1.392891
v -1.028878 -1.099518 0.8761938
v -1.376382 -0.8506508 0.8586969
v -1.028878 -0.2724535 1.534874
v -1.028878 -1.099518 0.8761938
v -1.028878 -0.2724535 1.534874
v -0.6361704 -0.8254509 1.392891
v -0.6361704 -0.8254509 1.392891
v -1.028878 -0.2724535 1.534874
v -0.5257311 -0.3249197 0.8506508
v 0.1499596 -1.836617 0
v -0.2167141 -1.659668 0.5
v 0.4332455 -1.485966 0.309017
v -0.2167141 -1.659668 0.5
v -0.5257311 -1.376382 0.8506508
v -0.1073389 -1.159668 0.809017
v -0.2167141 -1.659668 0.5
v -0.1073389 -1.159668 0.809017
v 0.4332455 -1.485966 0.309017
v 0.4332455 -1.485966 0.309017
v -0.1073389 -1.159668 0.809017
v 0.4869909 -0.7590828 0.5257311
v -0.5257311 -1.376382 -0.8506508
v -0.2167141 -1.659668 -0.5
v -0.2009821 -1.234428 -1.07011
v -0.2167141 -1.659668 -0.5
v 0.1499596 -1.836617 0
v 0.4332455 -1.485966 -0.309017
v -0.2167141 -1.659668 -0.5
v 0.4332455 -1.485966 -0.309017
v -0.2009821 -1.234428 -1.07011
v -0.2009821 -1.234428 -1.07011
v 0.4332455 -1.485966 -0.309017
v 0.3249197 -0.8506508 -0.5257311
v -1.376382 -0.6906624 -0.7843637
v -1.025731 -1.159668 -0.809017
v -1.025731 -0.5416338 -0.809017
v -1.025731 -1.159668 -0.809017
v -0.5257311 -1.376382 -0.8506508
v -0.6424189 -0.9254112 -1
v -1.025731 -1.159668 -0.809017
v -0.6424189 -0.9254112 -1
v -1.025731 -0.5416338 -0.809017
v -1.025731 -0.5416338 -0.809017
v -0.6424189 -0.9254112 -1
v -0.5257311 -0.3249197 -0.8506508
v -1.376382 -0.8506508 0.8586969
v -1.777555 -0.677021 -0.2586327
v -1.586571 0.06991196 0.3158338
v -1.777555 -0.677021 -0.2586327
v -1.376382 -0.6906624 -0.7843637
v -1.334748 -0.0203743 -0.5608327
v -1.777555 -0.677021 -0.2586327
v -1.334748 -0.0203743 -0.5608327
v -1.586571 0.06991196 0.3158338
v -1.586571 0.06991196 0.3158338
v -1.334748 -0.0203743 -0.5608327
v -1.051462 0.1702881 0.006816864

vn 0.6580887 0.6364012 0.4023839
vn 0.6580887 0.6364012 0.4023839
vn 0.6580887 0.6364012 0.4023839
vn 0.7349154 0.6466597 0.2042806
vn 0.7349154 0.6466597 0.2042806
vn 0.7349154 0.6466597 0.2042806
vn 0.673531 0.7172771 0.1785209
vn 0.673531 0.7172771 0.1785209
vn 0.673531 0.7172771 0.1785209
vn 0.1740181 0.6853921 0.7070752
vn 0.1740181 0.6853921 0.7070752
vn 0.1740181 0.6853921 0.7070752
vn 0.1587998 0.9510477 0.2651243
vn 0.1587998 0.9510477 0.2651243
vn 0.1587998 0.9510477 0.2651243
vn 0.244199 0.6377939 0.7304695
vn 0.244199 0.6377939 0.7304695
vn 0.244199 0.6377939 0.7304695
vn 0.3543189 0.9254028 0.1344912
vn 0.3543189 0.9254028 0.1344912
vn 0.3543189 0.9254028 0.1344912
vn 0.03883939 0.9969952 -0.06702221
vn 0.03883939 0.9969952 -0.06702221
vn 0.03883939 0.9969952 -0.06702221
vn 0.1256191 0.9501715 -0.2852964
vn 0.1256191 0.9501715 -0.2852964
vn 0.1256191 0.9501715 -0.2852964
vn 0.03206984 0.9269248 -0.373874
vn 0.03206984 0.9269248 -0.373874
vn 0.03206984 0.9269248 -0.373874
vn 0 0.9341724 -0.3568221
vn 0 0.9341724 -0.3568221
vn 0 0.9341724 -0.3568221
vn 0 0.7778675 -0.6284284
vn 0 0.7778675 -0.6284284
vn 0 0.7778675 -0.6284284
vn 0.7500156 0.4747793 -0.4605011
vn 0.7500156 0.4747793 -0.4605011
vn 0.7500156 0.4747793 -0.4605011
vn 0.1537998 0.6979685 -0.6994179
vn 0.1537998 0.6979685 -0.6994179
vn 0.1537998 0.6979685 -0.6994179
vn 0.7502455 0.4758453 -0.459024
vn 0.7502455 0.4758453 -0.459024
vn 0.7502455 0.4758453 -0.459024
vn 0.7034252 0.5589859 -0.4390076
vn 0.7034252 0.5589859 -0.4390076
vn 0.7034252 0.5589859 -0.4390076
vn 0.9029673 0.4266492 -0.05119051
vn 0.9029673 0.4266492 -0.05119051
vn 0.9029673 0.4266492 -0.05119051
vn 0.950682 0.2775145 -0.1385258
vn 0.950682 0.2775145 -0.1385258
vn 0.950682 0.2775145 -0.1385258
vn 0.9414418 0.3347741 -0.04016709
vn 0.9414418 0.3347741 -0.04016709
vn 0.9414418 0.3347741 -0.04016709
vn 0.8382763 0.438394 -0.3241967
vn 0.8382763 0.438394 -0.3241967
vn 0.8382763 0.438394 -0.3241967
vn -0.1701199 0.9850962 0.02539473
vn -0.1701199 0.9850962 0.02539473
vn -0.1701199 0.9850962 0.02539473
vn 0.6318387 0.6550215 0.4143991
vn 0.6318387 0.6550215 0.4143991
vn 0.6318387 0.6550215 0.4143991
vn -0.2386419 0.901023 0.3622262
vn -0.2386419 0.901023 0.3622262
vn -0.2386419 0.901023 0.3622262
vn -0.9036099 0.04489518 0.4259973
vn -0.9036099 0.04489518 0.4259973
vn -0.9036099 0.04489518 0.4259973
vn 0.1764679 0.7050967 0.6868025
vn 0.1764679 0.7050967 0.6868025
vn 0.1764679 0.7050967 0.6868025
vn 0.5186338 -0.1781002 0.8362412
vn 0.5186338 -0.1781002 0.8362412
vn 0.5186338 -0.1781002 0.8362412
vn 0.6547027 -0.2248265 0.7216768
vn 0.6547027 -0.2248265 0.7216768
vn 0.6547027 -0.2248265 0.7216768
vn 0.3838631 -0.6074944 0.6954134
vn 0.3838631 -0.6074944 0.6954134
vn 0.3838631 -0.6074944 0.6954134
vn 0.9963469 -0.0813842 0.02587592
vn 0.9963469 -0.0813842 0.02587592
vn 0.9963469 -0.0813842 0.02587592
vn 0.9745479 0.09727041 -0.2019772
vn 0.9745479 0.09727041 -0.2019772
vn 0.9745479 0.09727041 -0.2019772
vn 0.995589 -0.09382217 0
vn 0.995589 -0.09382217 0
vn 0.995589 -0.09382217 0
vn 0.7778674 -0.6284283 0
vn 0.7778674 -0.6284283 0
vn 0.7778674 -0.6284283 0
vn 0.719207 0 -0.6947959
vn 0.719207 0 -0.6947959
vn 0.719207 0 -0.6947959
vn -0.3442225 0.2890595 -0.8932835
vn -0.3442225 0.2890595 -0.8932835
vn -0.3442225 0.2890595 -0.8932835
vn -0.1568565 0 -0.9876214
vn -0.1568565 0 -0.9876214
vn -0.1568565 0 -0.9876214
vn -0.3983465 -0.3796004 -0.8349991
vn -0.3983465 -0.3796004 -0.8349991
vn -0.3983465 -0.3796004 -0.8349991
vn -0.3150938 0.5831288 -0.7487835
vn -0.3150938 0.5831288 -0.7487835
vn -0.3150938 0.5831288 -0.7487835
vn 0.08269535 0.9315252 -0.3541502
vn 0.08269535 0.9315252 -0.3541502
vn 0.08269535 0.9315252 -0.3541502
vn 0.125878 0.486314 -0.8646695
vn 0.125878 0.486314 -0.8646695
vn 0.125878 0.486314 -0.8646695
vn -0.2015317 0.3211085 -0.925351
vn -0.2015317 0.3211085 -0.925351
vn -0.2015317 0.3211085 -0.925351
vn -0.5837007 -0.6215382 0.5224785
vn -0.5837007 -0.6215382 0.5224785
vn -0.5837007 -0.6215382 0.5224785
vn -0.5002603 -0.6590519 0.5615962
vn -0.5002603 -0.6590519 0.5615962
vn -0.5002603 -0.6590519 0.5615962
vn -0.5783618 -0.583396 0.5702164
vn -0.5783618 -0.583396 0.5702164
vn -0.5783618 -0.583396 0.5702164
vn -0.2929351 -0.6009617 0.7436625
vn -0.2929351 -0.6009617 0.7436625
vn -0.2929351 -0.6009617 0.7436625
vn -0.2419045 -0.8515391 0.4651489
vn -0.2419045 -0.8515391 0.4651489
vn -0.2419045 -0.8515391 0.4651489
vn 0 -0.7778676 0.6284283
vn 0 -0.7778676 0.6284283
vn 0 -0.7778676 0.6284283
vn 0 -0.8125818 0.5828471
vn 0 -0.8125818 0.5828471
vn 0 -0.8125818 0.5828471
vn 0.226901 -0.8537989 0.4685546
vn 0.226901 -0.8537989 0.4685546
vn 0.226901 -0.8537989 0.4685546
vn -0.2680349 -0.9435221 -0.1947388
vn -0.2680349 -0.9435221 -0.1947388
vn -0.2680349 -0.9435221 -0.1947388
vn 0.226901 -0.8537989 -0.4685546
vn 0.226901 -0.8537989 -0.4685546
vn 0.226901 -0.8537989 -0.4685546
vn 0.2286857 -0.8539023 -0.4674973
vn 0.2286857 -0.8539023 -0.4674973
vn 0.2286857 -0.8539023 -0.4674973
vn 0.1821621 -0.6801853 -0.7100456
vn 0.1821621 -0.6801853 -0.7100456
vn 0.1821621 -0.6801853 -0.7100456
vn -0.7174297 -0.5960474 -0.3605858
vn -0.7174297 -0.5960474 -0.3605858
vn -0.7174297 -0.5960474 -0.3605858
vn -0.2715333 -0.4645469 -0.8428913
vn -0.2715333 -0.4645469 -0.8428913
vn -0.2715333 -0.4645469 -0.8428913
vn -0.669086 -0.4552671 -0.5874144
vn -0.669086 -0.4552671 -0.5874144
vn -0.669086 -0.4552671 -0.5874144
vn -0.6628181 -0.4646915 -0.5871404
vn -0.6628181 -0.4646915 -0.5871404
vn -0.6628181 -0.4646915 -0.5871404
vn -0.8831515 -0.4690879 0
vn -0.8831515 -0.4690879 0
vn -0.8831515 -0.4690879 0
vn -0.7216057 -0.4340002 -0.5393785
vn -0.7216057 -0.4340002 -0.5393785
vn -0.7216057 -0.4340002 -0.5393785
vn -0.8356283 -0.5492953 0
vn -0.8356283 -0.5492953 0
vn -0.8356283 -0.5492953 0
vn -0.8929829 -0.3645557 0.263971
vn -0.8929829 -0.3645557 0.263971
vn -0.8929829 -0.3645557 0.263971
vn -0.3487011 -0.6920114 0.6320819
vn -0.3487011 -0.6920114 0.6320819
vn -0.3487011 -0.6920114 0.6320819
vn -0.4367746 -0.5604146 0.7036783
vn -0.4367746 -0.5604146 0.7036783
vn -0.4367746 -0.5604146 0.7036783
vn -0.5109784 -0.5355095 0.6724066
vn -0.5109784 -0.5355095 0.6724066
vn -0.5109784 -0.5355095 0.6724066
vn 0.7526547 0.4002699 0.5227761
vn 0.7526547 0.4002699 0.5227761
vn 0.7526547 0.4002699 0.5227761
vn 0.3613206 -0.7635544 0.5351936
vn 0.3613206 -0.7635544 0.5351936
vn 0.3613206 -0.7635544 0.5351936
vn 0.3582979 -0.546288 0.7570946
vn 0.3582979 -0.546288 0.7570946
vn 0.3582979 -0.546288 0.7570946
vn 0.3671792 -0.5458084 0.7531751
vn 0.3671792 -0.5458084 0.7531751
vn 0.3671792 -0.5458084 0.7531751
vn 0.5582861 -0.274682 0.7828578
vn 0.5582861 -0.274682 0.7828578
vn 0.5582861 -0.274682 0.7828578
vn -0.05454702 -0.7996631 -0.5979661
vn -0.05454702 -0.7996631 -0.5979661
vn -0.05454702 -0.7996631 -0.5979661
vn 0.3613206 -0.7635543 -0.5351936
vn 0.3613206 -0.7635543 -0.5351936
vn 0.3613206 -0.7635543 -0.5351936
vn 0.3627293 -0.751756 -0.5507181
vn 0.3627293 -0.751756 -0.5507181
vn 0.3627293 -0.751756 -0.5507181
vn 0.7488481 -0.09600134 -0.6557516
vn 0.7488481 -0.09600134 -0.6557516
vn 0.7488481 -0.09600134 -0.6557516
vn -0.07013402 0 -0.9975376
vn -0.07013402 0 -0.9975376
vn -0.07013402 0 -0.9975376
vn -0.2309877 -0.3592193 -0.9042158
vn -0.2309877 -0.3592193 -0.9042158
vn -0.2309877 -0.3592193 -0.9042158
vn -0.4459558 0 -0.8950551
vn -0.4459558 0 -0.8950551
vn -0.4459558 0 -0.8950551
vn -0.1965144 0.2724456 -0.9418892
vn -0.1965144 0.2724456 -0.9418892
vn -0.1965144 0.2724456 -0.9418892
vn -0.9418813 -0.01720744 0.3355047
vn -0.9418813 -0.01720744 0.3355047
vn -0.9418813 -0.01720744 0.3355047
vn -0.7676461 0.2451486 -0.592133
vn -0.7676461 0.2451486 -0.592133
vn -0.7676461 0.2451486 -0.592133
vn -0.8500547 0.4400001 -0.2894939
vn -0.8500547 0.4400001 -0.2894939
vn -0.8500547 0.4400001 -0.2894939
vn -0.2794843 0.9436078 -0.1774626
vn -0.2794843 0.9436078 -0.1774626
vn -0.2794843 0.9436078 -0.1774626

vt -0.5257311 0
vt -0.809017 0.309017
vt -0.309017 0.5
vt -0.309017 0.5
vt -0.5257311 0
vt -0.809017 0.309017
vt 0.809017 0.5
vt 0.5 0.309017
vt 0.309017 0.809017
vt 0.309017 0.809017
vt 0.5 0.309017
vt 0 0.5257311
vt -0.5257311 0
vt -0.309017 0.5
vt 0 0
vt -0.309017 0.5
vt 0 0.8506508
vt 0.309017 0.5
vt -0.309017 0.5
vt 0.309017 0.5
vt 0 0
vt 0 0
vt 0.309017 0.5
vt 0.5257311 0
vt -0.5257311 0
vt 0 0
vt -0.309017 -0.5
vt 0 0
vt 0.5257311 0
vt 0.309017 -0.5
vt 0 0
vt 0.309017 -0.5
vt -0.309017 -0.5
vt -0.309017 -0.5
vt 0.309017 -0.5
vt 0 -0.8506508
vt -0.5257311 0
vt -0.309017 -0.5
vt -0.809017 -0.309017
vt -0.309017 0.809017
vt 0 0.5257311
vt -0.5 0.309017
vt 0.5 0.809017
vt 0.809017 0.309017
vt 0.309017 0.5
vt 0.309017 0.5
vt 0.809017 0.309017
vt 0.5257311 0
vt 0 0.8506508
vt 0.309017 0.5
vt -0.309017 0.5
vt 0.309017 0.5
vt 0.5257311 0
vt 0 0
vt 0.309017 0.5
vt 0 0
vt -0.309017 0.5
vt -0.309017 0.5
vt 0 0
vt -0.5257311 0
vt 0.5257311 0
vt 0.309017 0.5
vt 0.809017 0.309017
vt -0.309017 0.809017
vt 0 0.5257311
vt -0.5 0.309017
vt 0.5 0.809017
vt 0.809017 0.309017
vt 0.309017 0.5
vt 0.309017 0.5
vt 0.809017 0.309017
vt 0.5257311 0
vt 0 0.5257311
vt 0.5 0.309017
vt 0 0
vt 0.5 0.309017
vt 0.8506508 0.15625
vt 0.5 -0.152767
vt 0.5 0.309017
vt 0.5 -0.309017
vt 0 0
vt 0 0.2304688
vt 0.5 -0.07854821
vt 0 -0.5257311
vt -0.5257311 0
vt 0 0
vt -0.309017 -0.5
vt 0 0
vt 0.5257311 0
vt 0.309017 -0.5
vt 0 0
vt 0.309017 -0.5
vt -0.309017 -0.5
vt -0.309017 -0.5
vt 0.309017 -0.5
vt 0 -0.8506508
vt -0.8506508 0
vt -0.5 0.309017
vt -0.5 -0.309017
vt -0.5 0.309017
vt 0 0.5257311
vt 0 0
vt -0.5 0.309017
vt 0 0
vt -0.5 -0.309017
vt -0.5 -0.309017
vt 0 0
vt 0 -0.5257311
vt 0 0.5257311
vt 0.309017 0.809017
vt 0.5 0.309017
vt 0.309017 -0.5
vt 0.5257311 0
vt 0.809017 -0.309017
vt -0.5 0.809017
vt -0.309017 0.5
vt -0.809017 0.309017
vt -0.809017 0.309017
vt -0.309017 0.5
vt -0.5257311 0
vt -0.5257311 0
vt -0.809017 0.309017
vt -0.309017 0.5
vt 0.309017 -0.5
vt 0.5257311 0
vt 0.809017 -0.309017
vt -0.809017 -0.5
vt -0.5 -0.309017
vt -0.309017 -0.809017
vt -0.309017 -0.809017
vt -0.5 -0.309017
vt 0 -0.5257311
vt -0.5257311 0
vt -0.309017 0.5
vt 0 0
vt -0.309017 0.5
vt 0 0.8506508
vt 0.309017 0.5
vt -0.309017 0.5
vt 0.309017 0.5
vt 0 0
vt 0 0
vt 0.309017 0.5
vt 0.5257311 0
vt -0.5257311 0
vt 0 0
vt -0.309017 -0.5
vt 0 0
vt 0.5257311 0
vt 0.309017 -0.5
vt 0 0
vt 0.309017 -0.5
vt -0.309017 -0.5
vt -0.309017 -0.5
vt 0.309017 -0.5
vt 0 -0.8506508
vt -0.5257311 0
vt -0.309017 -0.5
vt -0.809017 -0.309017
vt 0.309017 -0.809017
vt 0 -0.5257311
vt 0.5 -0.309017
vt -0.5 -0.809017
vt -0.809017 -0.309017
vt -0.309017 -0.5
vt -0.309017 -0.5
vt -0.809017 -0.309017
vt -0.5257311 0
vt 0 -0.8506508
vt -0.309017 -0.5
vt 0.309017 -0.5
vt -0.309017 -0.5
vt -0.5257311 0
vt 0 0
vt -0.309017 -0.5
vt 0 0
vt 0.309017 -0.5
vt 0.309017 -0.5
vt 0 0
vt 0.5257311 0
vt 0 -0.5257311
vt -0.5 -0.309017
vt 0 0
vt -0.5 -0.309017
vt -0.8506508 0
vt -0.5 0.309017
vt -0.5 -0.309017
vt -0.5 0.309017
vt 0 0
vt 0 0
vt -0.5 0.309017
vt 0 0.5257311
vt 0.5257311 0
vt 0.309017 0.5
vt 0.809017 0.309017
vt 0.309017 -0.809017
vt 0 -0.5257311
vt 0.5 -0.309017
vt -0.5 -0.809017
vt -0.809017 -0.309017
vt -0.309017 -0.5
vt -0.309017 -0.5
vt -0.809017 -0.309017
vt -0.5257311 0
vt 0 -0.5257311
vt -0.309017 -0.809017
vt -0.5 -0.309017
vt 0.309017 -0.5
vt 0.5257311 0
vt 0.809017 -0.309017
vt 0.5 -0.809017
vt 0.309017 -0.5
vt 0.809017 -0.309017
vt 0.809017 -0.309017
vt 0.309017 -0.5
vt 0.5257311 0
vt 0.8506508 0
vt 0.5 -0.309017
vt 0.5 0.309017
vt 0.5 -0.309017
vt 0 -0.5257311
vt 0 0
vt 0.5 -0.309017
vt 0 0
vt 0.5 0.309017
vt 0.5 0.309017
vt 0 0
vt 0 0.5257311
vt 0.5257311 0
vt 0 0
vt 0.309017 0.5
vt 0 0
vt -0.5257311 0
vt -0.309017 0.5
vt 0 0
vt -0.309017 0.5
vt 0.309017 0.5
vt 0.309017 0.5
vt -0.309017 0.5
vt 0 0.8506508

g asteroid 2
usemtl asteroid 2
usemap asteroid 2
f 2/2/2 1/1/1 3/3/3
f 5/5/5 4/4/4 6/6/6
f 8/8/8 7/7/7 9/9/9
f 11/11/11 10/10/10 12/12/12
f 14/14/14 13/13/13 15/15/15
f 17/17/17 16/16/16 18/18/18
f 20/20/20 19/19/19 21/21/21
f 23/23/23 22/22/22 24/24/24
f 26/26/26 25/25/25 27/27/27
f 29/29/29 28/28/28 30/30/30
f 32/32/32 31/31/31 33/33/33
f 35/35/35 34/34/34 36/36/36
f 38/38/38 37/37/37 39/39/39
f 41/41/41 40/40/40 42/42/42
f 44/44/44 43/43/43 45/45/45
f 47/47/47 46/46/46 48/48/48
f 50/50/50 49/49/49 51/51/51
f 53/53/53 52/52/52 54/54/54
f 56/56/56 55/55/55 57/57/57
f 59/59/59 58/58/58 60/60/60
f 62/62/62 61/61/61 63/63/63
f 65/65/65 64/64/64 66/66/66
f 68/68/68 67/67/67 69/69/69
f 71/71/71 70/70/70 72/72/72
f 74/74/74 73/73/73 75/75/75
f 77/77/77 76/76/76 78/78/78
f 80/80/80 79/79/79 81/81/81
f 83/83/83 82/82/82 84/84/84
f 86/86/86 85/85/85 87/87/87
f 89/89/89 88/88/88 90/90/90
f 92/92/92 91/91/91 93/93/93
f 95/95/95 94/94/94 96/96/96
f 98/98/98 97/97/97 99/99/99
f 101/101/101 100/100/100 102/102/102
f 104/104/104 103/103/103 105/105/105
f 107/107/107 106/106/106 108/108/108
f 110/110/110 109/109/109 111/111/111
f 113/113/113 112/112/112 114/114/114
f 116/116/116 115/115/115 117/117/117
f 119/119/119 118/118/118 120/120/120
f 122/122/122 121/121/121 123/123/123
f 125/125/125 124/124/124 126/126/126
f 128/128/128 127/127/127 129/129/129
f 131/131/131 130/130/130 132/132/132
f 134/134/134 133/133/133 135/135/135
f 137/137/137 136/136/136 138/138/138
f 140/140/140 139/139/139 141/141/141
f 143/143/143 142/142/142 144/144/144
f 146/146/146 145/145/145 147/147/147
f 149/149/149 148/148/148 150/150/150
f 152/152/152 151/151/151 153/153/153
f 155/155/155 154/154/154 156/156/156
f 158/158/158 157/157/157 159/159/159
f 161/161/161 160/160/160 162/162/162
f 164/164/164 163/163/163 165/165/165
f 167/167/167 166/166/166 168/168/168
f 170/170/170 169/169/169 171/171/171
f 173/173/173 172/172/172 174/174/174
f 176/176/176 175/175/175 177/177/177
f 179/179/179 178/178/178 180/180/180
f 182/182/182 181/181/181 183/183/183
f 185/185/185 184/184/184 186/186/186
f 188/188/188 187/187/187 189/189/189
f 191/191/191 190/190/190 192/192/192
f 194/194/194 193/193/193 195/195/195
f 197/197/197 196/196/196 198/198/198
f 200/200/200 199/199/199 201/201/201
f 203/203/203 202/202/202 204/204/204
f 206/206/206 205/205/205 207/207/207
f 209/209/209 208/208/208 210/210/210
f 212/212/212 211/211/211 213/213/213
f 215/215/215 214/214/214 216/216/216
f 218/218/218 217/217/217 219/219/219
f 221/221/221 220/220/220 222/222/222
f 224/224/224 223/223/223 225/225/225
f 227/227/227 226/226/226 228/228/228
f 230/230/230 229/229/229 231/231/231
f 233/233/233 232/232/232 234/234/234
f 236/236/236 235/235/235 237/237/237
f 239/239/239 238/238/238 240/240/240
