mtllib ./Blueglow.mtl
g Icosphere (1)
v 0 0 0
v 0.6842411 -0.435154 0.02101493
v -0.2167141 0.2010573 0.5
v 0.6842411 -0.435154 0.02101493
v 0.8483419 -1.009693 0.3378649
v 0.3752241 -0.626137 0.7839086
v 0.6842411 -0.435154 0.02101493
v 0.3752241 -0.626137 0.7839086
v -0.2167141 0.2010573 0.5
v -0.2167141 0.2010573 0.5
v 0.3752241 -0.626137 0.7839086
v -0.5905123 -0.1169424 1.240536
v 0 0 0
v -0.2167141 0.2010573 0.5
v -0.5257311 0.3920403 0
v -0.2167141 0.2010573 0.5
v -0.5905123 -0.1169424 1.240536
v -0.834748 0.2010573 0.5
v -0.2167141 0.2010573 0.5
v -0.834748 0.2010573 0.5
v -0.5257311 0.3920403 0
v -0.5257311 0.3920403 0
v -0.834748 0.2010573 0.5
v -1.051462 0 0
v 0 0 0
v -0.5257311 0.3920403 0
v -0.234071 -0.04163378 -0.5
v -0.5257311 0.3920403 0
v -1.051462 0 0
v -0.8521049 0.07128125 0.008132935
v -0.5257311 0.3920403 0
v -0.8521049 0.07128125 0.008132935
v -0.234071 -0.04163378 -0.5
v -0.234071 -0.04163378 -0.5
v -0.8521049 0.07128125 0.008132935
v -0.543088 -0.1024771 -0.3425179
v 0 0 0
v -0.234071 -0.04163378 -0.5
v 0.5378407 -0.3506508 -0.2879141
v -0.234071 -0.04163378 -0.5
v -0.543088 -0.1024771 -0.3425179
v -0.02573109 -0.2769244 -1.169941
v -0.234071 -0.04163378 -0.5
v -0.02573109 -0.2769244 -1.169941
v 0.5378407 -0.3506508 -0.2879141
v 0.5378407 -0.3506508 -0.2879141
v -0.02573109 -0.2769244 -1.169941
v 0.5794744 -0.8506508 -0.5046282
v 0 0 0
v 0.5378407 -0.3506508 -0.2879141
v 0.6842411 -0.435154 0.02101493
v 0.5378407 -0.3506508 -0.2879141
v 0.5794744 -0.8506508 -0.5046282
v 0.7288237 -0.8506508 0.02110291
v 0.5378407 -0.3506508 -0.2879141
v 0.7288237 -0.8506508 0.02110291
v 0.6842411 -0.435154 0.02101493
v 0.6842411 -0.435154 0.02101493
v 0.7288237 -0.8506508 0.02110291
v 0.8483419 -1.009693 0.3378649
v -1.051462 0 0
v -0.834748 0.2010573 0.5
v -1.595139 -0.1024208 0.3177755
v -0.834748 0.2010573 0.5
v -0.5905123 -0.1169424 1.240536
v -1.090512 -0.3151934 1.736698
v -0.834748 0.2010573 0.5
v -1.090512 -0.3151934 1.736698
v -1.595139 -0.1024208 0.3177755
v -1.595139 -0.1024208 0.3177755
v -1.090512 -0.3151934 1.736698
v -1.376382 -0.981617 0.6860323
v -0.5905123 -0.1169424 1.240536
v 0.3752241 -0.626137 0.7839086
v -0.5905123 -0.6242104 1.691193
v 0.3752241 -0.626137 0.7839086
v 0.8483419 -1.009693 0.3378649
v 0.09673595 -1.234207 0.9091527
v 0.3752241 -0.626137 0.7839086
v 0.09673595 -1.234207 0.9091527
v -0.5905123 -0.6242104 1.691193
v -0.5905123 -0.6242104 1.691193
v 0.09673595 -1.234207 0.9091527
v -0.5257311 -1.376382 0.8506508
v 0.8483419 -1.009693 0.3378649
v 0.7288237 -0.8506508 0.02110291
v 0.405753 -1.42519 0.1462591
v 0.7288237 -0.8506508 0.02110291
v 0.5794744 -0.8506508 -0.5046282
v 0.2832859 -1.350651 -0.309017
v 0.7288237 -0.8506508 0.02110291
v 0.2832859 -1.350651 -0.309017
v 0.405753 -1.42519 0.1462591
v 0.405753 -1.42519 0.1462591
v 0.2832859 -1.350651 -0.309017
v 0.1944809 -1.765205 -0.9052353
v 0.5794744 -0.8506508 -0.5046282
v -0.02573109 -0.2769244 -1.169941
v -0.02573109 -1.004486 -1.169941
v -0.02573109 -0.2769244 -1.169941
v -0.543088 -0.1024771 -0.3425179
v -0.5257311 -0.5859413 -1.360924
v -0.02573109 -0.2769244 -1.169941
v -0.5257311 -0.5859413 -1.360924
v -0.02573109 -1.004486 -1.169941
v -0.02573109 -1.004486 -1.169941
v -0.5257311 -0.5859413 -1.360924
v -0.5257311 -1.376382 -0.8506508
v -0.543088 -0.1024771 -0.3425179
v -0.8521049 0.07128125 0.008132935
v -1.025731 -0.4287188 -0.300884
v -0.8521049 0.07128125 0.008132935
v -1.051462 0 0
v -1.595139 -0.1024208 -0.3002584
v -0.8521049 0.07128125 0.008132935
v -1.595139 -0.1024208 -0.3002584
v -1.025731 -0.4287188 -0.300884
v -1.025731 -0.4287188 -0.300884
v -1.595139 -0.1024208 -0.3002584
v -1.376382 -0.8506508 -0.5257311
v -1.595598 -1.701302 0
v -1.334748 -1.481617 0.2328298
v -1.378884 -1.659668 0.5
v -1.334748 -1.481617 0.2328298
v -1.376382 -0.981617 0.6860323
v -1.025731 -1.141205 1.346813
v -1.334748 -1.481617 0.2328298
v -1.025731 -1.141205 1.346813
v -1.378884 -1.659668 0.5
v -1.378884 -1.659668 0.5
v -1.025731 -1.141205 1.346813
v -0.5257311 -1.376382 0.8506508
v -1.595598 -1.701302 0
v -1.378884 -1.659668 0.5
v -0.8753862 -1.914555 -0.9052353
v -1.378884 -1.659668 0.5
v -0.5257311 -1.376382 0.8506508
v -0.2167141 -2.359482 0.300766
v -1.378884 -1.659668 0.5
v -0.2167141 -2.359482 0.300766
v -0.8753862 -1.914555 -0.9052353
v -0.8753862 -1.914555 -0.9052353
v -0.2167141 -2.359482 0.300766
v 0.1944809 -1.765205 -0.9052353
v -1.595598 -1.701302 0
v -0.8753862 -1.914555 -0.9052353
v -0.834748 -1.659668 -0.5
v -0.8753862 -1.914555 -0.9052353
v 0.1944809 -1.765205 -0.9052353
v -0.02223322 -1.023758 -1.206001
v -0.8753862 -1.914555 -0.9052353
v -0.02223322 -1.023758 -1.206001
v -0.834748 -1.659668 -0.5
v -0.834748 -1.659668 -0.5
v -0.02223322 -1.023758 -1.206001
v -0.5257311 -1.376382 -0.8506508
v -1.595598 -1.701302 0
v -0.834748 -1.659668 -0.5
v -1.334748 -1.350651 -0.309017
v -0.834748 -1.659668 -0.5
v -0.5257311 -1.376382 -0.8506508
v -1.025731 -1.159668 -0.809017
v -0.834748 -1.659668 -0.5
v -1.025731 -1.159668 -0.809017
v -1.334748 -1.350651 -0.309017
v -1.334748 -1.350651 -0.309017
v -1.025731 -1.159668 -0.809017
v -1.376382 -0.8506508 -0.5257311
v -1.595598 -1.701302 0
v -1.334748 -1.350651 -0.309017
v -1.334748 -1.481617 0.2328298
v -1.334748 -1.350651 -0.309017
v -1.376382 -0.8506508 -0.5257311
v -1.786122 -0.733387 -0.06742859
v -1.334748 -1.350651 -0.309017
v -1.786122 -0.733387 -0.06742859
v -1.334748 -1.481617 0.2328298
v -1.334748 -1.481617 0.2328298
v -1.786122 -0.733387 -0.06742859
v -1.376382 -0.981617 0.6860323
v -0.5257311 -1.376382 0.8506508
v -1.025731 -1.141205 1.346813
v -0.5905123 -0.6242104 1.691193
v -1.025731 -1.141205 1.346813
v -1.376382 -0.981617 0.6860323
v -1.090512 -0.3151934 1.736698
v -1.025731 -1.141205 1.346813
v -1.090512 -0.3151934 1.736698
v -0.5905123 -0.6242104 1.691193
v -0.5905123 -0.6242104 1.691193
v -1.090512 -0.3151934 1.736698
v -0.5905123 -0.1169424 1.240536
v 0.1944809 -1.765205 -0.9052353
v -0.2167141 -2.359482 0.300766
v 0.405753 -1.42519 0.1462591
v -0.2167141 -2.359482 0.300766
v -0.5257311 -1.376382 0.8506508
v 0.09673595 -1.234207 0.9091527
v -0.2167141 -2.359482 0.300766
v 0.09673595 -1.234207 0.9091527
v 0.405753 -1.42519 0.1462591
v 0.405753 -1.42519 0.1462591
v 0.09673595 -1.234207 0.9091527
v 0.8483419 -1.009693 0.3378649
v -0.5257311 -1.376382 -0.8506508
v -0.02223322 -1.023758 -1.206001
v -0.02573109 -1.004486 -1.169941
v -0.02223322 -1.023758 -1.206001
v 0.1944809 -1.765205 -0.9052353
v 0.2832859 -1.350651 -0.309017
v -0.02223322 -1.023758 -1.206001
v 0.2832859 -1.350651 -0.309017
v -0.02573109 -1.004486 -1.169941
v -0.02573109 -1.004486 -1.169941
v 0.2832859 -1.350651 -0.309017
v 0.5794744 -0.8506508 -0.5046282
v -1.376382 -0.8506508 -0.5257311
v -1.025731 -1.159668 -0.809017
v -1.025731 -0.4287188 -0.300884
v -1.025731 -1.159668 -0.809017
v -0.5257311 -1.376382 -0.8506508
v -0.5257311 -0.5859413 -1.360924
v -1.025731 -1.159668 -0.809017
v -0.5257311 -0.5859413 -1.360924
v -1.025731 -0.4287188 -0.300884
v -1.025731 -0.4287188 -0.300884
v -0.5257311 -0.5859413 -1.360924
v -0.543088 -0.1024771 -0.3425179
v -1.376382 -0.981617 0.6860323
v -1.786122 -0.733387 -0.06742859
v -1.595139 -0.1024208 0.3177755
v -1.786122 -0.733387 -0.06742859
v -1.376382 -0.8506508 -0.5257311
v -1.595139 -0.1024208 -0.3002584
v -1.786122 -0.733387 -0.06742859
v -1.595139 -0.1024208 -0.3002584
v -1.595139 -0.1024208 0.3177755
v -1.595139 -0.1024208 0.3177755
v -1.595139 -0.1024208 -0.3002584
v -1.051462 0 0

vn 0.5359797 0.8377314 -0.1045552
vn 0.5359797 0.8377314 -0.1045552
vn 0.5359797 0.8377314 -0.1045552
vn 0.7774578 0.4591155 0.4298514
vn 0.7774578 0.4591155 0.4298514
vn 0.7774578 0.4591155 0.4298514
vn 0.6618878 0.6188346 0.4230229
vn 0.6618878 0.6188346 0.4230229
vn 0.6618878 0.6188346 0.4230229
vn 0.5779371 0.6024936 0.5504455
vn 0.5779371 0.6024936 0.5504455
vn 0.5779371 0.6024936 0.5504455
vn 0.5966017 0.8000507 -0.06312797
vn 0.5966017 0.8000507 -0.06312797
vn 0.5966017 0.8000507 -0.06312797
vn 0 0.918863 0.3945767
vn 0 0.918863 0.3945767
vn 0 0.918863 0.3945767
vn 0 0.9341724 0.3568221
vn 0 0.9341724 0.3568221
vn 0 0.9341724 0.3568221
vn -0.5966017 0.8000507 -0.06312793
vn -0.5966017 0.8000507 -0.06312793
vn -0.5966017 0.8000507 -0.06312793
vn 0.5648285 0.7574424 -0.3274903
vn 0.5648285 0.7574424 -0.3274903
vn 0.5648285 0.7574424 -0.3274903
vn 0.07771092 -0.1042113 -0.9915146
vn 0.07771092 -0.1042113 -0.9915146
vn 0.07771092 -0.1042113 -0.9915146
vn -0.4987627 0.4893548 -0.7153793
vn -0.4987627 0.4893548 -0.7153793
vn -0.4987627 0.4893548 -0.7153793
vn -0.460356 0.5642824 -0.6853158
vn -0.460356 0.5642824 -0.6853158
vn -0.460356 0.5642824 -0.6853158
vn 0.4207581 0.8663378 -0.2691123
vn 0.4207581 0.8663378 -0.2691123
vn 0.4207581 0.8663378 -0.2691123
vn -0.3722586 0.8334124 -0.4084696
vn -0.3722586 0.8334124 -0.4084696
vn -0.3722586 0.8334124 -0.4084696
vn 0.408881 0.8933097 -0.1865854
vn 0.408881 0.8933097 -0.1865854
vn 0.408881 0.8933097 -0.1865854
vn 0.8184614 0.284508 -0.4991753
vn 0.8184614 0.284508 -0.4991753
vn 0.8184614 0.284508 -0.4991753
vn 0.5370051 0.8432423 -0.02382796
vn 0.5370051 0.8432423 -0.02382796
vn 0.5370051 0.8432423 -0.02382796
vn 0.9435222 0.1947387 -0.2680349
vn 0.9435222 0.1947387 -0.2680349
vn 0.9435222 0.1947387 -0.2680349
vn 0.9094151 0.09749407 -0.4043007
vn 0.9094151 0.09749407 -0.4043007
vn 0.9094151 0.09749407 -0.4043007
vn 0.9465465 0.101499 -0.3061825
vn 0.9465465 0.101499 -0.3061825
vn 0.9465465 0.101499 -0.3061825
vn -0.3110656 0.9207667 -0.235429
vn -0.3110656 0.9207667 -0.235429
vn -0.3110656 0.9207667 -0.235429
vn 0.02055598 0.921109 0.3887616
vn 0.02055598 0.921109 0.3887616
vn 0.02055598 0.921109 0.3887616
vn -0.4126886 0.8677661 0.2768937
vn -0.4126886 0.8677661 0.2768937
vn -0.4126886 0.8677661 0.2768937
vn -0.9420876 -0.1003745 0.3199935
vn -0.9420876 -0.1003745 0.3199935
vn -0.9420876 -0.1003745 0.3199935
vn 0.5754732 0.5431635 0.6113951
vn 0.5754732 0.5431635 0.6113951
vn 0.5754732 0.5431635 0.6113951
vn 0.6239916 -0.1269675 0.7710471
vn 0.6239916 -0.1269675 0.7710471
vn 0.6239916 -0.1269675 0.7710471
vn 0.6755783 -0.161222 0.7194452
vn 0.6755783 -0.161222 0.7194452
vn 0.6755783 -0.161222 0.7194452
vn 0.1055821 -0.7369713 0.667627
vn 0.1055821 -0.7369713 0.667627
vn 0.1055821 -0.7369713 0.667627
vn 0.6946725 -0.5027027 -0.5145096
vn 0.6946725 -0.5027027 -0.5145096
vn 0.6946725 -0.5027027 -0.5145096
vn 0.7966586 -0.5604614 -0.2263141
vn 0.7966586 -0.5604614 -0.2263141
vn 0.7966586 -0.5604614 -0.2263141
vn 0.8019894 -0.51638 -0.3002745
vn 0.8019894 -0.51638 -0.3002745
vn 0.8019894 -0.51638 -0.3002745
vn 0.9622048 0.1344665 -0.2368131
vn 0.9622048 0.1344665 -0.2368131
vn 0.9622048 0.1344665 -0.2368131
vn 0.739732 0 -0.6729016
vn 0.739732 0 -0.6729016
vn 0.739732 0 -0.6729016
vn -0.3640152 0.8389767 -0.4044884
vn -0.3640152 0.8389767 -0.4044884
vn -0.3640152 0.8389767 -0.4044884
vn 0.3568222 0 -0.9341723
vn 0.3568222 0 -0.9341723
vn 0.3568222 0 -0.9341723
vn -0.1319333 -0.5376195 -0.8328018
vn -0.1319333 -0.5376195 -0.8328018
vn -0.1319333 -0.5376195 -0.8328018
vn -0.4490938 0.577372 -0.6818771
vn -0.4490938 0.577372 -0.6818771
vn -0.4490938 0.577372 -0.6818771
vn -0.3322653 0.895477 0.2961768
vn -0.3322653 0.895477 0.2961768
vn -0.3322653 0.895477 0.2961768
vn 0.2531805 0.4434625 -0.8597911
vn 0.2531805 0.4434625 -0.8597911
vn 0.2531805 0.4434625 -0.8597911
vn 0.190292 0.3338401 -0.9232224
vn 0.190292 0.3338401 -0.9232224
vn 0.190292 0.3338401 -0.9232224
vn -0.7511733 0.5998031 0.2756355
vn -0.7511733 0.5998031 0.2756355
vn -0.7511733 0.5998031 0.2756355
vn -0.8482679 -0.3926832 0.3553046
vn -0.8482679 -0.3926832 0.3553046
vn -0.8482679 -0.3926832 0.3553046
vn -0.9029741 0.4111601 0.1248406
vn -0.9029741 0.4111601 0.1248406
vn -0.9029741 0.4111601 0.1248406
vn 0.08394384 -0.8650466 0.494619
vn 0.08394384 -0.8650466 0.494619
vn 0.08394384 -0.8650466 0.494619
vn -0.1218646 -0.9833639 0.134702
vn -0.1218646 -0.9833639 0.134702
vn -0.1218646 -0.9833639 0.134702
vn -0.1705659 -0.5213048 0.8361512
vn -0.1705659 -0.5213048 0.8361512
vn -0.1705659 -0.5213048 0.8361512
vn -0.519533 -0.853878 -0.03126983
vn -0.519533 -0.853878 -0.03126983
vn -0.519533 -0.853878 -0.03126983
vn 0.1265055 -0.9062259 -0.4034241
vn 0.1265055 -0.9062259 -0.4034241
vn 0.1265055 -0.9062259 -0.4034241
vn -0.3544331 0.8071357 -0.4721326
vn -0.3544331 0.8071357 -0.4721326
vn -0.3544331 0.8071357 -0.4721326
vn 0.05062772 -0.3626731 -0.9305403
vn 0.05062772 -0.3626731 -0.9305403
vn 0.05062772 -0.3626731 -0.9305403
vn -0.7371097 0.6028847 -0.3052858
vn -0.7371097 0.6028847 -0.3052858
vn -0.7371097 0.6028847 -0.3052858
vn 0.293866 -0.8534175 -0.4304894
vn 0.293866 -0.8534175 -0.4304894
vn 0.293866 -0.8534175 -0.4304894
vn -0.5065634 -0.3264338 -0.7980191
vn -0.5065634 -0.3264338 -0.7980191
vn -0.5065634 -0.3264338 -0.7980191
vn -0.3150939 -0.5831288 -0.7487834
vn -0.3150939 -0.5831288 -0.7487834
vn -0.3150939 -0.5831288 -0.7487834
vn -0.5773502 -0.5773503 -0.5773502
vn -0.5773502 -0.5773503 -0.5773502
vn -0.5773502 -0.5773503 -0.5773502
vn -0.7487835 -0.3150939 -0.5831288
vn -0.7487835 -0.3150939 -0.5831288
vn -0.7487835 -0.3150939 -0.5831288
vn -0.7169083 0.6776541 0.1637913
vn -0.7169083 0.6776541 0.1637913
vn -0.7169083 0.6776541 0.1637913
vn -0.7460262 -0.316146 -0.5860858
vn -0.7460262 -0.316146 -0.5860858
vn -0.7460262 -0.316146 -0.5860858
vn -0.8241227 -0.5505576 -0.1330716
vn -0.8241227 -0.5505576 -0.1330716
vn -0.8241227 -0.5505576 -0.1330716
vn -0.8590819 -0.381164 0.3416026
vn -0.8590819 -0.381164 0.3416026
vn -0.8590819 -0.381164 0.3416026
vn 0.3144046 -0.695235 0.6463729
vn 0.3144046 -0.695235 0.6463729
vn 0.3144046 -0.695235 0.6463729
vn -0.8776733 -0.25913 0.4031639
vn -0.8776733 -0.25913 0.4031639
vn -0.8776733 -0.25913 0.4031639
vn -0.1862076 -0.4312884 0.8827893
vn -0.1862076 -0.4312884 0.8827893
vn -0.1862076 -0.4312884 0.8827893
vn 0.4316397 0.5991026 0.6743613
vn 0.4316397 0.5991026 0.6743613
vn 0.4316397 0.5991026 0.6743613
vn 0.8330323 -0.5531055 0.01147697
vn 0.8330323 -0.5531055 0.01147697
vn 0.8330323 -0.5531055 0.01147697
vn 0.02760534 -0.4813539 0.8760915
vn 0.02760534 -0.4813539 0.8760915
vn 0.02760534 -0.4813539 0.8760915
vn 0.7826238 -0.45035 0.4297496
vn 0.7826238 -0.45035 0.4297496
vn 0.7826238 -0.45035 0.4297496
vn 0.5285151 -0.748058 0.4013489
vn 0.5285151 -0.748058 0.4013489
vn 0.5285151 -0.748058 0.4013489
vn -0.6967512 0.6023521 -0.389499
vn -0.6967512 0.6023521 -0.389499
vn -0.6967512 0.6023521 -0.389499
vn 0.9499426 0.171802 -0.2609463
vn 0.9499426 0.171802 -0.2609463
vn 0.9499426 0.171802 -0.2609463
vn 0.8895848 0.4330885 -0.1451659
vn 0.8895848 0.4330885 -0.1451659
vn 0.8895848 0.4330885 -0.1451659
vn 0.6654425 -0.5786636 -0.4715239
vn 0.6654425 -0.5786636 -0.4715239
vn 0.6654425 -0.5786636 -0.4715239
vn -0.158302 0.5635998 -0.8107378
vn -0.158302 0.5635998 -0.8107378
vn -0.158302 0.5635998 -0.8107378
vn -0.2917599 -0.5187633 -0.8035925
vn -0.2917599 -0.5187633 -0.8035925
vn -0.2917599 -0.5187633 -0.8035925
vn -0.8420824 0.3078588 -0.4428546
vn -0.8420824 0.3078588 -0.4428546
vn -0.8420824 0.3078588 -0.4428546
vn -0.5423213 0.7553698 -0.367837
vn -0.5423213 0.7553698 -0.367837
vn -0.5423213 0.7553698 -0.367837
vn -0.8812553 -0.02150629 0.4721512
vn -0.8812553 -0.02150629 0.4721512
vn -0.8812553 -0.02150629 0.4721512
vn -0.7477304 -0.01859851 -0.6637418
vn -0.7477304 -0.01859851 -0.6637418
vn -0.7477304 -0.01859851 -0.6637418
vn -0.9571165 0.2897034 0
vn -0.9571165 0.2897034 0
vn -0.9571165 0.2897034 0
vn -0.185129 0.9827143 0
vn -0.185129 0.9827143 0
vn -0.185129 0.9827143 0

vt -0.5257311 0
vt -0.809017 0.309017
vt -0.309017 0.5
vt -0.309017 0.5
vt -0.5257311 0
vt -0.809017 0.309017
vt 0.809017 0.5
vt 0.5 0.309017
vt 0.309017 0.809017
vt 0.309017 0.809017
vt 0.5 0.309017
vt 0 0.5257311
vt -0.5257311 0
vt -0.309017 0.5
vt 0 0
vt -0.309017 0.5
vt 0 0.8506508
vt 0.309017 0.5
vt -0.309017 0.5
vt 0.309017 0.5
vt 0 0
vt 0 0
vt 0.309017 0.5
vt 0.5257311 0
vt -0.5257311 0
vt 0 0
vt -0.309017 -0.5
vt 0 0
vt 0.5257311 0
vt 0.309017 -0.5
vt 0 0
vt 0.309017 -0.5
vt -0.309017 -0.5
vt -0.309017 -0.5
vt 0.309017 -0.5
vt 0 -0.8506508
vt -0.5257311 0
vt -0.309017 -0.5
vt -0.809017 -0.309017
vt -0.309017 0.809017
vt 0 0.5257311
vt -0.5 0.309017
vt 0.5 0.809017
vt 0.809017 0.309017
vt 0.309017 0.5
vt 0.309017 0.5
vt 0.809017 0.309017
vt 0.5257311 0
vt 0 0.8506508
vt 0.309017 0.5
vt -0.309017 0.5
vt 0.309017 0.5
vt 0.5257311 0
vt 0 0
vt 0.309017 0.5
vt 0 0
vt -0.309017 0.5
vt -0.309017 0.5
vt 0 0
vt -0.5257311 0
vt 0.5257311 0
vt 0.309017 0.5
vt 0.809017 0.309017
vt -0.309017 0.809017
vt 0 0.5257311
vt -0.5 0.309017
vt 0.5 0.809017
vt 0.809017 0.309017
vt 0.309017 0.5
vt 0.309017 0.5
vt 0.809017 0.309017
vt 0.5257311 0
vt 0 0.5257311
vt 0.5 0.309017
vt 0 0
vt 0.5 0.309017
vt 0.8506508 0
vt 0.5 -0.309017
vt 0.5 0.309017
vt 0.5 -0.309017
vt 0 0
vt 0 0
vt 0.5 -0.309017
vt 0 -0.5257311
vt -0.5257311 0
vt 0 0
vt -0.309017 -0.5
vt 0 0
vt 0.5257311 0
vt 0.309017 -0.5
vt 0 0
vt 0.309017 -0.5
vt -0.309017 -0.5
vt -0.309017 -0.5
vt 0.309017 -0.5
vt 0 -0.8506508
vt -0.8506508 0
vt -0.5 0.309017
vt -0.5 -0.309017
vt -0.5 0.309017
vt 0 0.5257311
vt 0 0
vt -0.5 0.309017
vt 0 0
vt -0.5 -0.309017
vt -0.5 -0.309017
vt 0 0
vt 0 -0.5257311
vt 0 0.5257311
vt 0.309017 0.809017
vt 0.5 0.309017
vt 0.309017 -0.5
vt 0.5257311 0
vt 0.809017 -0.309017
vt -0.5 0.809017
vt -0.309017 0.5
vt -0.809017 0.309017
vt -0.809017 0.309017
vt -0.309017 0.5
vt -0.5257311 0
vt -0.5257311 0
vt -0.809017 0.309017
vt -0.309017 0.5
vt 0.309017 -0.5
vt 0.5257311 0
vt 0.809017 -0.309017
vt -0.809017 -0.5
vt -0.5 -0.309017
vt -0.309017 -0.809017
vt -0.309017 -0.809017
vt -0.5 -0.309017
vt 0 -0.5257311
vt -0.5257311 0
vt -0.309017 0.5
vt 0 0
vt -0.309017 0.5
vt 0 0.8506508
vt 0.309017 0.5
vt -0.309017 0.5
vt 0.309017 0.5
vt 0 0
vt 0 0
vt 0.309017 0.5
vt 0.5257311 0
vt -0.5257311 0
vt 0 0
vt -0.309017 -0.5
vt 0 0
vt 0.5257311 0
vt 0.309017 -0.5
vt 0 0
vt 0.309017 -0.5
vt -0.309017 -0.5
vt -0.309017 -0.5
vt 0.309017 -0.5
vt 0 -0.8506508
vt -0.5257311 0
vt -0.309017 -0.5
vt -0.809017 -0.309017
vt 0.309017 -0.809017
vt 0 -0.5257311
vt 0.5 -0.309017
vt -0.5 -0.809017
vt -0.809017 -0.309017
vt -0.309017 -0.5
vt -0.309017 -0.5
vt -0.809017 -0.309017
vt -0.5257311 0
vt 0 -0.8506508
vt -0.309017 -0.5
vt 0.309017 -0.5
vt -0.309017 -0.5
vt -0.5257311 0
vt 0 0
vt -0.309017 -0.5
vt 0 0
vt 0.309017 -0.5
vt 0.309017 -0.5
vt 0 0
vt 0.5257311 0
vt 0 -0.5257311
vt -0.5 -0.309017
vt 0 0
vt -0.5 -0.309017
vt -0.8506508 0
vt -0.5 0.309017
vt -0.5 -0.309017
vt -0.5 0.309017
vt 0 0
vt 0 0
vt -0.5 0.309017
vt 0 0.5257311
vt 0.5257311 0
vt 0.309017 0.5
vt 0.809017 0.309017
vt 0.309017 -0.809017
vt 0 -0.5257311
vt 0.5 -0.309017
vt -0.5 -0.809017
vt -0.809017 -0.309017
vt -0.309017 -0.5
vt -0.309017 -0.5
vt -0.809017 -0.309017
vt -0.5257311 0
vt 0 -0.5257311
vt -0.309017 -0.809017
vt -0.5 -0.309017
vt 0.309017 -0.5
vt 0.5257311 0
vt 0.809017 -0.309017
vt 0.5 -0.809017
vt 0.309017 -0.5
vt 0.809017 -0.309017
vt 0.809017 -0.309017
vt 0.309017 -0.5
vt 0.5257311 0
vt 0.8506508 0
vt 0.5 -0.309017
vt 0.5 0.309017
vt 0.5 -0.309017
vt 0 -0.5257311
vt 0 0
vt 0.5 -0.309017
vt 0 0
vt 0.5 0.309017
vt 0.5 0.309017
vt 0 0
vt 0 0.5257311
vt 0.5257311 0
vt 0 0
vt 0.309017 0.5
vt 0 0
vt -0.5257311 0
vt -0.309017 0.5
vt 0 0
vt -0.309017 0.5
vt 0.309017 0.5
vt 0.309017 0.5
vt -0.309017 0.5
vt 0 0.8506508

g asteroid 2
usemtl asteroid 2
usemap asteroid 2
f 2/2/2 1/1/1 3/3/3
f 5/5/5 4/4/4 6/6/6
f 8/8/8 7/7/7 9/9/9
f 11/11/11 10/10/10 12/12/12
f 14/14/14 13/13/13 15/15/15
f 17/17/17 16/16/16 18/18/18
f 20/20/20 19/19/19 21/21/21
f 23/23/23 22/22/22 24/24/24
f 26/26/26 25/25/25 27/27/27
f 29/29/29 28/28/28 30/30/30
f 32/32/32 31/31/31 33/33/33
f 35/35/35 34/34/34 36/36/36
f 38/38/38 37/37/37 39/39/39
f 41/41/41 40/40/40 42/42/42
f 44/44/44 43/43/43 45/45/45
f 47/47/47 46/46/46 48/48/48
f 50/50/50 49/49/49 51/51/51
f 53/53/53 52/52/52 54/54/54
f 56/56/56 55/55/55 57/57/57
f 59/59/59 58/58/58 60/60/60
f 62/62/62 61/61/61 63/63/63
f 65/65/65 64/64/64 66/66/66
f 68/68/68 67/67/67 69/69/69
f 71/71/71 70/70/70 72/72/72
f 74/74/74 73/73/73 75/75/75
f 77/77/77 76/76/76 78/78/78
f 80/80/80 79/79/79 81/81/81
f 83/83/83 82/82/82 84/84/84
f 86/86/86 85/85/85 87/87/87
f 89/89/89 88/88/88 90/90/90
f 92/92/92 91/91/91 93/93/93
f 95/95/95 94/94/94 96/96/96
f 98/98/98 97/97/97 99/99/99
f 101/101/101 100/100/100 102/102/102
f 104/104/104 103/103/103 105/105/105
f 107/107/107 106/106/106 108/108/108
f 110/110/110 109/109/109 111/111/111
f 113/113/113 112/112/112 114/114/114
f 116/116/116 115/115/115 117/117/117
f 119/119/119 118/118/118 120/120/120
f 122/122/122 121/121/121 123/123/123
f 125/125/125 124/124/124 126/126/126
f 128/128/128 127/127/127 129/129/129
f 131/131/131 130/130/130 132/132/132
f 134/134/134 133/133/133 135/135/135
f 137/137/137 136/136/136 138/138/138
f 140/140/140 139/139/139 141/141/141
f 143/143/143 142/142/142 144/144/144
f 146/146/146 145/145/145 147/147/147
f 149/149/149 148/148/148 150/150/150
f 152/152/152 151/151/151 153/153/153
f 155/155/155 154/154/154 156/156/156
f 158/158/158 157/157/157 159/159/159
f 161/161/161 160/160/160 162/162/162
f 164/164/164 163/163/163 165/165/165
f 167/167/167 166/166/166 168/168/168
f 170/170/170 169/169/169 171/171/171
f 173/173/173 172/172/172 174/174/174
f 176/176/176 175/175/175 177/177/177
f 179/179/179 178/178/178 180/180/180
f 182/182/182 181/181/181 183/183/183
f 185/185/185 184/184/184 186/186/186
f 188/188/188 187/187/187 189/189/189
f 191/191/191 190/190/190 192/192/192
f 194/194/194 193/193/193 195/195/195
f 197/197/197 196/196/196 198/198/198
f 200/200/200 199/199/199 201/201/201
f 203/203/203 202/202/202 204/204/204
f 206/206/206 205/205/205 207/207/207
f 209/209/209 208/208/208 210/210/210
f 212/212/212 211/211/211 213/213/213
f 215/215/215 214/214/214 216/216/216
f 218/218/218 217/217/217 219/219/219
f 221/221/221 220/220/220 222/222/222
f 224/224/224 223/223/223 225/225/225
f 227/227/227 226/226/226 228/228/228
f 230/230/230 229/229/229 231/231/231
f 233/233/233 232/232/232 234/234/234
f 236/236/236 235/235/235 237/237/237
f 239/239/239 238/238/238 240/240/240
