mtllib ./GiantAsteroid.mtl
g Big man 1
v -0.3870515 0.1660004 0.5040741
v 0.2832859 -0.1130791 0.3806074
v -0.2167141 0.1034468 0.7660866
v 0.2832859 -0.1130791 0.3806074
v 0.3249197 -0.7763863 0.5257311
v -0.02573109 -0.4673693 0.809017
v 0.2832859 -0.1130791 0.3806074
v -0.02573109 -0.4673693 0.809017
v -0.2167141 0.1034468 0.7660866
v -0.2167141 0.1034468 0.7660866
v -0.02573109 -0.4673693 0.809017
v -0.5257311 -0.2992544 1.04406
v -0.3870515 0.1660004 0.5040741
v -0.2167141 0.1034468 0.7660866
v -0.5257311 0.4928703 0.006835938
v -0.2167141 0.1034468 0.7660866
v -0.5257311 -0.2992544 1.04406
v -0.834748 -0.0159685 0.693409
v -0.2167141 0.1034468 0.7660866
v -0.834748 -0.0159685 0.693409
v -0.5257311 0.4928703 0.006835938
v -0.5257311 0.4928703 0.006835938
v -0.834748 -0.0159685 0.693409
v -1.051462 0.4141769 0.01573181
v -0.3870515 0.1660004 0.5040741
v -0.5257311 0.4928703 0.006835938
v -0.6037655 0.1424177 -0.1603279
v -0.5257311 0.4928703 0.006835938
v -1.051462 0.4141769 0.01573181
v -0.7007194 0.1446455 -0.5759926
v -0.5257311 0.4928703 0.006835938
v -0.7007194 0.1446455 -0.5759926
v -0.6037655 0.1424177 -0.1603279
v -0.6037655 0.1424177 -0.1603279
v -0.7007194 0.1446455 -0.5759926
v -0.5257311 -0.4234686 -0.9423752
v -0.3870515 0.1660004 0.5040741
v -0.6037655 0.1424177 -0.1603279
v -0.1037655 0.03441238 -0.2574918
v -0.6037655 0.1424177 -0.1603279
v -0.5257311 -0.4234686 -0.9423752
v -0.02573109 -0.3056185 -0.809017
v -0.6037655 0.1424177 -0.1603279
v -0.02573109 -0.3056185 -0.809017
v -0.1037655 0.03441238 -0.2574918
v -0.1037655 0.03441238 -0.2574918
v -0.02573109 -0.3056185 -0.809017
v 0.3249197 -0.8971825 -0.9155855
v -0.3870515 0.1660004 0.5040741
v -0.1037655 0.03441238 -0.2574918
v 0.2832859 -0.1130791 0.3806074
v -0.1037655 0.03441238 -0.2574918
v 0.3249197 -0.8971825 -0.9155855
v 0.4742689 -0.7016029 -0.3898544
v -0.1037655 0.03441238 -0.2574918
v 0.4742689 -0.7016029 -0.3898544
v 0.2832859 -0.1130791 0.3806074
v 0.2832859 -0.1130791 0.3806074
v 0.4742689 -0.7016029 -0.3898544
v 0.3249197 -0.7763863 0.5257311
v -1.051462 0.4141769 0.01573181
v -0.834748 -0.0159685 0.693409
v -1.334748 -0.09232712 0.4926984
v -0.834748 -0.0159685 0.693409
v -0.5257311 -0.2992544 1.04406
v -1.025731 -0.5416338 0.809017
v -0.834748 -0.0159685 0.693409
v -1.025731 -0.5416338 0.809017
v -1.334748 -0.09232712 0.4926984
v -1.334748 -0.09232712 0.4926984
v -1.025731 -0.5416338 0.809017
v -1.376382 -0.5923271 0.9755716
v -0.5257311 -0.2992544 1.04406
v -0.02573109 -0.4673693 0.809017
v -0.5257311 -0.8506508 1
v -0.02573109 -0.4673693 0.809017
v 0.3249197 -0.7763863 0.5257311
v -0.02573109 -1.085403 0.809017
v -0.02573109 -0.4673693 0.809017
v -0.02573109 -1.085403 0.809017
v -0.5257311 -0.8506508 1
v -0.5257311 -0.8506508 1
v -0.02573109 -1.085403 0.809017
v -0.5257311 -1.376382 0.8506508
v 0.3249197 -0.7763863 0.5257311
v 0.4742689 -0.7016029 -0.3898544
v 0.2832859 -1.350651 0.309017
v 0.4742689 -0.7016029 -0.3898544
v 0.3249197 -0.8971825 -0.9155855
v 0.2832859 -1.708836 0.125355
v 0.4742689 -0.7016029 -0.3898544
v 0.2832859 -1.708836 0.125355
v 0.2832859 -1.350651 0.309017
v 0.2832859 -1.350651 0.309017
v 0.2832859 -1.708836 0.125355
v 0 -1.701302 0
v 0.3249197 -0.8971825 -0.9155855
v -0.02573109 -0.3056185 -0.809017
v -0.02573109 -1.517853 -0.3746451
v -0.02573109 -0.3056185 -0.809017
v -0.5257311 -0.4234686 -0.9423752
v -0.4932618 -0.9302254 -1
v -0.02573109 -0.3056185 -0.809017
v -0.4932618 -0.9302254 -1
v -0.02573109 -1.517853 -0.3746451
v -0.02573109 -1.517853 -0.3746451
v -0.4932618 -0.9302254 -1
v -0.5257311 -1.376382 -0.8506508
v -0.5257311 -0.4234686 -0.9423752
v -0.7007194 0.1446455 -0.5759926
v -0.8592333 -0.7505572 -0.809017
v -0.7007194 0.1446455 -0.5759926
v -1.051462 0.4141769 0.01573181
v -1.200719 -0.2853355 -0.309017
v -0.7007194 0.1446455 -0.5759926
v -1.200719 -0.2853355 -0.309017
v -0.8592333 -0.7505572 -0.809017
v -0.8592333 -0.7505572 -0.809017
v -1.200719 -0.2853355 -0.309017
v -1.376382 -0.8506508 -0.5257311
v -1.051462 -1.701302 0
v -1.334748 -1.350651 0.575176
v -0.834748 -1.659668 0.5
v -1.334748 -1.350651 0.575176
v -1.376382 -0.5923271 0.9755716
v -1.025731 -1.159668 1.075176
v -1.334748 -1.350651 0.575176
v -1.025731 -1.159668 1.075176
v -0.834748 -1.659668 0.5
v -0.834748 -1.659668 0.5
v -1.025731 -1.159668 1.075176
v -0.5257311 -1.376382 0.8506508
v -1.051462 -1.701302 0
v -0.834748 -1.659668 0.5
v -0.5257311 -1.850651 0
v -0.834748 -1.659668 0.5
v -0.5257311 -1.376382 0.8506508
v -0.2167141 -1.659668 0.5
v -0.834748 -1.659668 0.5
v -0.2167141 -1.659668 0.5
v -0.5257311 -1.850651 0
v -0.5257311 -1.850651 0
v -0.2167141 -1.659668 0.5
v 0 -1.701302 0
v -1.051462 -1.701302 0
v -0.5257311 -1.850651 0
v -0.834748 -1.659668 -0.5
v -0.5257311 -1.850651 0
v 0 -1.701302 0
v -0.2167141 -2.017853 -0.06562805
v -0.5257311 -1.850651 0
v -0.2167141 -2.017853 -0.06562805
v -0.834748 -1.659668 -0.5
v -0.834748 -1.659668 -0.5
v -0.2167141 -2.017853 -0.06562805
v -0.5257311 -1.376382 -0.8506508
v -1.051462 -1.701302 0
v -0.834748 -1.659668 -0.5
v -1.334748 -1.350651 -0.309017
v -0.834748 -1.659668 -0.5
v -0.5257311 -1.376382 -0.8506508
v -0.993262 -1.239242 -0.809017
v -0.834748 -1.659668 -0.5
v -0.993262 -1.239242 -0.809017
v -1.334748 -1.350651 -0.309017
v -1.334748 -1.350651 -0.309017
v -0.993262 -1.239242 -0.809017
v -1.376382 -0.8506508 -0.5257311
v -1.051462 -1.701302 0
v -1.334748 -1.350651 -0.309017
v -1.334748 -1.350651 0.575176
v -1.334748 -1.350651 -0.309017
v -1.376382 -0.8506508 -0.5257311
v -1.525731 -0.5923271 0.1836815
v -1.334748 -1.350651 -0.309017
v -1.525731 -0.5923271 0.1836815
v -1.334748 -1.350651 0.575176
v -1.334748 -1.350651 0.575176
v -1.525731 -0.5923271 0.1836815
v -1.376382 -0.5923271 0.9755716
v -0.5257311 -1.376382 0.8506508
v -1.025731 -1.159668 1.075176
v -0.5257311 -0.8506508 1
v -1.025731 -1.159668 1.075176
v -1.376382 -0.5923271 0.9755716
v -1.025731 -0.5416338 0.809017
v -1.025731 -1.159668 1.075176
v -1.025731 -0.5416338 0.809017
v -0.5257311 -0.8506508 1
v -0.5257311 -0.8506508 1
v -1.025731 -0.5416338 0.809017
v -0.5257311 -0.2992544 1.04406
v 0 -1.701302 0
v -0.2167141 -1.659668 0.5
v 0.2832859 -1.350651 0.309017
v -0.2167141 -1.659668 0.5
v -0.5257311 -1.376382 0.8506508
v -0.02573109 -1.085403 0.809017
v -0.2167141 -1.659668 0.5
v -0.02573109 -1.085403 0.809017
v 0.2832859 -1.350651 0.309017
v 0.2832859 -1.350651 0.309017
v -0.02573109 -1.085403 0.809017
v 0.3249197 -0.7763863 0.5257311
v -0.5257311 -1.376382 -0.8506508
v -0.2167141 -2.017853 -0.06562805
v -0.02573109 -1.517853 -0.3746451
v -0.2167141 -2.017853 -0.06562805
v 0 -1.701302 0
v 0.2832859 -1.708836 0.125355
v -0.2167141 -2.017853 -0.06562805
v 0.2832859 -1.708836 0.125355
v -0.02573109 -1.517853 -0.3746451
v -0.02573109 -1.517853 -0.3746451
v 0.2832859 -1.708836 0.125355
v 0.3249197 -0.8971825 -0.9155855
v -1.376382 -0.8506508 -0.5257311
v -0.993262 -1.239242 -0.809017
v -0.8592333 -0.7505572 -0.809017
v -0.993262 -1.239242 -0.809017
v -0.5257311 -1.376382 -0.8506508
v -0.4932618 -0.9302254 -1
v -0.993262 -1.239242 -0.809017
v -0.4932618 -0.9302254 -1
v -0.8592333 -0.7505572 -0.809017
v -0.8592333 -0.7505572 -0.809017
v -0.4932618 -0.9302254 -1
v -0.5257311 -0.4234686 -0.9423752
v -1.376382 -0.5923271 0.9755716
v -1.525731 -0.5923271 0.1836815
v -1.334748 -0.09232712 0.4926984
v -1.525731 -0.5923271 0.1836815
v -1.376382 -0.8506508 -0.5257311
v -1.200719 -0.2853355 -0.309017
v -1.525731 -0.5923271 0.1836815
v -1.200719 -0.2853355 -0.309017
v -1.334748 -0.09232712 0.4926984
v -1.334748 -0.09232712 0.4926984
v -1.200719 -0.2853355 -0.309017
v -1.051462 0.4141769 0.01573181

vn 0.3800738 0.9245807 -0.02635344
vn 0.3800738 0.9245807 -0.02635344
vn 0.3800738 0.9245807 -0.02635344
vn 0.7136096 0.1921815 0.6736673
vn 0.7136096 0.1921815 0.6736673
vn 0.7136096 0.1921815 0.6736673
vn 0.6587482 0.2731274 0.7010365
vn 0.6587482 0.2731274 0.7010365
vn 0.6587482 0.2731274 0.7010365
vn 0.4751115 0.2229804 0.8512045
vn 0.4751115 0.2229804 0.8512045
vn 0.4751115 0.2229804 0.8512045
vn 0.6288167 -0.5575929 -0.5419223
vn 0.6288167 -0.5575929 -0.5419223
vn 0.6288167 -0.5575929 -0.5419223
vn -0.2122865 0.6602104 0.7204559
vn -0.2122865 0.6602104 0.7204559
vn -0.2122865 0.6602104 0.7204559
vn -0.2206076 0.8284878 0.5147235
vn -0.2206076 0.8284878 0.5147235
vn -0.2206076 0.8284878 0.5147235
vn -0.1135945 0.8219833 0.5580679
vn -0.1135945 0.8219833 0.5580679
vn -0.1135945 0.8219833 0.5580679
vn 0.9493825 -0.06478329 -0.3073693
vn 0.9493825 -0.06478329 -0.3073693
vn 0.9493825 -0.06478329 -0.3073693
vn -0.1379885 0.8679292 -0.4771354
vn -0.1379885 0.8679292 -0.4771354
vn -0.1379885 0.8679292 -0.4771354
vn 0.9680798 -0.1075772 -0.2263815
vn 0.9680798 -0.1075772 -0.2263815
vn 0.9680798 -0.1075772 -0.2263815
vn 0.8901671 0.406684 -0.2054521
vn 0.8901671 0.406684 -0.2054521
vn 0.8901671 0.406684 -0.2054521
vn 0.1920374 0.9765522 -0.09730086
vn 0.1920374 0.9765522 -0.09730086
vn 0.1920374 0.9765522 -0.09730086
vn -0.03361538 0.8080968 -0.5880898
vn -0.03361538 0.8080968 -0.5880898
vn -0.03361538 0.8080968 -0.5880898
vn 0.08442757 0.8534765 -0.5142469
vn 0.08442757 0.8534765 -0.5142469
vn 0.08442757 0.8534765 -0.5142469
vn 0.8245909 0.5262035 -0.2077494
vn 0.8245909 0.5262035 -0.2077494
vn 0.8245909 0.5262035 -0.2077494
vn 0.3814943 0.9242002 -0.01778133
vn 0.3814943 0.9242002 -0.01778133
vn 0.3814943 0.9242002 -0.01778133
vn 0.6765192 0.6064428 -0.4177904
vn 0.6765192 0.6064428 -0.4177904
vn 0.6765192 0.6064428 -0.4177904
vn 0.7247198 0.6223487 -0.2957419
vn 0.7247198 0.6223487 -0.2957419
vn 0.7247198 0.6223487 -0.2957419
vn 0.9808658 0.09832871 0.168029
vn 0.9808658 0.09832871 0.168029
vn 0.9808658 0.09832871 0.168029
vn -0.3452663 0.7384898 0.579158
vn -0.3452663 0.7384898 0.579158
vn -0.3452663 0.7384898 0.579158
vn -0.5345254 0.3621454 0.7636318
vn -0.5345254 0.3621454 0.7636318
vn -0.5345254 0.3621454 0.7636318
vn -0.3946261 0.3318158 0.8568363
vn -0.3946261 0.3318158 0.8568363
vn -0.3946261 0.3318158 0.8568363
vn 0.2403868 0.6638787 0.7081519
vn 0.2403868 0.6638787 0.7081519
vn 0.2403868 0.6638787 0.7081519
vn 0.4041257 -0.07285786 0.9117972
vn 0.4041257 -0.07285786 0.9117972
vn 0.4041257 -0.07285786 0.9117972
vn 0.6284284 0 0.7778675
vn 0.6284284 0 0.7778675
vn 0.6284284 0 0.7778675
vn 0.3568221 0 0.9341724
vn 0.3568221 0 0.9341724
vn 0.3568221 0 0.9341724
vn 0.2325708 -0.2657735 0.9355615
vn 0.2325708 -0.2657735 0.9355615
vn 0.2325708 -0.2657735 0.9355615
vn 0.9805016 -0.1275123 0.1495233
vn 0.9805016 -0.1275123 0.1495233
vn 0.9805016 -0.1275123 0.1495233
vn 0.9485776 -0.2669087 -0.1701772
vn 0.9485776 -0.2669087 -0.1701772
vn 0.9485776 -0.2669087 -0.1701772
vn 0.9790384 -0.09293158 0.1812389
vn 0.9790384 -0.09293158 0.1812389
vn 0.9790384 -0.09293158 0.1812389
vn -0.3760922 -0.4227739 0.8245101
vn -0.3760922 -0.4227739 0.8245101
vn -0.3760922 -0.4227739 0.8245101
vn -0.6499315 -0.2563623 -0.7154491
vn -0.6499315 -0.2563623 -0.7154491
vn -0.6499315 -0.2563623 -0.7154491
vn 0.2282208 0.1244269 -0.9656258
vn 0.2282208 0.1244269 -0.9656258
vn 0.2282208 0.1244269 -0.9656258
vn 0.6410308 -0.2588997 -0.7225307
vn 0.6410308 -0.2588997 -0.7225307
vn 0.6410308 -0.2588997 -0.7225307
vn 0.6155348 -0.2900907 -0.7327784
vn 0.6155348 -0.2900907 -0.7327784
vn 0.6155348 -0.2900907 -0.7327784
vn -0.5927475 0.2995622 -0.7476048
vn -0.5927475 0.2995622 -0.7476048
vn -0.5927475 0.2995622 -0.7476048
vn -0.6820836 0.4226025 -0.596799
vn -0.6820836 0.4226025 -0.596799
vn -0.6820836 0.4226025 -0.596799
vn -0.6361973 0.2979074 -0.7116911
vn -0.6361973 0.2979074 -0.7116911
vn -0.6361973 0.2979074 -0.7116911
vn -0.4953507 0.4408639 -0.7485097
vn -0.4953507 0.4408639 -0.7485097
vn -0.4953507 0.4408639 -0.7485097
vn -0.4750736 -0.835707 0.2754977
vn -0.4750736 -0.835707 0.2754977
vn -0.4750736 -0.835707 0.2754977
vn -0.7315199 -0.349325 0.5855344
vn -0.7315199 -0.349325 0.5855344
vn -0.7315199 -0.349325 0.5855344
vn -0.3875605 -0.7555658 0.528126
vn -0.3875605 -0.7555658 0.528126
vn -0.3875605 -0.7555658 0.528126
vn -0.03849055 -0.7604387 0.6482681
vn -0.03849055 -0.7604387 0.6482681
vn -0.03849055 -0.7604387 0.6482681
vn -0.2680349 -0.9435221 0.1947388
vn -0.2680349 -0.9435221 0.1947388
vn -0.2680349 -0.9435221 0.1947388
vn 0 -0.7778676 0.6284283
vn 0 -0.7778676 0.6284283
vn 0 -0.7778676 0.6284283
vn 0 -0.9341724 0.3568222
vn 0 -0.9341724 0.3568222
vn 0 -0.9341724 0.3568222
vn 0.2680349 -0.9435221 0.1947388
vn 0.2680349 -0.9435221 0.1947388
vn 0.2680349 -0.9435221 0.1947388
vn -0.2680349 -0.9435221 -0.1947388
vn -0.2680349 -0.9435221 -0.1947388
vn -0.2680349 -0.9435221 -0.1947388
vn 0.07063119 -0.2486321 0.9660193
vn 0.07063119 -0.2486321 0.9660193
vn 0.07063119 -0.2486321 0.9660193
vn -0.4815958 -0.8756199 -0.03681465
vn -0.4815958 -0.8756199 -0.03681465
vn -0.4815958 -0.8756199 -0.03681465
vn -0.005626322 -0.7754256 -0.6314138
vn -0.005626322 -0.7754256 -0.6314138
vn -0.005626322 -0.7754256 -0.6314138
vn -0.5831287 -0.7487833 -0.3150939
vn -0.5831287 -0.7487833 -0.3150939
vn -0.5831287 -0.7487833 -0.3150939
vn -0.2508799 -0.6329336 -0.7324304
vn -0.2508799 -0.6329336 -0.7324304
vn -0.2508799 -0.6329336 -0.7324304
vn -0.5825961 -0.6124123 -0.5343527
vn -0.5825961 -0.6124123 -0.5343527
vn -0.5825961 -0.6124123 -0.5343527
vn -0.7496919 -0.314745 -0.5821491
vn -0.7496919 -0.314745 -0.5821491
vn -0.7496919 -0.314745 -0.5821491
vn -0.7778676 -0.6284282 0
vn -0.7778676 -0.6284282 0
vn -0.7778676 -0.6284282 0
vn -0.9773241 -0.1473086 -0.1521108
vn -0.9773241 -0.1473086 -0.1521108
vn -0.9773241 -0.1473086 -0.1521108
vn -0.9697192 -0.2442228 0
vn -0.9697192 -0.2442228 0
vn -0.9697192 -0.2442228 0
vn -0.9715452 -0.1500868 0.1832319
vn -0.9715452 -0.1500868 0.1832319
vn -0.9715452 -0.1500868 0.1832319
vn 0.2991593 -0.2607518 0.9178846
vn 0.2991593 -0.2607518 0.9178846
vn 0.2991593 -0.2607518 0.9178846
vn 0.354458 0.3698536 0.8588177
vn 0.354458 0.3698536 0.8588177
vn 0.354458 0.3698536 0.8588177
vn -0.1057665 0.3933164 0.9132994
vn -0.1057665 0.3933164 0.9132994
vn -0.1057665 0.3933164 0.9132994
vn -0.3950123 -0.07317428 0.9157571
vn -0.3950123 -0.07317428 0.9157571
vn -0.3950123 -0.07317428 0.9157571
vn 0.5831287 -0.7487834 0.3150939
vn 0.5831287 -0.7487834 0.3150939
vn 0.5831287 -0.7487834 0.3150939
vn 0.3733114 -0.5328134 0.7594395
vn 0.3733114 -0.5328134 0.7594395
vn 0.3733114 -0.5328134 0.7594395
vn 0.5677109 -0.5284648 0.6312126
vn 0.5677109 -0.5284648 0.6312126
vn 0.5677109 -0.5284648 0.6312126
vn 0.7412766 -0.2833587 0.6084545
vn 0.7412766 -0.2833587 0.6084545
vn 0.7412766 -0.2833587 0.6084545
vn 0.4648097 -0.5871366 -0.6627387
vn 0.4648097 -0.5871366 -0.6627387
vn 0.4648097 -0.5871366 -0.6627387
vn -0.4012635 0.08564161 0.9119502
vn -0.4012635 0.08564161 0.9119502
vn -0.4012635 0.08564161 0.9119502
vn 0.5773502 -0.5773503 -0.5773503
vn 0.5773502 -0.5773503 -0.5773503
vn 0.5773502 -0.5773503 -0.5773503
vn 0.4344091 -0.7186522 -0.5429804
vn 0.4344091 -0.7186522 -0.5429804
vn 0.4344091 -0.7186522 -0.5429804
vn -0.4960851 0.1360583 -0.8575476
vn -0.4960851 0.1360583 -0.8575476
vn -0.4960851 0.1360583 -0.8575476
vn -0.1719347 -0.3014317 -0.9378578
vn -0.1719347 -0.3014317 -0.9378578
vn -0.1719347 -0.3014317 -0.9378578
vn -0.4151324 0.1138559 -0.9026085
vn -0.4151324 0.1138559 -0.9026085
vn -0.4151324 0.1138559 -0.9026085
vn -0.4323774 0.07448023 -0.8986114
vn -0.4323774 0.07448023 -0.8986114
vn -0.4323774 0.07448023 -0.8986114
vn -0.9508687 0.2523662 0.1793323
vn -0.9508687 0.2523662 0.1793323
vn -0.9508687 0.2523662 0.1793323
vn -0.8611438 0.3917735 -0.3239518
vn -0.8611438 0.3917735 -0.3239518
vn -0.8611438 0.3917735 -0.3239518
vn -0.83986 0.4788154 -0.2556775
vn -0.83986 0.4788154 -0.2556775
vn -0.83986 0.4788154 -0.2556775
vn -0.9253471 0.3031435 -0.227677
vn -0.9253471 0.3031435 -0.227677
vn -0.9253471 0.3031435 -0.227677

vt -0.5257311 0
vt -0.809017 0.309017
vt -0.309017 0.5
vt -0.309017 0.5
vt -0.5257311 0
vt -0.809017 0.309017
vt 0.809017 0.5
vt 0.5 0.309017
vt 0.309017 0.809017
vt 0.309017 0.809017
vt 0.5 0.309017
vt 0 0.5257311
vt -0.5257311 0
vt -0.309017 0.5
vt 0 0
vt -0.309017 0.5
vt 0 0.8506508
vt 0.309017 0.5
vt -0.309017 0.5
vt 0.309017 0.5
vt 0 0
vt 0 0
vt 0.309017 0.5
vt 0.5257311 0
vt -0.5257311 0
vt 0 0
vt -0.309017 -0.5
vt 0 0
vt 0.5257311 0
vt 0.309017 -0.5
vt 0 0
vt 0.309017 -0.5
vt -0.309017 -0.5
vt -0.309017 -0.5
vt 0.309017 -0.5
vt 0 -0.8506508
vt -0.5257311 0
vt -0.309017 -0.5
vt -0.809017 -0.309017
vt -0.309017 0.809017
vt 0 0.5257311
vt -0.5 0.309017
vt 0.5 0.809017
vt 0.809017 0.309017
vt 0.309017 0.5
vt 0.309017 0.5
vt 0.809017 0.309017
vt 0.5257311 0
vt 0 0.8506508
vt 0.309017 0.5
vt -0.309017 0.5
vt 0.309017 0.5
vt 0.5257311 0
vt 0 0
vt 0.309017 0.5
vt 0 0
vt -0.309017 0.5
vt -0.309017 0.5
vt 0 0
vt -0.5257311 0
vt 0.5257311 0
vt 0.309017 0.5
vt 0.809017 0.309017
vt -0.309017 0.809017
vt 0 0.5257311
vt -0.5 0.309017
vt 0.5 0.809017
vt 0.809017 0.309017
vt 0.309017 0.5
vt 0.309017 0.5
vt 0.809017 0.309017
vt 0.5257311 0
vt 0 0.5257311
vt 0.5 0.309017
vt 0 0
vt 0.5 0.309017
vt 0.8506508 0
vt 0.5 -0.309017
vt 0.5 0.309017
vt 0.5 -0.309017
vt 0 0
vt 0 0
vt 0.5 -0.309017
vt 0 -0.5257311
vt -0.5257311 0
vt 0 0
vt -0.309017 -0.5
vt 0 0
vt 0.5257311 0
vt 0.309017 -0.5
vt 0 0
vt 0.309017 -0.5
vt -0.309017 -0.5
vt -0.309017 -0.5
vt 0.309017 -0.5
vt 0 -0.8506508
vt -0.8506508 0
vt -0.5 0.309017
vt -0.5 -0.309017
vt -0.5 0.309017
vt 0 0.5257311
vt 0 0
vt -0.5 0.309017
vt 0 0
vt -0.5 -0.309017
vt -0.5 -0.309017
vt 0 0
vt 0 -0.5257311
vt 0 0.5257311
vt 0.309017 0.809017
vt 0.5 0.309017
vt 0.309017 -0.5
vt 0.5257311 0
vt 0.809017 -0.309017
vt -0.5 0.809017
vt -0.309017 0.5
vt -0.809017 0.309017
vt -0.809017 0.309017
vt -0.309017 0.5
vt -0.5257311 0
vt -0.5257311 0
vt -0.809017 0.309017
vt -0.309017 0.5
vt 0.309017 -0.5
vt 0.5257311 0
vt 0.809017 -0.309017
vt -0.809017 -0.5
vt -0.5 -0.309017
vt -0.309017 -0.809017
vt -0.309017 -0.809017
vt -0.5 -0.309017
vt 0 -0.5257311
vt -0.5257311 0
vt -0.309017 0.5
vt 0 0
vt -0.309017 0.5
vt 0 0.8506508
vt 0.309017 0.5
vt -0.309017 0.5
vt 0.309017 0.5
vt 0 0
vt 0 0
vt 0.309017 0.5
vt 0.5257311 0
vt -0.5257311 0
vt 0 0
vt -0.309017 -0.5
vt 0 0
vt 0.5257311 0
vt 0.309017 -0.5
vt 0 0
vt 0.309017 -0.5
vt -0.309017 -0.5
vt -0.309017 -0.5
vt 0.309017 -0.5
vt 0 -0.8506508
vt -0.5257311 0
vt -0.309017 -0.5
vt -0.809017 -0.309017
vt 0.309017 -0.809017
vt 0 -0.5257311
vt 0.5 -0.309017
vt -0.5 -0.809017
vt -0.809017 -0.309017
vt -0.309017 -0.5
vt -0.309017 -0.5
vt -0.809017 -0.309017
vt -0.5257311 0
vt 0 -0.8506508
vt -0.309017 -0.5
vt 0.309017 -0.5
vt -0.309017 -0.5
vt -0.5257311 0
vt 0 0
vt -0.309017 -0.5
vt 0 0
vt 0.309017 -0.5
vt 0.309017 -0.5
vt 0 0
vt 0.5257311 0
vt 0 -0.5257311
vt -0.5 -0.309017
vt 0 0
vt -0.5 -0.309017
vt -0.8506508 0
vt -0.5 0.309017
vt -0.5 -0.309017
vt -0.5 0.309017
vt 0 0
vt 0 0
vt -0.5 0.309017
vt 0 0.5257311
vt 0.5257311 0
vt 0.309017 0.5
vt 0.809017 0.309017
vt 0.309017 -0.809017
vt 0 -0.5257311
vt 0.5 -0.309017
vt -0.5 -0.809017
vt -0.809017 -0.309017
vt -0.309017 -0.5
vt -0.309017 -0.5
vt -0.809017 -0.309017
vt -0.5257311 0
vt 0 -0.5257311
vt -0.309017 -0.809017
vt -0.5 -0.309017
vt 0.309017 -0.5
vt 0.5257311 0
vt 0.809017 -0.309017
vt 0.5 -0.809017
vt 0.309017 -0.5
vt 0.809017 -0.309017
vt 0.809017 -0.309017
vt 0.309017 -0.5
vt 0.5257311 0
vt 0.8506508 0
vt 0.5 -0.309017
vt 0.5 0.309017
vt 0.5 -0.309017
vt 0 -0.5257311
vt 0 0
vt 0.5 -0.309017
vt 0 0
vt 0.5 0.309017
vt 0.5 0.309017
vt 0 0
vt 0 0.5257311
vt 0.5257311 0
vt 0 0
vt 0.309017 0.5
vt 0 0
vt -0.5257311 0
vt -0.309017 0.5
vt 0 0
vt -0.309017 0.5
vt 0.309017 0.5
vt 0.309017 0.5
vt -0.309017 0.5
vt 0 0.8506508

g asteroid 1
usemtl asteroid 1
usemap asteroid 1
f 2/2/2 1/1/1 3/3/3
f 5/5/5 4/4/4 6/6/6
f 8/8/8 7/7/7 9/9/9
f 11/11/11 10/10/10 12/12/12
f 14/14/14 13/13/13 15/15/15
f 17/17/17 16/16/16 18/18/18
f 20/20/20 19/19/19 21/21/21
f 23/23/23 22/22/22 24/24/24
f 26/26/26 25/25/25 27/27/27
f 29/29/29 28/28/28 30/30/30
f 32/32/32 31/31/31 33/33/33
f 35/35/35 34/34/34 36/36/36
f 38/38/38 37/37/37 39/39/39
f 41/41/41 40/40/40 42/42/42
f 44/44/44 43/43/43 45/45/45
f 47/47/47 46/46/46 48/48/48
f 50/50/50 49/49/49 51/51/51
f 53/53/53 52/52/52 54/54/54
f 56/56/56 55/55/55 57/57/57
f 59/59/59 58/58/58 60/60/60
f 62/62/62 61/61/61 63/63/63
f 65/65/65 64/64/64 66/66/66
f 68/68/68 67/67/67 69/69/69
f 71/71/71 70/70/70 72/72/72
f 74/74/74 73/73/73 75/75/75
f 77/77/77 76/76/76 78/78/78
f 80/80/80 79/79/79 81/81/81
f 83/83/83 82/82/82 84/84/84
f 86/86/86 85/85/85 87/87/87
f 89/89/89 88/88/88 90/90/90
f 92/92/92 91/91/91 93/93/93
f 95/95/95 94/94/94 96/96/96
f 98/98/98 97/97/97 99/99/99
f 101/101/101 100/100/100 102/102/102
f 104/104/104 103/103/103 105/105/105
f 107/107/107 106/106/106 108/108/108
f 110/110/110 109/109/109 111/111/111
f 113/113/113 112/112/112 114/114/114
f 116/116/116 115/115/115 117/117/117
f 119/119/119 118/118/118 120/120/120
f 122/122/122 121/121/121 123/123/123
f 125/125/125 124/124/124 126/126/126
f 128/128/128 127/127/127 129/129/129
f 131/131/131 130/130/130 132/132/132
f 134/134/134 133/133/133 135/135/135
f 137/137/137 136/136/136 138/138/138
f 140/140/140 139/139/139 141/141/141
f 143/143/143 142/142/142 144/144/144
f 146/146/146 145/145/145 147/147/147
f 149/149/149 148/148/148 150/150/150
f 152/152/152 151/151/151 153/153/153
f 155/155/155 154/154/154 156/156/156
f 158/158/158 157/157/157 159/159/159
f 161/161/161 160/160/160 162/162/162
f 164/164/164 163/163/163 165/165/165
f 167/167/167 166/166/166 168/168/168
f 170/170/170 169/169/169 171/171/171
f 173/173/173 172/172/172 174/174/174
f 176/176/176 175/175/175 177/177/177
f 179/179/179 178/178/178 180/180/180
f 182/182/182 181/181/181 183/183/183
f 185/185/185 184/184/184 186/186/186
f 188/188/188 187/187/187 189/189/189
f 191/191/191 190/190/190 192/192/192
f 194/194/194 193/193/193 195/195/195
f 197/197/197 196/196/196 198/198/198
f 200/200/200 199/199/199 201/201/201
f 203/203/203 202/202/202 204/204/204
f 206/206/206 205/205/205 207/207/207
f 209/209/209 208/208/208 210/210/210
f 212/212/212 211/211/211 213/213/213
f 215/215/215 214/214/214 216/216/216
f 218/218/218 217/217/217 219/219/219
f 221/221/221 220/220/220 222/222/222
f 224/224/224 223/223/223 225/225/225
f 227/227/227 226/226/226 228/228/228
f 230/230/230 229/229/229 231/231/231
f 233/233/233 232/232/232 234/234/234
f 236/236/236 235/235/235 237/237/237
f 239/239/239 238/238/238 240/240/240
