mtllib ./StartGate.mtl
g Cube(Clone)
v 63.45302 0 94.558
v -139.0577 0 94.558
v 63.45302 10 94.558
v -139.0577 10 94.558
v -139.0577 0 94.558
v -139.0577 0 -200
v -139.0577 10 94.558
v -139.0577 10 -200
v -139.0577 0 -200
v 63.45302 0 -200
v -139.0577 10 -200
v 63.45302 10 -200
v 63.45302 0 -200
v 63.45302 0 94.558
v 63.45302 10 -200
v 63.45302 10 94.558
v 63.45302 10 94.558
v -139.0577 10 94.558
v 63.45302 10 -200
v -139.0577 10 -200
v 63.45302 0 -200
v -139.0577 0 -200
v 63.45302 0 94.558
v -139.0577 0 94.558
v -137 3.300003 -190
v -117.9017 62.07853 -190
v -137 3.300003 44.22998
v -117.9017 62.07853 44.22998
v -109.585 56.03609 -190
v -126.72 3.300003 -190
v -109.585 56.03609 44.22998
v -126.72 3.300003 44.22998
v -137 3.300003 44.22998
v -126.72 3.300003 44.22998
v -137 3.300003 -190
v -126.72 3.300003 -190
v -117.9017 62.07853 -190
v -67.9017 98.40565 -190
v -117.9017 62.07853 44.22998
v -67.9017 98.40565 44.22998
v -64.72501 88.6288 -190
v -109.585 56.03609 -190
v -64.72501 88.6288 44.22998
v -109.585 56.03609 44.22998
v -67.9017 98.40565 -190
v -6.098297 98.40565 -190
v -67.9017 98.40565 44.22998
v -6.098297 98.40565 44.22998
v -9.274994 88.6288 -190
v -64.72501 88.6288 -190
v -9.274994 88.6288 44.22998
v -64.72501 88.6288 44.22998
v -6.098297 98.40565 -190
v 43.9017 62.07852 -190
v -6.098297 98.40565 44.22998
v 43.9017 62.07852 44.22998
v 35.58502 56.03609 -190
v -9.274994 88.6288 -190
v 35.58502 56.03609 44.22998
v -9.274994 88.6288 44.22998
v 43.9017 62.07852 -190
v 63 3.299988 -190
v 43.9017 62.07852 44.22998
v 63 3.299988 44.22998
v 52.72 3.299988 -190
v 35.58502 56.03609 -190
v 52.72 3.299988 44.22998
v 35.58502 56.03609 44.22998
v 52.72 3.299988 44.22998
v 63 3.299988 44.22998
v 52.72 3.299988 -190
v 63 3.299988 -190
v -137 3.300003 44.22998
v -117.9017 62.07853 44.22998
v -126.72 3.300003 44.22998
v -109.585 56.03609 44.22998
v -117.9017 62.07853 -190
v -137 3.300003 -190
v -109.585 56.03609 -190
v -126.72 3.300003 -190
v -117.9017 62.07853 44.22998
v -67.9017 98.40565 44.22998
v -109.585 56.03609 44.22998
v -64.72501 88.6288 44.22998
v -67.9017 98.40565 -190
v -117.9017 62.07853 -190
v -64.72501 88.6288 -190
v -109.585 56.03609 -190
v -67.9017 98.40565 44.22998
v -6.098297 98.40565 44.22998
v -64.72501 88.6288 44.22998
v -9.274994 88.6288 44.22998
v -6.098297 98.40565 -190
v -67.9017 98.40565 -190
v -9.274994 88.6288 -190
v -64.72501 88.6288 -190
v -6.098297 98.40565 44.22998
v 43.9017 62.07852 44.22998
v -9.274994 88.6288 44.22998
v 35.58502 56.03609 44.22998
v 43.9017 62.07852 -190
v -6.098297 98.40565 -190
v 35.58502 56.03609 -190
v -9.274994 88.6288 -190
v 43.9017 62.07852 44.22998
v 63 3.299988 44.22998
v 35.58502 56.03609 44.22998
v 52.72 3.299988 44.22998
v 63 3.299988 -190
v 43.9017 62.07852 -190
v 52.72 3.299988 -190
v 35.58502 56.03609 -190

vn 0 0 1
vn 0 0 1
vn 0 0 1
vn 0 0 1
vn -1 0 0
vn -1 0 0
vn -1 0 0
vn -1 0 0
vn 0 0 -1
vn 0 0 -1
vn 0 0 -1
vn 0 0 -1
vn 1 0 0
vn 1 0 0
vn 1 0 0
vn 1 0 0
vn 0 0.9999999 0
vn 0 0.9999999 0
vn 0 0.9999999 0
vn 0 0.9999999 0
vn 0 -0.9999999 0
vn 0 -0.9999999 0
vn 0 -0.9999999 0
vn 0 -0.9999999 0
vn -0.9510565 0.3090169 0
vn -0.9510565 0.3090169 0
vn -0.9510565 0.3090169 0
vn -0.9510565 0.3090169 0
vn 0.9510565 -0.309017 0
vn 0.9510565 -0.309017 0
vn 0.9510565 -0.309017 0
vn 0.9510565 -0.309017 0
vn 0 -1 0
vn 0 -1 0
vn 0 -1 0
vn 0 -1 0
vn -0.5877852 0.809017 0
vn -0.5877852 0.809017 0
vn -0.5877852 0.809017 0
vn -0.5877852 0.809017 0
vn 0.5877854 -0.809017 0
vn 0.5877854 -0.809017 0
vn 0.5877854 -0.809017 0
vn 0.5877854 -0.809017 0
vn 0 1 0
vn 0 1 0
vn 0 1 0
vn 0 1 0
vn 0 -1 0
vn 0 -1 0
vn 0 -1 0
vn 0 -1 0
vn 0.5877853 0.809017 0
vn 0.5877853 0.809017 0
vn 0.5877853 0.809017 0
vn 0.5877853 0.809017 0
vn -0.5877853 -0.809017 0
vn -0.5877853 -0.809017 0
vn -0.5877853 -0.809017 0
vn -0.5877853 -0.809017 0
vn 0.9510566 0.3090169 0
vn 0.9510566 0.3090169 0
vn 0.9510566 0.3090169 0
vn 0.9510566 0.3090169 0
vn -0.9510566 -0.3090167 0
vn -0.9510566 -0.3090167 0
vn -0.9510566 -0.3090167 0
vn -0.9510566 -0.3090167 0
vn 0 -1 0
vn 0 -1 0
vn 0 -1 0
vn 0 -1 0
vn 0 0 1
vn 0 0 1
vn 0 0 1
vn 0 0 1
vn 0 0 -0.9999999
vn 0 0 -1
vn 0 0 -1
vn 0 0 -1
vn 0 0 1
vn 0 0 1
vn 0 0 1
vn 0 0 1
vn 0 0 -1
vn 0 0 -1
vn 0 0 -1
vn 0 0 -1
vn 0 0 1
vn 0 0 1
vn 0 0 1
vn 0 0 1
vn 0 0 -1
vn 0 0 -1
vn 0 0 -1
vn 0 0 -1
vn 0 0 1
vn 0 0 1
vn 0 0 1
vn 0 0 1
vn 0 0 -1
vn 0 0 -1
vn 0 0 -1
vn 0 0 -1
vn 0 0 1
vn 0 0 1
vn 0 0 1
vn 0 0 1
vn 0 0 -1
vn 0 0 -1
vn 0 0 -1
vn 0 0 -1

vt 202.5107 0
vt 0 0
vt 202.5107 10
vt 0 10
vt 294.558 0
vt 0 0
vt 294.558 10
vt 0 10
vt 202.5107 0
vt 0 0
vt 202.5107 10
vt 0 10
vt 294.558 0
vt 0 0
vt 294.558 10
vt 0 10
vt 0 294.558
vt 202.5107 294.558
vt 0 0
vt 202.5107 0
vt 202.5107 0
vt 0 0
vt 202.5107 294.558
vt 0 294.558
vt 0 0
vt 0 61.8034
vt 234.23 0
vt 234.23 61.8034
vt 234.23 55.45001
vt 234.23 1.907349E-06
vt 0 55.45001
vt 0 1.907349E-06
vt 0 234.23
vt 10.28 234.23
vt 0 0
vt 10.28 0
vt 61.8034 0
vt 0 0
vt 61.8034 234.23
vt 0 234.23
vt 55.45001 0
vt -3.814697E-06 0
vt 55.45001 234.23
vt -3.814697E-06 234.23
vt 61.8034 0
vt 0 0
vt 61.8034 234.23
vt 0 234.23
vt 55.45 0
vt 0 0
vt 55.45 234.23
vt 0 234.23
vt 61.8034 0
vt 0 0
vt 61.8034 234.23
vt 0 234.23
vt 55.45004 0
vt 3.814697E-06 0
vt 55.45004 234.23
vt 3.814697E-06 234.23
vt 234.23 61.8034
vt 234.23 0
vt 0 61.8034
vt 0 0
vt 0 0
vt 0 55.45001
vt 234.23 0
vt 234.23 55.45001
vt 0 234.23
vt 10.28 234.23
vt 0 0
vt 10.28 0
vt 0 0
vt 19.0983 58.77853
vt 10.28 0
vt 27.41499 52.73609
vt 8.316696 58.77853
vt 27.41499 0
vt 0 52.73609
vt 17.13499 0
vt 0 6.042439
vt 50.00001 42.36956
vt 8.316696 3.814697E-06
vt 53.1767 32.59271
vt 3.176689 42.36956
vt 53.1767 6.042439
vt 0 32.59271
vt 44.86 3.814697E-06
vt 7.629395E-06 9.776855
vt 61.80341 9.776855
vt 3.176697 0
vt 58.6267 0
vt 0 9.776855
vt 61.8034 9.776855
vt 3.176704 0
vt 58.62671 0
vt 3.176697 42.36957
vt 53.1767 6.042435
vt -7.629395E-06 32.59271
vt 44.86002 3.814697E-06
vt 0 6.042435
vt 50 42.36957
vt 8.316681 3.814697E-06
vt 53.1767 32.59271
vt 8.316681 58.77853
vt 27.41498 -1.907349E-06
vt 0 52.7361
vt 17.13498 0
vt 0 -1.907349E-06
vt 19.0983 58.77853
vt 10.28 0
vt 27.41498 52.7361

g Default_Prototype
usemtl Default_Prototype
usemap Default_Prototype
f 2/2/2 1/1/1 3/3/3
f 4/4/4 2/2/2 3/3/3
f 6/6/6 5/5/5 7/7/7
f 8/8/8 6/6/6 7/7/7
f 10/10/10 9/9/9 11/11/11
f 12/12/12 10/10/10 11/11/11
f 14/14/14 13/13/13 15/15/15
f 16/16/16 14/14/14 15/15/15
f 18/18/18 17/17/17 19/19/19
f 20/20/20 18/18/18 19/19/19
f 22/22/22 21/21/21 23/23/23
f 24/24/24 22/22/22 23/23/23
f 26/26/26 25/25/25 27/27/27
f 28/28/28 26/26/26 27/27/27
f 30/30/30 29/29/29 31/31/31
f 32/32/32 30/30/30 31/31/31
f 34/34/34 33/33/33 35/35/35
f 36/36/36 34/34/34 35/35/35
f 38/38/38 37/37/37 39/39/39
f 40/40/40 38/38/38 39/39/39
f 42/42/42 41/41/41 43/43/43
f 44/44/44 42/42/42 43/43/43
f 46/46/46 45/45/45 47/47/47
f 48/48/48 46/46/46 47/47/47
f 50/50/50 49/49/49 51/51/51
f 52/52/52 50/50/50 51/51/51
f 54/54/54 53/53/53 55/55/55
f 56/56/56 54/54/54 55/55/55
f 58/58/58 57/57/57 59/59/59
f 60/60/60 58/58/58 59/59/59
f 62/62/62 61/61/61 63/63/63
f 64/64/64 62/62/62 63/63/63
f 66/66/66 65/65/65 67/67/67
f 68/68/68 66/66/66 67/67/67
f 70/70/70 69/69/69 71/71/71
f 72/72/72 70/70/70 71/71/71
f 74/74/74 73/73/73 75/75/75
f 76/76/76 74/74/74 75/75/75
f 78/78/78 77/77/77 79/79/79
f 80/80/80 78/78/78 79/79/79
f 82/82/82 81/81/81 83/83/83
f 84/84/84 82/82/82 83/83/83
f 86/86/86 85/85/85 87/87/87
f 88/88/88 86/86/86 87/87/87
f 90/90/90 89/89/89 91/91/91
f 92/92/92 90/90/90 91/91/91
f 94/94/94 93/93/93 95/95/95
f 96/96/96 94/94/94 95/95/95
f 98/98/98 97/97/97 99/99/99
f 100/100/100 98/98/98 99/99/99
f 102/102/102 101/101/101 103/103/103
f 104/104/104 102/102/102 103/103/103
f 106/106/106 105/105/105 107/107/107
f 108/108/108 106/106/106 107/107/107
f 110/110/110 109/109/109 111/111/111
f 112/112/112 110/110/110 111/111/111
