mtllib ./Small.mtl
g Asteroid (3)
v -0.2556534 -0.09005737 0.1511841
v 0.2832859 -0.3506508 0.309017
v -0.4723675 -0.1914598 0.5
v 0.2832859 -0.3506508 0.309017
v 0.3249197 -0.8506508 0.5257311
v -0.02573109 -0.5416338 0.809017
v 0.2832859 -0.3506508 0.309017
v -0.02573109 -0.5416338 0.809017
v -0.4723675 -0.1914598 0.5
v -0.4723675 -0.1914598 0.5
v -0.02573109 -0.5416338 0.809017
v -0.5257311 -0.3249197 0.8506508
v -0.2556534 -0.09005737 0.1511841
v -0.4723675 -0.1914598 0.5
v -0.7813845 0.07542038 0
v -0.4723675 -0.1914598 0.5
v -0.5257311 -0.3249197 0.8506508
v -0.834748 -0.1914598 0.5
v -0.4723675 -0.1914598 0.5
v -0.834748 -0.1914598 0.5
v -0.7813845 0.07542038 0
v -0.7813845 0.07542038 0
v -0.834748 -0.1914598 0.5
v -1.051462 0 0
v -0.2556534 -0.09005737 0.1511841
v -0.7813845 0.07542038 0
v -0.5080426 -0.1662065 -0.5810928
v -0.7813845 0.07542038 0
v -1.051462 0 0
v -1.126077 -0.07614917 -0.7116852
v -0.7813845 0.07542038 0
v -1.126077 -0.07614917 -0.7116852
v -0.5080426 -0.1662065 -0.5810928
v -0.5080426 -0.1662065 -0.5810928
v -1.126077 -0.07614917 -0.7116852
v -0.6742067 -0.5509481 -0.8506508
v -0.2556534 -0.09005737 0.1511841
v -0.5080426 -0.1662065 -0.5810928
v 0.4486378 -0.5849037 -0.2276724
v -0.5080426 -0.1662065 -0.5810928
v -0.6742067 -0.5509481 -0.8506508
v -0.02573109 -0.6858294 -0.8788565
v -0.5080426 -0.1662065 -0.5810928
v -0.02573109 -0.6858294 -0.8788565
v 0.4486378 -0.5849037 -0.2276724
v 0.4486378 -0.5849037 -0.2276724
v -0.02573109 -0.6858294 -0.8788565
v 0.4902716 -0.9948463 -0.3632936
v -0.2556534 -0.09005737 0.1511841
v 0.4486378 -0.5849037 -0.2276724
v 0.2832859 -0.3506508 0.309017
v 0.4486378 -0.5849037 -0.2276724
v 0.4902716 -0.9948463 -0.3632936
v 0.6396208 -0.8506508 0
v 0.4486378 -0.5849037 -0.2276724
v 0.6396208 -0.8506508 0
v 0.2832859 -0.3506508 0.309017
v 0.2832859 -0.3506508 0.309017
v 0.6396208 -0.8506508 0
v 0.3249197 -0.8506508 0.5257311
v -1.051462 0 0
v -0.834748 -0.1914598 0.5
v -1.334748 -0.3506508 0.309017
v -0.834748 -0.1914598 0.5
v -0.5257311 -0.3249197 0.8506508
v -1.025731 -0.5416338 0.809017
v -0.834748 -0.1914598 0.5
v -1.025731 -0.5416338 0.809017
v -1.334748 -0.3506508 0.309017
v -1.334748 -0.3506508 0.309017
v -1.025731 -0.5416338 0.809017
v -1.376382 -0.8506508 0.5257311
v -0.5257311 -0.3249197 0.8506508
v -0.02573109 -0.5416338 0.809017
v -0.5257311 -0.8506508 1
v -0.02573109 -0.5416338 0.809017
v 0.3249197 -0.8506508 0.5257311
v -0.02573109 -1.159668 0.809017
v -0.02573109 -0.5416338 0.809017
v -0.02573109 -1.159668 0.809017
v -0.5257311 -0.8506508 1
v -0.5257311 -0.8506508 1
v -0.02573109 -1.159668 0.809017
v -0.5781069 -1.318109 0.8506508
v 0.3249197 -0.8506508 0.5257311
v 0.6396208 -0.8506508 0
v 0.2832859 -1.350651 0.309017
v 0.6396208 -0.8506508 0
v 0.4902716 -0.9948463 -0.3632936
v 0.2832859 -1.350651 -0.309017
v 0.6396208 -0.8506508 0
v 0.2832859 -1.350651 -0.309017
v 0.2832859 -1.350651 0.309017
v 0.2832859 -1.350651 0.309017
v 0.2832859 -1.350651 -0.309017
v 0 -1.701302 0
v 0.4902716 -0.9948463 -0.3632936
v -0.02573109 -0.6858294 -0.8788565
v -0.02573109 -1.159668 -0.809017
v -0.02573109 -0.6858294 -0.8788565
v -0.6742067 -0.5509481 -0.8506508
v -0.3828783 -0.9662666 -1
v -0.02573109 -0.6858294 -0.8788565
v -0.3828783 -0.9662666 -1
v -0.02573109 -1.159668 -0.809017
v -0.02573109 -1.159668 -0.809017
v -0.3828783 -0.9662666 -1
v -0.5257311 -1.376382 -0.8506508
v -0.6742067 -0.5509481 -0.8506508
v -1.126077 -0.07614917 -0.7116852
v -0.8828783 -0.6572497 -1.020702
v -1.126077 -0.07614917 -0.7116852
v -1.051462 0 0
v -1.334748 -0.3506508 -0.5207021
v -1.126077 -0.07614917 -0.7116852
v -1.334748 -0.3506508 -0.5207021
v -0.8828783 -0.6572497 -1.020702
v -1.376382 -0.8506508 -0.5257311
v -1.051462 -1.701302 0
v -1.571931 -1.350651 0.309017
v -1.124306 -1.601394 0.5
v -1.571931 -1.350651 0.309017
v -1.376382 -0.8506508 0.5257311
v -1.315289 -1.101394 0.809017
v -1.571931 -1.350651 0.309017
v -1.315289 -1.101394 0.809017
v -1.124306 -1.601394 0.5
v -1.124306 -1.601394 0.5
v -1.315289 -1.101394 0.809017
v -0.5781069 -1.318109 0.8506508
v -1.051462 -1.701302 0
v -1.124306 -1.601394 0.5
v -0.5257311 -1.850651 0
v -1.124306 -1.601394 0.5
v -0.5781069 -1.318109 0.8506508
v -0.2167141 -1.659668 0.5
v -1.124306 -1.601394 0.5
v -0.2167141 -1.659668 0.5
v -0.5257311 -1.850651 0
v -0.5257311 -1.850651 0
v -0.2167141 -1.659668 0.5
v 0 -1.701302 0
v -1.051462 -1.701302 0
v -0.5257311 -1.850651 0
v -0.834748 -1.659668 -0.5
v -0.5257311 -1.850651 0
v 0 -1.701302 0
v -0.2167141 -1.659668 -0.5
v -0.5257311 -1.850651 0
v -0.2167141 -1.659668 -0.5
v -0.834748 -1.659668 -0.5
v -0.834748 -1.659668 -0.5
v -0.2167141 -1.659668 -0.5
v -0.5257311 -1.376382 -0.8506508
v -1.051462 -1.701302 0
v -0.834748 -1.659668 -0.5
v -1.334748 -1.350651 -0.309017
v -0.834748 -1.659668 -0.5
v -0.5257311 -1.376382 -0.8506508
v -1.025731 -1.159668 -0.809017
v -0.834748 -1.659668 -0.5
v -1.025731 -1.159668 -0.809017
v -1.334748 -1.350651 -0.309017
v -1.334748 -1.350651 -0.309017
v -1.025731 -1.159668 -0.809017
v -1.376382 -0.8506508 -0.5257311
v -1.051462 -1.701302 0
v -1.334748 -1.350651 -0.309017
v -1.571931 -1.350651 0.309017
v -1.334748 -1.350651 -0.309017
v -1.376382 -0.8506508 -0.5257311
v -1.525731 -0.8506508 0
v -1.334748 -1.350651 -0.309017
v -1.525731 -0.8506508 0
v -1.571931 -1.350651 0.309017
v -1.571931 -1.350651 0.309017
v -1.525731 -0.8506508 0
v -1.376382 -0.8506508 0.5257311
v -0.5781069 -1.318109 0.8506508
v -1.315289 -1.101394 0.809017
v -0.5257311 -0.8506508 1
v -1.315289 -1.101394 0.809017
v -1.376382 -0.8506508 0.5257311
v -1.025731 -0.5416338 0.809017
v -1.315289 -1.101394 0.809017
v -1.025731 -0.5416338 0.809017
v -0.5257311 -0.8506508 1
v -0.5257311 -0.8506508 1
v -1.025731 -0.5416338 0.809017
v -0.5257311 -0.3249197 0.8506508
v 0 -1.701302 0
v -0.2167141 -1.659668 0.5
v 0.2832859 -1.350651 0.309017
v -0.2167141 -1.659668 0.5
v -0.5781069 -1.318109 0.8506508
v -0.02573109 -1.159668 0.809017
v -0.2167141 -1.659668 0.5
v -0.02573109 -1.159668 0.809017
v 0.2832859 -1.350651 0.309017
v 0.2832859 -1.350651 0.309017
v -0.02573109 -1.159668 0.809017
v 0.3249197 -0.8506508 0.5257311
v -0.5257311 -1.376382 -0.8506508
v -0.2167141 -1.659668 -0.5
v -0.02573109 -1.159668 -0.809017
v -0.2167141 -1.659668 -0.5
v 0 -1.701302 0
v 0.2832859 -1.350651 -0.309017
v -0.2167141 -1.659668 -0.5
v 0.2832859 -1.350651 -0.309017
v -0.02573109 -1.159668 -0.809017
v -0.02573109 -1.159668 -0.809017
v 0.2832859 -1.350651 -0.309017
v 0.4902716 -0.9948463 -0.3632936
v -1.376382 -0.8506508 -0.5257311
v -1.025731 -1.159668 -0.809017
v -0.8828783 -0.6572497 -1.020702
v -1.025731 -1.159668 -0.809017
v -0.5257311 -1.376382 -0.8506508
v -0.3828783 -0.9662666 -1
v -1.025731 -1.159668 -0.809017
v -0.3828783 -0.9662666 -1
v -0.8828783 -0.6572497 -1.020702
v -0.8828783 -0.6572497 -1.020702
v -0.3828783 -0.9662666 -1
v -0.6742067 -0.5509481 -0.8506508
v -1.376382 -0.8506508 0.5257311
v -1.525731 -0.8506508 0
v -1.334748 -0.3506508 0.309017
v -1.525731 -0.8506508 0
v -1.376382 -0.8506508 -0.5257311
v -1.334748 -0.3506508 -0.5207021
v -1.525731 -0.8506508 0
v -1.334748 -0.3506508 -0.5207021
v -1.334748 -0.3506508 0.309017
v -1.334748 -0.3506508 0.309017
v -1.334748 -0.3506508 -0.5207021
v -1.051462 0 0

vn 0.288636 0.8563187 0.4282612
vn 0.288636 0.8563187 0.4282612
vn 0.288636 0.8563187 0.4282612
vn 0.7487835 0.3150939 0.5831288
vn 0.7487835 0.3150939 0.5831288
vn 0.7487835 0.3150939 0.5831288
vn 0.2971685 0.8162331 0.4954336
vn 0.2971685 0.8162331 0.4954336
vn 0.2971685 0.8162331 0.4954336
vn 0.3944283 0.8372672 0.378695
vn 0.3944283 0.8372672 0.378695
vn 0.3944283 0.8372672 0.378695
vn 0.1783899 0.909594 0.3752543
vn 0.1783899 0.909594 0.3752543
vn 0.1783899 0.909594 0.3752543
vn 0 0.9345953 0.3557127
vn 0 0.9345953 0.3557127
vn 0 0.9345953 0.3557127
vn 0 0.8821964 0.4708815
vn 0 0.8821964 0.4708815
vn 0 0.8821964 0.4708815
vn -0.2419665 0.8664734 0.4366648
vn -0.2419665 0.8664734 0.4366648
vn -0.2419665 0.8664734 0.4366648
vn 0.3489572 0.9121134 -0.2151231
vn 0.3489572 0.9121134 -0.2151231
vn 0.3489572 0.9121134 -0.2151231
vn -0.2682135 0.9604631 -0.07464794
vn -0.2682135 0.9604631 -0.07464794
vn -0.2682135 0.9604631 -0.07464794
vn 0.1985603 0.9345728 -0.2952077
vn 0.1985603 0.9345728 -0.2952077
vn 0.1985603 0.9345728 -0.2952077
vn 0.2478093 0.4818389 -0.8404891
vn 0.2478093 0.4818389 -0.8404891
vn 0.2478093 0.4818389 -0.8404891
vn 0.4639053 0.8503697 -0.2483208
vn 0.4639053 0.8503697 -0.2483208
vn 0.4639053 0.8503697 -0.2483208
vn 0.0780481 0.5492243 -0.8320224
vn 0.0780481 0.5492243 -0.8320224
vn 0.0780481 0.5492243 -0.8320224
vn 0.4940177 0.729564 -0.4729513
vn 0.4940177 0.729564 -0.4729513
vn 0.4940177 0.729564 -0.4729513
vn 0.7568571 0.2732815 -0.593704
vn 0.7568571 0.2732815 -0.593704
vn 0.7568571 0.2732815 -0.593704
vn 0.4766611 0.8500273 -0.2241605
vn 0.4766611 0.8500273 -0.2241605
vn 0.4766611 0.8500273 -0.2241605
vn 0.8623202 0.2358216 -0.4480983
vn 0.8623202 0.2358216 -0.4480983
vn 0.8623202 0.2358216 -0.4480983
vn 0.8133841 0.5817177 -0.003306363
vn 0.8133841 0.5817177 -0.003306363
vn 0.8133841 0.5817177 -0.003306363
vn 0.8231713 0.2821143 0.4927479
vn 0.8231713 0.2821143 0.4927479
vn 0.8231713 0.2821143 0.4927479
vn -0.4270984 0.7670174 0.4788226
vn -0.4270984 0.7670174 0.4788226
vn -0.4270984 0.7670174 0.4788226
vn -0.3613873 0.7199604 0.5925
vn -0.3613873 0.7199604 0.5925
vn -0.3613873 0.7199604 0.5925
vn -0.4359707 0.7173516 0.5434486
vn -0.4359707 0.7173516 0.5434486
vn -0.4359707 0.7173516 0.5434486
vn -0.7487835 0.3150939 0.5831288
vn -0.7487835 0.3150939 0.5831288
vn -0.7487835 0.3150939 0.5831288
vn 0.1947387 0.2680349 0.9435222
vn 0.1947387 0.2680349 0.9435222
vn 0.1947387 0.2680349 0.9435222
vn 0.6284284 0 0.7778675
vn 0.6284284 0 0.7778675
vn 0.6284284 0 0.7778675
vn 0.3568221 0 0.9341724
vn 0.3568221 0 0.9341724
vn 0.3568221 0 0.9341724
vn 0.1612932 -0.3167046 0.9347098
vn 0.1612932 -0.3167046 0.9347098
vn 0.1612932 -0.3167046 0.9347098
vn 0.8231713 -0.2821143 0.4927479
vn 0.8231713 -0.2821143 0.4927479
vn 0.8231713 -0.2821143 0.4927479
vn 0.8457226 -0.5139111 -0.1436973
vn 0.8457226 -0.5139111 -0.1436973
vn 0.8457226 -0.5139111 -0.1436973
vn 0.8143554 -0.5803665 0
vn 0.8143554 -0.5803665 0
vn 0.8143554 -0.5803665 0
vn 0.7778674 -0.6284283 0
vn 0.7778674 -0.6284283 0
vn 0.7778674 -0.6284283 0
vn 0.6694343 -0.1083223 -0.7349313
vn 0.6694343 -0.1083223 -0.7349313
vn 0.6694343 -0.1083223 -0.7349313
vn 0.03417714 0.3593324 -0.9325835
vn 0.03417714 0.3593324 -0.9325835
vn 0.03417714 0.3593324 -0.9325835
vn 0.4104169 -0.1329689 -0.9021515
vn 0.4104169 -0.1329689 -0.9021515
vn 0.4104169 -0.1329689 -0.9021515
vn 0.2495387 -0.4069182 -0.8787195
vn 0.2495387 -0.4069182 -0.8787195
vn 0.2495387 -0.4069182 -0.8787195
vn 0.3420484 0.5487841 -0.7627836
vn 0.3420484 0.5487841 -0.7627836
vn 0.3420484 0.5487841 -0.7627836
vn -0.7901431 0.6126786 0.01728459
vn -0.7901431 0.6126786 0.01728459
vn -0.7901431 0.6126786 0.01728459
vn -0.7197202 0.06629533 -0.6910917
vn -0.7195125 0.06686473 -0.6912531
vn -0.7195125 0.06686473 -0.6912531
vn -0.7195125 0.06686473 -0.6912531
vn -0.5169603 -0.8507573 0.09467831
vn -0.5169603 -0.8507573 0.09467831
vn -0.5169603 -0.8507573 0.09467831
vn -0.9086606 0.1954564 0.3689619
vn -0.9086606 0.1954564 0.3689619
vn -0.9086606 0.1954564 0.3689619
vn -0.5720764 -0.5781037 0.5818288
vn -0.5720764 -0.5781037 0.5818288
vn -0.5720764 -0.5781037 0.5818288
vn -0.2126933 -0.5712025 0.7927733
vn -0.2126933 -0.5712025 0.7927733
vn -0.2126933 -0.5712025 0.7927733
vn -0.2701475 -0.9509587 0.1506578
vn -0.2701475 -0.9509587 0.1506578
vn -0.2701475 -0.9509587 0.1506578
vn -0.04748354 -0.7395442 0.6714312
vn -0.04748354 -0.7395442 0.6714312
vn -0.04748354 -0.7395442 0.6714312
vn -0.0590591 -0.9198307 0.3878447
vn -0.0590591 -0.9198307 0.3878447
vn -0.0590591 -0.9198307 0.3878447
vn 0.2680349 -0.9435221 0.1947388
vn 0.2680349 -0.9435221 0.1947388
vn 0.2680349 -0.9435221 0.1947388
vn -0.2680349 -0.9435221 -0.1947388
vn -0.2680349 -0.9435221 -0.1947388
vn -0.2680349 -0.9435221 -0.1947388
vn 0.2680349 -0.9435221 -0.1947388
vn 0.2680349 -0.9435221 -0.1947388
vn 0.2680349 -0.9435221 -0.1947388
vn 0 -0.9341724 -0.3568222
vn 0 -0.9341724 -0.3568222
vn 0 -0.9341724 -0.3568222
vn 0 -0.7778676 -0.6284283
vn 0 -0.7778676 -0.6284283
vn 0 -0.7778676 -0.6284283
vn -0.5831287 -0.7487833 -0.3150939
vn -0.5831287 -0.7487833 -0.3150939
vn -0.5831287 -0.7487833 -0.3150939
vn -0.3150939 -0.5831288 -0.7487834
vn -0.3150939 -0.5831288 -0.7487834
vn -0.3150939 -0.5831288 -0.7487834
vn -0.5773502 -0.5773503 -0.5773502
vn -0.5773502 -0.5773503 -0.5773502
vn -0.5773502 -0.5773503 -0.5773502
vn -0.7487835 -0.3150939 -0.5831288
vn -0.7487835 -0.3150939 -0.5831288
vn -0.7487835 -0.3150939 -0.5831288
vn -0.637473 -0.7306011 -0.2446428
vn -0.637473 -0.7306011 -0.2446428
vn -0.637473 -0.7306011 -0.2446428
vn -0.9435221 -0.1947388 -0.2680349
vn -0.9435221 -0.1947388 -0.2680349
vn -0.9435221 -0.1947388 -0.2680349
vn -0.9251959 -0.1339531 -0.355062
vn -0.9251959 -0.1339531 -0.355062
vn -0.9251959 -0.1339531 -0.355062
vn -0.9314894 0.2496109 0.2646167
vn -0.9314894 0.2496109 0.2646167
vn -0.9314894 0.2496109 0.2646167
vn -0.1380076 -0.2873609 0.9478278
vn -0.1380076 -0.2873609 0.9478278
vn -0.1380076 -0.2873609 0.9478278
vn -0.7622222 0.3942898 0.513374
vn -0.7622222 0.3942898 0.513374
vn -0.7622222 0.3942898 0.513374
vn -0.275191 0.1423535 0.9507921
vn -0.275191 0.1423535 0.9507921
vn -0.275191 0.1423535 0.9507921
vn -0.1947387 0.2680349 0.9435222
vn -0.1947387 0.2680349 0.9435222
vn -0.1947387 0.2680349 0.9435222
vn 0.5831287 -0.7487834 0.3150939
vn 0.5831287 -0.7487834 0.3150939
vn 0.5831287 -0.7487834 0.3150939
vn 0.2237391 -0.572816 0.7885573
vn 0.2237391 -0.572816 0.7885573
vn 0.2237391 -0.572816 0.7885573
vn 0.5773502 -0.5773503 0.5773503
vn 0.5773502 -0.5773503 0.5773503
vn 0.5773502 -0.5773503 0.5773503
vn 0.7487835 -0.3150939 0.5831288
vn 0.7487835 -0.3150939 0.5831288
vn 0.7487835 -0.3150939 0.5831288
vn 0.3150938 -0.5831288 -0.7487833
vn 0.3150938 -0.5831288 -0.7487833
vn 0.3150938 -0.5831288 -0.7487833
vn 0.5831287 -0.7487833 -0.3150939
vn 0.5831287 -0.7487833 -0.3150939
vn 0.5831287 -0.7487833 -0.3150939
vn 0.5773502 -0.5773503 -0.5773503
vn 0.5773502 -0.5773503 -0.5773503
vn 0.5773502 -0.5773503 -0.5773503
vn 0.6577565 -0.4721677 -0.5868679
vn 0.6577565 -0.4721677 -0.5868679
vn 0.6577565 -0.4721677 -0.5868679
vn -0.6818143 -0.110799 -0.7230856
vn -0.6818143 -0.110799 -0.7230856
vn -0.6818143 -0.110799 -0.7230856
vn -0.1971781 -0.2740955 -0.9412717
vn -0.1971781 -0.2740955 -0.9412717
vn -0.1971781 -0.2740955 -0.9412717
vn -0.1721709 -0.3405035 -0.9243456
vn -0.1721709 -0.3405035 -0.9243456
vn -0.1721709 -0.3405035 -0.9243456
vn 0.3583016 0.5281699 -0.7698418
vn 0.3583016 0.5281699 -0.7698418
vn 0.3583016 0.5281699 -0.7698418
vn -0.9435221 0.1947388 0.2680349
vn -0.9435221 0.1947388 0.2680349
vn -0.9435221 0.1947388 0.2680349
vn -0.958654 0.082564 -0.2723336
vn -0.958654 0.082564 -0.2723336
vn -0.958654 0.082564 -0.2723336
vn -0.9341723 0.3568222 0
vn -0.9341723 0.3568222 0
vn -0.9341723 0.3568222 0
vn -0.7778676 0.6284283 0
vn -0.7778676 0.6284283 0
vn -0.7778676 0.6284283 0

vt -0.5257311 0
vt -0.809017 0.309017
vt -0.309017 0.5
vt -0.309017 0.5
vt -0.5257311 0
vt -0.809017 0.309017
vt 0.809017 0.5
vt 0.5 0.309017
vt 0.309017 0.809017
vt 0.309017 0.809017
vt 0.5 0.309017
vt 0 0.5257311
vt -0.5257311 0
vt -0.309017 0.5
vt 0 0
vt -0.309017 0.5
vt 0 0.8506508
vt 0.309017 0.5
vt -0.309017 0.5
vt 0.309017 0.5
vt 0 0
vt 0 0
vt 0.309017 0.5
vt 0.5257311 0
vt -0.5257311 0
vt 0 0
vt -0.309017 -0.5
vt 0 0
vt 0.5257311 0
vt 0.309017 -0.5
vt 0 0
vt 0.309017 -0.5
vt -0.309017 -0.5
vt -0.309017 -0.5
vt 0.309017 -0.5
vt 0 -0.8506508
vt -0.5257311 0
vt -0.309017 -0.5
vt -0.809017 -0.309017
vt -0.309017 0.809017
vt 0 0.5257311
vt -0.5 0.309017
vt 0.5 0.809017
vt 0.809017 0.309017
vt 0.309017 0.5
vt 0.309017 0.5
vt 0.809017 0.309017
vt 0.5257311 0
vt 0 0.8506508
vt 0.309017 0.5
vt -0.309017 0.5
vt 0.309017 0.5
vt 0.5257311 0
vt 0 0
vt 0.309017 0.5
vt 0 0
vt -0.309017 0.5
vt -0.309017 0.5
vt 0 0
vt -0.5257311 0
vt 0.5257311 0
vt 0.309017 0.5
vt 0.809017 0.309017
vt -0.309017 0.809017
vt 0 0.5257311
vt -0.5 0.309017
vt 0.5 0.809017
vt 0.809017 0.309017
vt 0.309017 0.5
vt 0.309017 0.5
vt 0.809017 0.309017
vt 0.5257311 0
vt 0 0.5257311
vt 0.5 0.309017
vt 0 0
vt 0.5 0.309017
vt 0.8506508 0
vt 0.5 -0.309017
vt 0.5 0.309017
vt 0.5 -0.309017
vt 0 0
vt 0 0
vt 0.5 -0.309017
vt 0 -0.5257311
vt -0.5257311 0
vt 0 0
vt -0.309017 -0.5
vt 0 0
vt 0.5257311 0
vt 0.309017 -0.5
vt 0 0
vt 0.309017 -0.5
vt -0.309017 -0.5
vt -0.309017 -0.5
vt 0.309017 -0.5
vt 0 -0.8506508
vt -0.8506508 0
vt -0.5 0.309017
vt -0.5 -0.309017
vt -0.5 0.309017
vt 0 0.5257311
vt 0 0
vt -0.5 0.309017
vt 0 0
vt -0.5 -0.309017
vt -0.5 -0.309017
vt 0 0
vt 0 -0.5257311
vt 0 0.5257311
vt 0.309017 0.809017
vt 0.5 0.309017
vt 0.309017 -0.5
vt 0.5257311 0
vt 0.809017 -0.309017
vt -0.5 0.809017
vt -0.309017 0.5
vt -0.809017 0.309017
vt -0.5257311 0
vt -0.5257311 0
vt -0.809017 0.309017
vt -0.309017 0.5
vt 0.309017 -0.5
vt 0.5257311 0
vt 0.809017 -0.309017
vt -0.809017 -0.5
vt -0.5 -0.309017
vt -0.309017 -0.809017
vt -0.3203337 -0.5543919
vt -0.5113167 -0.05439189
vt -0.01131672 -0.271106
vt -0.5257311 0
vt -0.309017 0.5
vt 0 0
vt -0.309017 0.5
vt 0 0.8506508
vt 0.309017 0.5
vt -0.309017 0.5
vt 0.309017 0.5
vt 0 0
vt 0 0
vt 0.309017 0.5
vt 0.5257311 0
vt -0.5257311 0
vt 0 0
vt -0.309017 -0.5
vt 0 0
vt 0.5257311 0
vt 0.309017 -0.5
vt 0 0
vt 0.309017 -0.5
vt -0.309017 -0.5
vt -0.309017 -0.5
vt 0.309017 -0.5
vt 0 -0.8506508
vt -0.5257311 0
vt -0.309017 -0.5
vt -0.809017 -0.309017
vt 0.309017 -0.809017
vt 0 -0.5257311
vt 0.5 -0.309017
vt -0.5 -0.809017
vt -0.809017 -0.309017
vt -0.309017 -0.5
vt -0.309017 -0.5
vt -0.809017 -0.309017
vt -0.5257311 0
vt 0 -0.8506508
vt -0.309017 -0.5
vt 0.309017 -0.5
vt -0.309017 -0.5
vt -0.5257311 0
vt 0 0
vt -0.309017 -0.5
vt 0 0
vt 0.309017 -0.5
vt 0.309017 -0.5
vt 0 0
vt 0.5257311 0
vt 0 -0.5257311
vt -0.5 -0.309017
vt 0 0
vt -0.5 -0.309017
vt -0.8506508 0
vt -0.5 0.309017
vt -0.5 -0.309017
vt -0.5 0.309017
vt 0 0
vt 0 0
vt -0.5 0.309017
vt 0 0.5257311
vt 0.5257311 0
vt 0.309017 0.5
vt 0.809017 0.309017
vt 0.309017 -0.809017
vt 0 -0.5257311
vt 0.5 -0.309017
vt -0.5 -0.809017
vt -0.809017 -0.309017
vt -0.309017 -0.5
vt -0.309017 -0.5
vt -0.809017 -0.309017
vt -0.5257311 0
vt 0 -0.5257311
vt -0.309017 -0.809017
vt -0.5 -0.309017
vt 0.309017 -0.5
vt 0.5257311 0
vt 0.809017 -0.309017
vt 0.5 -0.809017
vt 0.309017 -0.5
vt 0.809017 -0.309017
vt 0.809017 -0.309017
vt 0.309017 -0.5
vt 0.5257311 0
vt 0.8506508 0
vt 0.5 -0.309017
vt 0.5 0.309017
vt 0.5 -0.309017
vt 0 -0.5257311
vt 0 0
vt 0.5 -0.309017
vt 0 0
vt 0.5 0.309017
vt 0.5 0.309017
vt 0 0
vt 0 0.5257311
vt 0.5257311 0
vt 0 0
vt 0.309017 0.5
vt 0 0
vt -0.5257311 0
vt -0.309017 0.5
vt 0 0
vt -0.309017 0.5
vt 0.309017 0.5
vt 0.309017 0.5
vt -0.309017 0.5
vt 0 0.8506508

g asteroid 2
usemtl asteroid 2
usemap asteroid 2
f 2/2/2 1/1/1 3/3/3
f 5/5/5 4/4/4 6/6/6
f 8/8/8 7/7/7 9/9/9
f 11/11/11 10/10/10 12/12/12
f 14/14/14 13/13/13 15/15/15
f 17/17/17 16/16/16 18/18/18
f 20/20/20 19/19/19 21/21/21
f 23/23/23 22/22/22 24/24/24
f 26/26/26 25/25/25 27/27/27
f 29/29/29 28/28/28 30/30/30
f 32/32/32 31/31/31 33/33/33
f 35/35/35 34/34/34 36/36/36
f 38/38/38 37/37/37 39/39/39
f 41/41/41 40/40/40 42/42/42
f 44/44/44 43/43/43 45/45/45
f 47/47/47 46/46/46 48/48/48
f 50/50/50 49/49/49 51/51/51
f 53/53/53 52/52/52 54/54/54
f 56/56/56 55/55/55 57/57/57
f 59/59/59 58/58/58 60/60/60
f 62/62/62 61/61/61 63/63/63
f 65/65/65 64/64/64 66/66/66
f 68/68/68 67/67/67 69/69/69
f 71/71/71 70/70/70 72/72/72
f 74/74/74 73/73/73 75/75/75
f 77/77/77 76/76/76 78/78/78
f 80/80/80 79/79/79 81/81/81
f 83/83/83 82/82/82 84/84/84
f 86/86/86 85/85/85 87/87/87
f 89/89/89 88/88/88 90/90/90
f 92/92/92 91/91/91 93/93/93
f 95/95/95 94/94/94 96/96/96
f 98/98/98 97/97/97 99/99/99
f 101/101/101 100/100/100 102/102/102
f 104/104/104 103/103/103 105/105/105
f 107/107/107 106/106/106 108/108/108
f 110/110/110 109/109/109 111/111/111
f 113/113/113 112/112/112 114/114/114
f 116/116/116 115/115/115 117/117/117
f 116/116/116 117/117/117 118/118/118
f 120/120/120 119/119/119 121/121/121
f 123/123/123 122/122/122 124/124/124
f 126/126/126 125/125/125 127/127/127
f 129/129/129 128/128/128 130/130/130
f 132/132/132 131/131/131 133/133/133
f 135/135/135 134/134/134 136/136/136
f 138/138/138 137/137/137 139/139/139
f 141/141/141 140/140/140 142/142/142
f 144/144/144 143/143/143 145/145/145
f 147/147/147 146/146/146 148/148/148
f 150/150/150 149/149/149 151/151/151
f 153/153/153 152/152/152 154/154/154
f 156/156/156 155/155/155 157/157/157
f 159/159/159 158/158/158 160/160/160
f 162/162/162 161/161/161 163/163/163
f 165/165/165 164/164/164 166/166/166
f 168/168/168 167/167/167 169/169/169
f 171/171/171 170/170/170 172/172/172
f 174/174/174 173/173/173 175/175/175
f 177/177/177 176/176/176 178/178/178
f 180/180/180 179/179/179 181/181/181
f 183/183/183 182/182/182 184/184/184
f 186/186/186 185/185/185 187/187/187
f 189/189/189 188/188/188 190/190/190
f 192/192/192 191/191/191 193/193/193
f 195/195/195 194/194/194 196/196/196
f 198/198/198 197/197/197 199/199/199
f 201/201/201 200/200/200 202/202/202
f 204/204/204 203/203/203 205/205/205
f 207/207/207 206/206/206 208/208/208
f 210/210/210 209/209/209 211/211/211
f 213/213/213 212/212/212 214/214/214
f 216/216/216 215/215/215 217/217/217
f 219/219/219 218/218/218 220/220/220
f 222/222/222 221/221/221 223/223/223
f 225/225/225 224/224/224 226/226/226
f 228/228/228 227/227/227 229/229/229
f 231/231/231 230/230/230 232/232/232
f 234/234/234 233/233/233 235/235/235
f 237/237/237 236/236/236 238/238/238
