mtllib ./bigast.mtl
g Icosphere
v -0.01420267 0.4045319 0
v 0.5389487 -0.6787756 -0.4031656
v -0.2558137 0.4165264 0.5288999
v 0.5389487 -0.6787756 -0.4031656
v 0.5805826 -1.199847 0.2253202
v 0.2299317 -0.5195256 0.537506
v 0.5389487 -0.6787756 -0.4031656
v 0.2299317 -0.5195256 0.537506
v -0.2558137 0.4165264 0.5288999
v -0.2558137 0.4165264 0.5288999
v 0.2299317 -0.5195256 0.537506
v -0.9070446 -0.1714558 0.9472511
v -0.01420267 0.4045319 0
v -0.2558137 0.4165264 0.5288999
v -0.6134806 0.5817067 0
v -0.2558137 0.4165264 0.5288999
v -0.9070446 -0.1714558 0.9472511
v -1.255161 0.001130021 0.5
v -0.2558137 0.4165264 0.5288999
v -1.255161 0.001130021 0.5
v -0.6134806 0.5817067 0
v -0.6134806 0.5817067 0
v -1.255161 0.001130021 0.5
v -1.171971 0.1579399 0
v -0.01420267 0.4045319 0
v -0.6134806 0.5817067 0
v -0.2653643 0.3038684 -1.452604
v -0.6134806 0.5817067 0
v -1.171971 0.1579399 0
v -0.9811933 0.4830459 -0.7452955
v -0.6134806 0.5817067 0
v -0.9811933 0.4830459 -0.7452955
v -0.2653643 0.3038684 -1.452604
v -0.2653643 0.3038684 -1.452604
v -0.9811933 0.4830459 -0.7452955
v -0.5257311 -0.3249197 -1.803255
v -0.01420267 0.4045319 0
v -0.2653643 0.3038684 -1.452604
v 0.2832859 -0.2570839 -0.6695517
v -0.2653643 0.3038684 -1.452604
v -0.5257311 -0.3249197 -1.803255
v -0.02573109 -0.6351998 -1.87686
v -0.2653643 0.3038684 -1.452604
v -0.02573109 -0.6351998 -1.87686
v 0.2832859 -0.2570839 -0.6695517
v 0.2832859 -0.2570839 -0.6695517
v -0.02573109 -0.6351998 -1.87686
v 0.3249197 -0.9442168 -0.8862659
v -0.01420267 0.4045319 0
v 0.2832859 -0.2570839 -0.6695517
v 0.5389487 -0.6787756 -0.4031656
v 0.2832859 -0.2570839 -0.6695517
v 0.3249197 -0.9442168 -0.8862659
v 0.4742689 -1.062982 -0.2276065
v 0.2832859 -0.2570839 -0.6695517
v 0.4742689 -1.062982 -0.2276065
v 0.5389487 -0.6787756 -0.4031656
v 0.5389487 -0.6787756 -0.4031656
v 0.4742689 -1.062982 -0.2276065
v 0.5805826 -1.199847 0.2253202
v -1.171971 0.1579399 0
v -1.255161 0.001130021 0.5
v -2.159219 -0.2826612 0.2937752
v -1.255161 0.001130021 0.5
v -0.9070446 -0.1714558 0.9472511
v -1.559964 -0.5969734 1.005057
v -1.255161 0.001130021 0.5
v -1.559964 -0.5969734 1.005057
v -2.159219 -0.2826612 0.2937752
v -2.159219 -0.2826612 0.2937752
v -1.559964 -0.5969734 1.005057
v -1.585921 -0.8506508 0.5104892
v -0.9070446 -0.1714558 0.9472511
v 0.2299317 -0.5195256 0.537506
v -0.5257311 -0.8540144 1.19604
v 0.2299317 -0.5195256 0.537506
v 0.5805826 -1.199847 0.2253202
v -0.02573109 -1.159668 0.809017
v 0.2299317 -0.5195256 0.537506
v -0.02573109 -1.159668 0.809017
v -0.5257311 -0.8540144 1.19604
v -0.5257311 -0.8540144 1.19604
v -0.02573109 -1.159668 0.809017
v -0.5817373 -1.376382 1.022563
v 0.5805826 -1.199847 0.2253202
v 0.4742689 -1.062982 -0.2276065
v 0.2832859 -1.570027 0.08141045
v 0.4742689 -1.062982 -0.2276065
v 0.3249197 -0.9442168 -0.8862659
v 0.2832859 -1.562983 -0.5366236
v 0.4742689 -1.062982 -0.2276065
v 0.2832859 -1.562983 -0.5366236
v 0.2832859 -1.570027 0.08141045
v 0.2832859 -1.570027 0.08141045
v 0.2832859 -1.562983 -0.5366236
v 0 -1.701302 0
v 0.3249197 -0.9442168 -0.8862659
v -0.02573109 -0.6351998 -1.87686
v 0.1089021 -1.018446 -1.530102
v -0.02573109 -0.6351998 -1.87686
v -0.5257311 -0.3249197 -1.803255
v -0.7814921 -0.8931744 -1.815019
v -0.02573109 -0.6351998 -1.87686
v -0.7814921 -0.8931744 -1.815019
v 0.1089021 -1.018446 -1.530102
v 0.1089021 -1.018446 -1.530102
v -0.7814921 -0.8931744 -1.815019
v -0.3910979 -1.255789 -1.158808
v -0.5257311 -0.3249197 -1.803255
v -0.9811933 0.4830459 -0.7452955
v -1.528445 0.1900706 -0.9093652
v -0.9811933 0.4830459 -0.7452955
v -1.171971 0.1579399 0
v -1.908758 0.5965599 -0.4329756
v -0.9811933 0.4830459 -0.7452955
v -1.908758 0.5965599 -0.4329756
v -1.528445 0.1900706 -0.9093652
v -1.528445 0.1900706 -0.9093652
v -1.908758 0.5965599 -0.4329756
v -2.803684 -0.4118607 -0.3903737
v -0.9144527 -1.83156 0.1907144
v -1.334748 -1.414086 0.4430702
v -0.7865654 -1.723103 0.8916267
v -1.334748 -1.414086 0.4430702
v -1.585921 -0.8506508 0.5104892
v -1.025731 -1.163031 1.005057
v -1.334748 -1.414086 0.4430702
v -1.025731 -1.163031 1.005057
v -0.7865654 -1.723103 0.8916267
v -0.7865654 -1.723103 0.8916267
v -1.025731 -1.163031 1.005057
v -0.5817373 -1.376382 1.022563
v -0.9144527 -1.83156 0.1907144
v -0.7865654 -1.723103 0.8916267
v -0.3127713 -1.850651 0.1907144
v -0.7865654 -1.723103 0.8916267
v -0.5817373 -1.376382 1.022563
v -0.1685312 -1.659668 0.7575734
v -0.7865654 -1.723103 0.8916267
v -0.1685312 -1.659668 0.7575734
v -0.3127713 -1.850651 0.1907144
v -0.3127713 -1.850651 0.1907144
v -0.1685312 -1.659668 0.7575734
v 0 -1.701302 0
v -0.9144527 -1.83156 0.1907144
v -0.3127713 -1.850651 0.1907144
v -0.9106979 -1.789926 -0.5
v -0.3127713 -1.850651 0.1907144
v 0 -1.701302 0
v -0.08208089 -1.425669 -0.6459107
v -0.3127713 -1.850651 0.1907144
v -0.08208089 -1.425669 -0.6459107
v -0.9106979 -1.789926 -0.5
v -0.9106979 -1.789926 -0.5
v -0.08208089 -1.425669 -0.6459107
v -0.3910979 -1.255789 -1.158808
v -0.9144527 -1.83156 0.1907144
v -0.9106979 -1.789926 -0.5
v -2.582538 -1.593718 -0.04970096
v -0.9106979 -1.789926 -0.5
v -0.3910979 -1.255789 -1.158808
v -2.451956 -1.201388 -1.048861
v -0.9106979 -1.789926 -0.5
v -2.451956 -1.201388 -1.048861
v -2.582538 -1.593718 -0.04970096
v -2.582538 -1.593718 -0.04970096
v -2.451956 -1.201388 -1.048861
v -2.803684 -0.4118607 -0.3903737
v -0.9144527 -1.83156 0.1907144
v -2.582538 -1.593718 -0.04970096
v -1.334748 -1.414086 0.4430702
v -2.582538 -1.593718 -0.04970096
v -2.803684 -0.4118607 -0.3903737
v -1.632508 -0.7412684 0.1581086
v -2.582538 -1.593718 -0.04970096
v -1.632508 -0.7412684 0.1581086
v -1.334748 -1.414086 0.4430702
v -1.334748 -1.414086 0.4430702
v -1.632508 -0.7412684 0.1581086
v -1.585921 -0.8506508 0.5104892
v -0.5817373 -1.376382 1.022563
v -1.025731 -1.163031 1.005057
v -0.5257311 -0.8540144 1.19604
v -1.025731 -1.163031 1.005057
v -1.585921 -0.8506508 0.5104892
v -1.559964 -0.5969734 1.005057
v -1.025731 -1.163031 1.005057
v -1.559964 -0.5969734 1.005057
v -0.5257311 -0.8540144 1.19604
v -0.5257311 -0.8540144 1.19604
v -1.559964 -0.5969734 1.005057
v -0.9070446 -0.1714558 0.9472511
v 0 -1.701302 0
v -0.1685312 -1.659668 0.7575734
v 0.2832859 -1.570027 0.08141045
v -0.1685312 -1.659668 0.7575734
v -0.5817373 -1.376382 1.022563
v -0.02573109 -1.159668 0.809017
v -0.1685312 -1.659668 0.7575734
v -0.02573109 -1.159668 0.809017
v 0.2832859 -1.570027 0.08141045
v 0.2832859 -1.570027 0.08141045
v -0.02573109 -1.159668 0.809017
v 0.5805826 -1.199847 0.2253202
v -0.3910979 -1.255789 -1.158808
v -0.08208089 -1.425669 -0.6459107
v 0.1089021 -1.018446 -1.530102
v -0.08208089 -1.425669 -0.6459107
v 0 -1.701302 0
v 0.2832859 -1.562983 -0.5366236
v -0.08208089 -1.425669 -0.6459107
v 0.2832859 -1.562983 -0.5366236
v 0.1089021 -1.018446 -1.530102
v 0.1089021 -1.018446 -1.530102
v 0.2832859 -1.562983 -0.5366236
v 0.3249197 -0.9442168 -0.8862659
v -2.803684 -0.4118607 -0.3903737
v -2.451956 -1.201388 -1.048861
v -1.528445 0.1900706 -0.9093652
v -2.451956 -1.201388 -1.048861
v -0.3910979 -1.255789 -1.158808
v -0.7814921 -0.8931744 -1.815019
v -2.451956 -1.201388 -1.048861
v -0.7814921 -0.8931744 -1.815019
v -1.528445 0.1900706 -0.9093652
v -1.528445 0.1900706 -0.9093652
v -0.7814921 -0.8931744 -1.815019
v -0.5257311 -0.3249197 -1.803255
v -1.585921 -0.8506508 0.5104892
v -1.632508 -0.7412684 0.1581086
v -2.159219 -0.2826612 0.2937752
v -1.632508 -0.7412684 0.1581086
v -2.803684 -0.4118607 -0.3903737
v -1.908758 0.5965599 -0.4329756
v -1.632508 -0.7412684 0.1581086
v -1.908758 0.5965599 -0.4329756
v -2.159219 -0.2826612 0.2937752
v -2.159219 -0.2826612 0.2937752
v -1.908758 0.5965599 -0.4329756
v -1.171971 0.1579399 0

vn 0.8705136 0.2990235 0.390885
vn 0.8705136 0.2990235 0.390885
vn 0.8705136 0.2990235 0.390885
vn 0.9035993 0.3572744 0.2363541
vn 0.9035993 0.3572744 0.2363541
vn 0.9035993 0.3572744 0.2363541
vn 0.8673314 0.4520003 0.2084034
vn 0.8673314 0.4520003 0.2084034
vn 0.8673314 0.4520003 0.2084034
vn 0.3876268 0.2094048 0.8977166
vn 0.3876268 0.2094048 0.8977166
vn 0.3876268 0.2094048 0.8977166
vn 0.2818838 0.9534469 0.1071472
vn 0.2818838 0.9534469 0.1071472
vn 0.2818838 0.9534469 0.1071472
vn -0.3332004 0.7630738 0.5538012
vn -0.3332004 0.7630738 0.5538012
vn -0.3332004 0.7630738 0.5538012
vn -0.3474883 0.8021975 0.4855215
vn -0.3474883 0.8021975 0.4855215
vn -0.3474883 0.8021975 0.4855215
vn -0.5978392 0.7879038 0.1476339
vn -0.5978392 0.7879038 0.1476339
vn -0.5978392 0.7879038 0.1476339
vn 0.2816443 0.952637 -0.114714
vn 0.2816443 0.952637 -0.114714
vn 0.2816443 0.952637 -0.114714
vn -0.5935352 0.7822316 0.1892871
vn -0.5935352 0.7822316 0.1892871
vn -0.5935352 0.7822316 0.1892871
vn 0.0789294 0.9824511 -0.1689971
vn 0.0789294 0.9824511 -0.1689971
vn 0.0789294 0.9824511 -0.1689971
vn -0.5006222 0.5704187 -0.6511528
vn -0.5006222 0.5704187 -0.6511528
vn -0.5006222 0.5704187 -0.6511528
vn 0.8166665 0.548576 -0.1792208
vn 0.8166665 0.548576 -0.1792208
vn 0.8166665 0.548576 -0.1792208
vn 0.1405325 0.4371908 -0.8883213
vn 0.1405325 0.4371908 -0.8883213
vn 0.1405325 0.4371908 -0.8883213
vn 0.8639877 0.3731861 -0.33802
vn 0.8639877 0.3731861 -0.33802
vn 0.8639877 0.3731861 -0.33802
vn 0.9459031 0.148322 -0.2885617
vn 0.9459031 0.148322 -0.2885617
vn 0.9459031 0.148322 -0.2885617
vn 0.8746112 0.477607 -0.08334753
vn 0.8746112 0.477607 -0.08334753
vn 0.8746112 0.477607 -0.08334753
vn 0.9725136 0.1215601 -0.1985958
vn 0.9725136 0.1215601 -0.1985958
vn 0.9725136 0.1215601 -0.1985958
vn 0.1981966 -0.4347688 -0.8784613
vn 0.1981966 -0.4347688 -0.8784613
vn 0.1981966 -0.4347688 -0.8784613
vn 0.9083282 -0.2904399 -0.3009728
vn 0.9083282 -0.2904399 -0.3009728
vn 0.9083282 -0.2904399 -0.3009728
vn -0.3388116 0.9123676 0.2297651
vn -0.3388116 0.9123676 0.2297651
vn -0.3388116 0.9123676 0.2297651
vn -0.4052988 0.7015263 0.5861688
vn -0.4052988 0.7015263 0.5861688
vn -0.4052988 0.7015263 0.5861688
vn -0.3604803 0.7021843 0.6139961
vn -0.3604803 0.7021843 0.6139961
vn -0.3604803 0.7021843 0.6139961
vn -0.7231975 -0.5983694 0.3448763
vn -0.7231975 -0.5983694 0.3448763
vn -0.7231975 -0.5983694 0.3448763
vn 0.425539 0.5101627 0.7474293
vn 0.425539 0.5101627 0.7474293
vn 0.425539 0.5101627 0.7474293
vn 0.6942298 0.02778535 0.719217
vn 0.6942298 0.02778535 0.719217
vn 0.6942298 0.02778535 0.719217
vn 0.6373112 0.07092689 0.7673356
vn 0.6373112 0.07092689 0.7673356
vn 0.6373112 0.07092689 0.7673356
vn 0.4467529 -0.3247479 0.8336371
vn 0.4467529 -0.3247479 0.8336371
vn 0.4467529 -0.3247479 0.8336371
vn 0.79347 -0.5054628 -0.3389878
vn 0.79347 -0.5054628 -0.3389878
vn 0.79347 -0.5054628 -0.3389878
vn 0.9457192 -0.2057706 -0.2515426
vn 0.9457192 -0.2057706 -0.2515426
vn 0.9457192 -0.2057706 -0.2515426
vn 0.934995 -0.3546379 -0.004042207
vn 0.934995 -0.3546379 -0.004042207
vn 0.934995 -0.3546379 -0.004042207
vn 0.422869 -0.906132 -0.01032821
vn 0.422869 -0.906132 -0.01032821
vn 0.422869 -0.906132 -0.01032821
vn 0.9458376 0.04087592 -0.3220564
vn 0.9458376 0.04087592 -0.3220564
vn 0.9458376 0.04087592 -0.3220564
vn -0.1042169 0.06744785 -0.9922649
vn -0.1042169 0.06744785 -0.9922649
vn -0.1042169 0.06744785 -0.9922649
vn 0.1538538 -0.6326723 -0.7589827
vn 0.1538538 -0.6326723 -0.7589827
vn 0.1538538 -0.6326723 -0.7589827
vn 0.03858786 -0.8647103 -0.5007865
vn 0.03858786 -0.8647103 -0.5007865
vn 0.03858786 -0.8647103 -0.5007865
vn -0.1995701 0.7354187 -0.6475577
vn -0.1995701 0.7354187 -0.6475577
vn -0.1995701 0.7354187 -0.6475577
vn 0.2537276 0.8611132 0.440575
vn 0.2537276 0.8611132 0.440575
vn 0.2537276 0.8611132 0.440575
vn -0.1549615 0.6870195 -0.7099232
vn -0.1549615 0.6870195 -0.7099232
vn -0.1549615 0.6870195 -0.7099232
vn -0.5042194 0.4154886 -0.7570548
vn -0.5042194 0.4154886 -0.7570548
vn -0.5042194 0.4154886 -0.7570548
vn -0.6133884 -0.7558886 0.228882
vn -0.6133884 -0.7558886 0.228882
vn -0.6133884 -0.7558886 0.228882
vn -0.7220106 -0.3902287 0.5713337
vn -0.7220106 -0.3902287 0.5713337
vn -0.7220106 -0.3902287 0.5713337
vn -0.7047338 -0.4171652 0.573867
vn -0.7047338 -0.4171652 0.573867
vn -0.7047338 -0.4171652 0.573867
vn -0.1636173 -0.2624674 0.950968
vn -0.1636173 -0.2624674 0.950968
vn -0.1636173 -0.2624674 0.950968
vn -0.0313126 -0.9868752 0.1584196
vn -0.0313126 -0.9868752 0.1584196
vn -0.0313126 -0.9868752 0.1584196
vn 0.2330405 -0.4610233 0.8562415
vn 0.2330405 -0.4610233 0.8562415
vn 0.2330405 -0.4610233 0.8562415
vn 0.1577418 -0.947246 0.2790028
vn 0.1577418 -0.947246 0.2790028
vn 0.1577418 -0.947246 0.2790028
vn 0.5024881 -0.8499325 0.1584941
vn 0.5024881 -0.8499325 0.1584941
vn 0.5024881 -0.8499325 0.1584941
vn -0.03165536 -0.9976777 -0.06030859
vn -0.03165536 -0.9976777 -0.06030859
vn -0.03165536 -0.9976777 -0.06030859
vn 0.1807207 -0.8961123 -0.4053674
vn 0.1807207 -0.8961123 -0.4053674
vn 0.1807207 -0.8961123 -0.4053674
vn 0.3226884 -0.8768307 -0.3564269
vn 0.3226884 -0.8768307 -0.3564269
vn 0.3226884 -0.8768307 -0.3564269
vn 0.2903709 -0.8423823 -0.4539569
vn 0.2903709 -0.8423823 -0.4539569
vn 0.2903709 -0.8423823 -0.4539569
vn -0.1323683 -0.9893613 -0.06035479
vn -0.1323683 -0.9893613 -0.06035479
vn -0.1323683 -0.9893613 -0.06035479
vn -0.05482556 -0.7540138 -0.6545666
vn -0.05482556 -0.7540138 -0.6545666
vn -0.05482556 -0.7540138 -0.6545666
vn -0.2083259 -0.9008231 -0.380944
vn -0.2083259 -0.9008231 -0.380944
vn -0.2083259 -0.9008231 -0.380944
vn -0.9460711 -0.2398104 -0.2178081
vn -0.9460711 -0.2398104 -0.2178081
vn -0.9460711 -0.2398104 -0.2178081
vn -0.1983397 -0.6455135 0.7375457
vn -0.1983397 -0.6455135 0.7375457
vn -0.1983397 -0.6455135 0.7375457
vn -0.3713004 0.1923621 0.9083683
vn -0.3713004 0.1923621 0.9083683
vn -0.3713004 0.1923621 0.9083683
vn -0.3851306 0.210153 0.8986157
vn -0.3851306 0.210153 0.8986157
vn -0.3851306 0.210153 0.8986157
vn -0.9135834 -0.406615 -0.005436904
vn -0.9135834 -0.406615 -0.005436904
vn -0.9135834 -0.406615 -0.005436904
vn -0.1778007 -0.2929283 0.9394573
vn -0.1778007 -0.2929283 0.9394573
vn -0.1778007 -0.2929283 0.9394573
vn -0.6774986 -0.6394084 0.3635278
vn -0.6774986 -0.6394084 0.3635278
vn -0.6774986 -0.6394084 0.3635278
vn -0.2289787 -0.2161051 0.9491404
vn -0.2289787 -0.2161051 0.9491404
vn -0.2289787 -0.2161051 0.9491404
vn -0.1039658 0.2888169 0.9517226
vn -0.1039658 0.2888169 0.9517226
vn -0.1039658 0.2888169 0.9517226
vn 0.3842034 -0.9132276 0.1356587
vn 0.3842034 -0.9132276 0.1356587
vn 0.3842034 -0.9132276 0.1356587
vn 0.4210551 -0.2110152 0.8821481
vn 0.4210551 -0.2110152 0.8821481
vn 0.4210551 -0.2110152 0.8821481
vn 0.8140795 -0.2845875 0.5062456
vn 0.8140795 -0.2845875 0.5062456
vn 0.8140795 -0.2845875 0.5062456
vn 0.5128864 -0.6360402 0.5765419
vn 0.5128864 -0.6360402 0.5765419
vn 0.5128864 -0.6360402 0.5765419
vn 0.1438506 -0.9102909 -0.388172
vn 0.1438506 -0.9102909 -0.388172
vn 0.1438506 -0.9102909 -0.388172
vn -0.2334023 -0.9047074 -0.3564094
vn -0.2334023 -0.9047074 -0.3564094
vn -0.2334023 -0.9047074 -0.3564094
vn -0.1954523 -0.874057 -0.4447726
vn -0.1954523 -0.874057 -0.4447726
vn -0.1954523 -0.874057 -0.4447726
vn 0.9313532 -0.2246072 -0.2865885
vn 0.9313532 -0.2246072 -0.2865885
vn 0.9313532 -0.2246072 -0.2865885
vn -0.5031784 0.4102123 -0.7606164
vn -0.5031784 0.4102123 -0.7606164
vn -0.5031784 0.4102123 -0.7606164
vn -0.04798862 -0.8860609 -0.4610784
vn -0.04798862 -0.8860609 -0.4610784
vn -0.04798862 -0.8860609 -0.4610784
vn -0.4427343 0.3754726 -0.8142521
vn -0.4427343 0.3754726 -0.8142521
vn -0.4427343 0.3754726 -0.8142521
vn -0.5605023 0.2684901 -0.7834222
vn -0.5605023 0.2684901 -0.7834222
vn -0.5605023 0.2684901 -0.7834222
vn -0.6703479 -0.7291561 -0.1377138
vn -0.6703479 -0.7291561 -0.1377138
vn -0.6703479 -0.7291561 -0.1377138
vn -0.3244167 0.3254265 0.8881731
vn -0.3244167 0.3254265 0.8881731
vn -0.3244167 0.3254265 0.8881731
vn -0.5568582 -0.4291822 -0.7111339
vn -0.5568582 -0.4291822 -0.7111339
vn -0.5568582 -0.4291822 -0.7111339
vn -0.06214771 0.6463361 0.7605177
vn -0.06214771 0.6463361 0.7605177
vn -0.06214771 0.6463361 0.7605177

vt -0.5257311 0
vt -0.809017 0.309017
vt -0.309017 0.5
vt -0.309017 0.5
vt -0.5257311 0
vt -0.809017 0.309017
vt 0.809017 0.5
vt 0.5 0.309017
vt 0.309017 0.809017
vt 0.309017 0.809017
vt 0.5 0.309017
vt 0 0.5257311
vt -0.5257311 0
vt -0.309017 0.5
vt 0 0
vt -0.309017 0.5
vt 0 0.8506508
vt 0.309017 0.5
vt -0.309017 0.5
vt 0.309017 0.5
vt 0 0
vt 0 0
vt 0.309017 0.5
vt 0.5257311 0
vt -0.5257311 0
vt 0 0
vt -0.309017 -0.5
vt 0 0
vt 0.5257311 0
vt 0.309017 -0.5
vt 0 0
vt 0.309017 -0.5
vt -0.309017 -0.5
vt -0.309017 -0.5
vt 0.309017 -0.5
vt 0 -0.8506508
vt -0.5257311 0
vt -0.309017 -0.5
vt -0.809017 -0.309017
vt -0.309017 0.809017
vt 0 0.5257311
vt -0.5 0.309017
vt 0.5 0.809017
vt 0.809017 0.309017
vt 0.309017 0.5
vt 0.309017 0.5
vt 0.809017 0.309017
vt 0.5257311 0
vt 0 0.8506508
vt 0.309017 0.5
vt -0.309017 0.5
vt 0.309017 0.5
vt 0.5257311 0
vt 0 0
vt 0.309017 0.5
vt 0 0
vt -0.309017 0.5
vt -0.309017 0.5
vt 0 0
vt -0.5257311 0
vt 0.5257311 0
vt 0.309017 0.5
vt 0.809017 0.309017
vt -0.309017 0.809017
vt 0 0.5257311
vt -0.5 0.309017
vt 0.5 0.809017
vt 0.809017 0.309017
vt 0.309017 0.5
vt 0.309017 0.5
vt 0.809017 0.309017
vt 0.5257311 0
vt 0 0.5257311
vt 0.5 0.309017
vt 0 0
vt 0.5 0.309017
vt 0.8506508 0
vt 0.5 -0.309017
vt 0.5 0.309017
vt 0.5 -0.309017
vt 0 0
vt 0 0
vt 0.5 -0.309017
vt 0 -0.5257311
vt -0.5257311 0
vt 0 0
vt -0.309017 -0.5
vt 0 0
vt 0.5257311 0
vt 0.309017 -0.5
vt 0 0
vt 0.309017 -0.5
vt -0.309017 -0.5
vt -0.309017 -0.5
vt 0.309017 -0.5
vt 0 -0.8506508
vt -0.8506508 0
vt -0.5 0.309017
vt -0.5 -0.309017
vt -0.5 0.309017
vt 0 0.5257311
vt 0 0
vt -0.5 0.309017
vt 0 0
vt -0.5 -0.309017
vt -0.5 -0.309017
vt 0 0
vt 0 -0.5257311
vt 0 0.5257311
vt 0.309017 0.809017
vt 0.5 0.309017
vt 0.309017 -0.5
vt 0.5257311 0
vt 0.809017 -0.309017
vt -0.5 0.809017
vt -0.309017 0.5
vt -0.809017 0.309017
vt -0.809017 0.309017
vt -0.309017 0.5
vt -0.5257311 0
vt -0.5257311 0
vt -0.809017 0.309017
vt -0.309017 0.5
vt 0.309017 -0.5
vt 0.5257311 0
vt 0.809017 -0.309017
vt -0.809017 -0.5
vt -0.5 -0.309017
vt -0.309017 -0.809017
vt -0.309017 -0.809017
vt -0.5 -0.309017
vt 0 -0.5257311
vt -0.5257311 0
vt -0.309017 0.5
vt 0 0
vt -0.309017 0.5
vt 0 0.8506508
vt 0.309017 0.5
vt -0.309017 0.5
vt 0.309017 0.5
vt 0 0
vt 0 0
vt 0.309017 0.5
vt 0.5257311 0
vt -0.5257311 0
vt 0 0
vt -0.309017 -0.5
vt 0 0
vt 0.5257311 0
vt 0.309017 -0.5
vt 0 0
vt 0.309017 -0.5
vt -0.309017 -0.5
vt -0.309017 -0.5
vt 0.309017 -0.5
vt 0 -0.8506508
vt -0.5257311 0
vt -0.309017 -0.5
vt -0.809017 -0.309017
vt 0.309017 -0.809017
vt 0 -0.5257311
vt 0.5 -0.309017
vt -0.5 -0.809017
vt -0.809017 -0.309017
vt -0.309017 -0.5
vt -0.309017 -0.5
vt -0.809017 -0.309017
vt -0.5257311 0
vt 0 -0.8506508
vt -0.309017 -0.5
vt 0.309017 -0.5
vt -0.309017 -0.5
vt -0.5257311 0
vt 0 0
vt -0.309017 -0.5
vt 0 0
vt 0.309017 -0.5
vt 0.309017 -0.5
vt 0 0
vt 0.5257311 0
vt 0 -0.5257311
vt -0.5 -0.309017
vt 0 0
vt -0.5 -0.309017
vt -0.8506508 0
vt -0.5 0.309017
vt -0.5 -0.309017
vt -0.5 0.309017
vt 0 0
vt 0 0
vt -0.5 0.309017
vt 0 0.5257311
vt 0.5257311 0
vt 0.309017 0.5
vt 0.809017 0.309017
vt 0.309017 -0.809017
vt 0 -0.5257311
vt 0.5 -0.309017
vt -0.5 -0.809017
vt -0.809017 -0.309017
vt -0.309017 -0.5
vt -0.309017 -0.5
vt -0.809017 -0.309017
vt -0.5257311 0
vt 0 -0.5257311
vt -0.309017 -0.809017
vt -0.5 -0.309017
vt 0.309017 -0.5
vt 0.5257311 0
vt 0.809017 -0.309017
vt 0.5 -0.809017
vt 0.309017 -0.5
vt 0.809017 -0.309017
vt 0.809017 -0.309017
vt 0.309017 -0.5
vt 0.5257311 0
vt 0.8506508 0
vt 0.5 -0.309017
vt 0.5 0.309017
vt 0.5 -0.309017
vt 0 -0.5257311
vt 0 0
vt 0.5 -0.309017
vt 0 0
vt 0.5 0.309017
vt 0.5 0.309017
vt 0 0
vt 0 0.5257311
vt 0.5257311 0
vt 0 0
vt 0.309017 0.5
vt 0 0
vt -0.5257311 0
vt -0.309017 0.5
vt 0 0
vt -0.309017 0.5
vt 0.309017 0.5
vt 0.309017 0.5
vt -0.309017 0.5
vt 0 0.8506508

g astafsaasfas
usemtl astafsaasfas
usemap astafsaasfas
f 2/2/2 1/1/1 3/3/3
f 5/5/5 4/4/4 6/6/6
f 8/8/8 7/7/7 9/9/9
f 11/11/11 10/10/10 12/12/12
f 14/14/14 13/13/13 15/15/15
f 17/17/17 16/16/16 18/18/18
f 20/20/20 19/19/19 21/21/21
f 23/23/23 22/22/22 24/24/24
f 26/26/26 25/25/25 27/27/27
f 29/29/29 28/28/28 30/30/30
f 32/32/32 31/31/31 33/33/33
f 35/35/35 34/34/34 36/36/36
f 38/38/38 37/37/37 39/39/39
f 41/41/41 40/40/40 42/42/42
f 44/44/44 43/43/43 45/45/45
f 47/47/47 46/46/46 48/48/48
f 50/50/50 49/49/49 51/51/51
f 53/53/53 52/52/52 54/54/54
f 56/56/56 55/55/55 57/57/57
f 59/59/59 58/58/58 60/60/60
f 62/62/62 61/61/61 63/63/63
f 65/65/65 64/64/64 66/66/66
f 68/68/68 67/67/67 69/69/69
f 71/71/71 70/70/70 72/72/72
f 74/74/74 73/73/73 75/75/75
f 77/77/77 76/76/76 78/78/78
f 80/80/80 79/79/79 81/81/81
f 83/83/83 82/82/82 84/84/84
f 86/86/86 85/85/85 87/87/87
f 89/89/89 88/88/88 90/90/90
f 92/92/92 91/91/91 93/93/93
f 95/95/95 94/94/94 96/96/96
f 98/98/98 97/97/97 99/99/99
f 101/101/101 100/100/100 102/102/102
f 104/104/104 103/103/103 105/105/105
f 107/107/107 106/106/106 108/108/108
f 110/110/110 109/109/109 111/111/111
f 113/113/113 112/112/112 114/114/114
f 116/116/116 115/115/115 117/117/117
f 119/119/119 118/118/118 120/120/120
f 122/122/122 121/121/121 123/123/123
f 125/125/125 124/124/124 126/126/126
f 128/128/128 127/127/127 129/129/129
f 131/131/131 130/130/130 132/132/132
f 134/134/134 133/133/133 135/135/135
f 137/137/137 136/136/136 138/138/138
f 140/140/140 139/139/139 141/141/141
f 143/143/143 142/142/142 144/144/144
f 146/146/146 145/145/145 147/147/147
f 149/149/149 148/148/148 150/150/150
f 152/152/152 151/151/151 153/153/153
f 155/155/155 154/154/154 156/156/156
f 158/158/158 157/157/157 159/159/159
f 161/161/161 160/160/160 162/162/162
f 164/164/164 163/163/163 165/165/165
f 167/167/167 166/166/166 168/168/168
f 170/170/170 169/169/169 171/171/171
f 173/173/173 172/172/172 174/174/174
f 176/176/176 175/175/175 177/177/177
f 179/179/179 178/178/178 180/180/180
f 182/182/182 181/181/181 183/183/183
f 185/185/185 184/184/184 186/186/186
f 188/188/188 187/187/187 189/189/189
f 191/191/191 190/190/190 192/192/192
f 194/194/194 193/193/193 195/195/195
f 197/197/197 196/196/196 198/198/198
f 200/200/200 199/199/199 201/201/201
f 203/203/203 202/202/202 204/204/204
f 206/206/206 205/205/205 207/207/207
f 209/209/209 208/208/208 210/210/210
f 212/212/212 211/211/211 213/213/213
f 215/215/215 214/214/214 216/216/216
f 218/218/218 217/217/217 219/219/219
f 221/221/221 220/220/220 222/222/222
f 224/224/224 223/223/223 225/225/225
f 227/227/227 226/226/226 228/228/228
f 230/230/230 229/229/229 231/231/231
f 233/233/233 232/232/232 234/234/234
f 236/236/236 235/235/235 237/237/237
f 239/239/239 238/238/238 240/240/240
